font.ufo
<glyph name="numbersign" format="1">
  <advance width="732"/>
  <unicode hex="0023"/>
  <outline>
    <contour>
      <point x="432.63338" y="271" type="line"/>
      <point x="279.24679" y="271" type="line"/>
      <point x="297.77175" y="422.0" type="line"/>
      <point x="451.37375" y="422.0" type="line"/>
    </contour>
    <contour>
      <point x="399.0" y="0" type="line"/>
      <point x="510.0" y="0" type="line"/>
      <point x="529.6291" y="160" type="line"/>
      <point x="668" y="160" type="line"/>
      <point x="679" y="271" type="line"/>
      <point x="543.24679" y="271" type="line"/>
      <point x="561.77175" y="422.0" type="line"/>
      <point x="701.0" y="422.0" type="line"/>
      <point x="711.0" y="533" type="line"/>
      <point x="575.38944" y="533" type="line"/>
      <point x="596" y="701.0" type="line"/>
      <point x="486.0" y="701.0" type="line"/>
      <point x="465.14979" y="533" type="line"/>
      <point x="311.38944" y="533" type="line"/>
      <point x="332" y="701.0" type="line"/>
      <point x="222.0" y="701.0" type="line"/>
      <point x="201.14979" y="533" type="line"/>
      <point x="64" y="533" type="line"/>
      <point x="52.0" y="422.0" type="line"/>
      <point x="187.37375" y="422.0" type="line"/>
      <point x="168.63338" y="271" type="line"/>
      <point x="31.0" y="271" type="line"/>
      <point x="19" y="160" type="line"/>
      <point x="154.85735" y="160" type="line"/>
      <point x="135" y="0" type="line"/>
      <point x="246.0" y="0" type="line"/>
      <point x="265.6291" y="160" type="line"/>
      <point x="418.85735" y="160" type="line"/>
    </contour>
  </outline>
</glyph>
<glyph name="dollar" format="1">
  <advance width="637"/>
  <unicode hex="0024"/>
  <note>
    dollar
  </note>
  <outline>
    <contour>
      <point x="320" y="572" type="curve" smooth="yes"/>
      <point x="376" y="572"/>
      <point x="464" y="544"/>
      <point x="538" y="500" type="curve"/>
      <point x="599" y="631" type="line"/>
      <point x="541" y="669"/>
      <point x="463" y="697"/>
      <point x="382" y="705" type="curve"/>
      <point x="382" y="846" type="line"/>
      <point x="262" y="846" type="line"/>
      <point x="262" y="702" type="line"/>
      <point x="140" y="682"/>
      <point x="62" y="608"/>
      <point x="62" y="500" type="curve" smooth="yes"/>
      <point x="62" y="252"/>
      <point x="435" y="329"/>
      <point x="435" y="197" type="curve" smooth="yes"/>
      <point x="435" y="154"/>
      <point x="396" y="130"/>
      <point x="331" y="130" type="curve" smooth="yes"/>
      <point x="257" y="130"/>
      <point x="155" y="171"/>
      <point x="83" y="235" type="curve"/>
      <point x="20" y="106" type="line"/>
      <point x="84" y="52"/>
      <point x="171" y="13"/>
      <point x="262" y="0" type="curve"/>
      <point x="262" y="-151" type="line"/>
      <point x="382" y="-151" type="line"/>
      <point x="382" y="-2" type="line"/>
      <point x="511" y="13"/>
      <point x="603" y="85"/>
      <point x="603" y="206" type="curve" smooth="yes"/>
      <point x="604" y="458"/>
      <point x="231" y="386"/>
      <point x="231" y="515" type="curve" smooth="yes"/>
      <point x="231" y="553"/>
      <point x="267" y="572"/>
    </contour>
  </outline>
</glyph>
<glyph name="ampersand" format="1">
  <advance width="678"/>
  <unicode hex="0026"/>
  <outline>
    <contour>
      <point x="593.0" y="-27.0" type="curve"/>
      <point x="671" y="51.0" type="line"/>
      <point x="631.97888766" y="88.0635314531"/>
      <point x="596.091600293" y="122.214649481"/>
      <point x="563.18477" y="153.79139" type="curve"/>
      <point x="589.116768784" y="190.575473182"/>
      <point x="611.645744505" y="232.917344599"/>
      <point x="630.0" y="280.0" type="curve"/>
      <point x="532" y="353.0" type="line"/>
      <point x="518.046980184" y="309.062831217"/>
      <point x="500.12795571" y="269.356067403"/>
      <point x="479.21101" y="235.25887" type="curve"/>
      <point x="429.665807601" y="284.049313436"/>
      <point x="389.325694379" y="325.506246753"/>
      <point x="357.29489" y="361.60442" type="curve"/>
      <point x="440.993984058" y="404.866326211"/>
      <point x="523.0" y="455.554255052"/>
      <point x="523.0" y="553.0" type="curve" smooth="yes"/>
      <point x="523" y="643"/>
      <point x="444" y="707"/>
      <point x="331" y="707" type="curve" smooth="yes"/>
      <point x="213" y="707"/>
      <point x="137" y="641"/>
      <point x="137" y="542" type="curve" smooth="yes"/>
      <point x="137.0" y="491.687693377"/>
      <point x="155.076501412" y="444.00188696"/>
      <point x="197.606" y="384.61225" type="curve"/>
      <point x="122.29000732" y="343.261250783"/>
      <point x="55.0" y="290.558711296"/>
      <point x="55.0" y="195.0" type="curve" smooth="yes"/>
      <point x="55" y="77"/>
      <point x="155" y="-7"/>
      <point x="287" y="-7" type="curve" smooth="yes"/>
      <point x="361.306464574" y="-7.0"/>
      <point x="430.950416848" y="21.4931307248"/>
      <point x="490.52674" y="72.82096" type="curve"/>
      <point x="522.16906415" y="41.9165200887"/>
      <point x="556.282344756" y="8.74285023785"/>
    </contour>
    <contour>
      <point x="257.0" y="542.0" type="curve" smooth="yes"/>
      <point x="257" y="585"/>
      <point x="286" y="616"/>
      <point x="332" y="616" type="curve" smooth="yes"/>
      <point x="375" y="616"/>
      <point x="402" y="590"/>
      <point x="402" y="552" type="curve" smooth="yes"/>
      <point x="402.0" y="499.697858794"/>
      <point x="356.223411013" y="466.920026436"/>
      <point x="297.9232" y="435.98695" type="curve"/>
      <point x="269.788174892" y="477.19501409"/>
      <point x="257.0" y="510.653921493"/>
    </contour>
    <contour>
      <point x="293.0" y="105.0" type="curve" smooth="yes"/>
      <point x="230" y="105"/>
      <point x="181" y="146"/>
      <point x="181" y="206" type="curve" smooth="yes"/>
      <point x="181.0" y="250.458631151"/>
      <point x="213.599676903" y="281.572365324"/>
      <point x="258.66935" y="309.19736" type="curve"/>
      <point x="297.904386508" y="264.841703377"/>
      <point x="347.750814066" y="213.681974278"/>
      <point x="409.78566" y="152.17063" type="curve"/>
      <point x="373.928920894" y="121.926238438"/>
      <point x="334.141509985" y="105.0"/>
    </contour>
  </outline>
</glyph>
<glyph name="parenright" format="1">
  <advance width="321"/>
  <unicode hex="0029"/>
  <outline>
    <contour>
      <point x="40" y="742" type="line"/>
      <point x="113" y="626"/>
      <point x="160" y="473"/>
      <point x="160" y="309" type="curve" smooth="yes"/>
      <point x="160" y="145"/>
      <point x="113" y="-8"/>
      <point x="40" y="-124" type="curve"/>
      <point x="178" y="-124" type="line"/>
      <point x="260" y="-8"/>
      <point x="304" y="145"/>
      <point x="304" y="309" type="curve" smooth="yes"/>
      <point x="304" y="473"/>
      <point x="260" y="626"/>
      <point x="178" y="742" type="curve"/>
    </contour>
  </outline>
</glyph>
<glyph name="asterisk" format="1">
  <advance width="368"/>
  <unicode hex="002A"/>
  <outline>
    <contour>
      <point x="344" y="507" type="line"/>
      <point x="257" y="555" type="line"/>
      <point x="344" y="602" type="line"/>
      <point x="305" y="672" type="line"/>
      <point x="221" y="622" type="line"/>
      <point x="223" y="719" type="line"/>
      <point x="145" y="719" type="line"/>
      <point x="146" y="622" type="line"/>
      <point x="62" y="673" type="line"/>
      <point x="23" y="602" type="line"/>
      <point x="109" y="555" type="line"/>
      <point x="23" y="507" type="line"/>
      <point x="62" y="438" type="line"/>
      <point x="147" y="488" type="line"/>
      <point x="145" y="391" type="line"/>
      <point x="223" y="391" type="line"/>
      <point x="220" y="487" type="line"/>
      <point x="305" y="437" type="line"/>
    </contour>
  </outline>
</glyph>
<glyph name="plus" format="1">
  <advance width="506"/>
  <unicode hex="002B"/>
  <outline>
    <contour>
      <point x="472.0" y="275" type="line"/>
      <point x="472.0" y="377.0" type="line"/>
      <point x="302" y="377.0" type="line"/>
      <point x="302" y="547" type="line"/>
      <point x="204.0" y="547" type="line"/>
      <point x="204.0" y="377.0" type="line"/>
      <point x="33" y="377.0" type="line"/>
      <point x="33" y="275" type="line"/>
      <point x="204.0" y="275" type="line"/>
      <point x="204.0" y="106.0" type="line"/>
      <point x="302" y="106.0" type="line"/>
      <point x="302" y="275" type="line"/>
    </contour>
  </outline>
</glyph>
<glyph name="comma" format="1">
  <advance width="232"/>
  <unicode hex="002C"/>
  <outline>
    <contour>
      <point x="105.0" y="-92.0" type="line"/>
      <point x="172" y="9" type="line" smooth="yes"/>
      <point x="185" y="27"/>
      <point x="193" y="47"/>
      <point x="193" y="71" type="curve" smooth="yes"/>
      <point x="193" y="121"/>
      <point x="158" y="149"/>
      <point x="118" y="149" type="curve" smooth="yes"/>
      <point x="74" y="149"/>
      <point x="42" y="117"/>
      <point x="42" y="71" type="curve" smooth="yes"/>
      <point x="42.0" y="46.2670762342"/>
      <point x="51.59427151" y="23.8500111089"/>
      <point x="72.11486" y="9.45851" type="curve"/>
      <point x="30.0" y="-92.0" type="line"/>
    </contour>
  </outline>
</glyph>
<glyph name="hyphen" format="1">
  <advance width="372"/>
  <unicode hex="002D"/>
  <outline>
    <contour>
      <point x="57" y="357" type="line"/>
      <point x="57" y="255" type="line"/>
      <point x="315" y="255" type="line"/>
      <point x="315" y="357" type="line"/>
    </contour>
  </outline>
</glyph>
<glyph name="period" format="1">
  <advance width="232"/>
  <unicode hex="002E"/>
  <outline>
    <contour>
      <point x="40" y="70" type="curve" smooth="yes"/>
      <point x="40" y="25"/>
      <point x="71" y="-8"/>
      <point x="115" y="-8" type="curve" smooth="yes"/>
      <point x="160" y="-8"/>
      <point x="192" y="25"/>
      <point x="192" y="70" type="curve" smooth="yes"/>
      <point x="192" y="116"/>
      <point x="160" y="149"/>
      <point x="115" y="149" type="curve" smooth="yes"/>
      <point x="71" y="149"/>
      <point x="40" y="116"/>
    </contour>
  </outline>
</glyph>
<glyph name="slash" format="1">
  <advance width="346"/>
  <unicode hex="002F"/>
  <outline>
    <contour>
      <point x="291" y="813" type="line"/>
      <point x="-30" y="-112" type="line"/>
      <point x="99" y="-112" type="line"/>
      <point x="420" y="813" type="line"/>
    </contour>
  </outline>
</glyph>
<glyph name="zero" format="1">
  <advance width="617"/>
  <unicode hex="0030"/>
  <note>
    zero
  </note>
  <outline>
    <contour>
      <point x="38" y="351" type="curve" smooth="yes"/>
      <point x="38" y="122"/>
      <point x="134" y="-4"/>
      <point x="309" y="-4" type="curve" smooth="yes"/>
      <point x="483" y="-4"/>
      <point x="579" y="122"/>
      <point x="579" y="351" type="curve" smooth="yes"/>
      <point x="579" y="579"/>
      <point x="483" y="706"/>
      <point x="309" y="706" type="curve" smooth="yes"/>
      <point x="134" y="706"/>
      <point x="38" y="579"/>
    </contour>
    <contour>
      <point x="426" y="351" type="curve" smooth="yes"/>
      <point x="426" y="185"/>
      <point x="389" y="112"/>
      <point x="309" y="112" type="curve" smooth="yes"/>
      <point x="228" y="112"/>
      <point x="191" y="185"/>
      <point x="191" y="351" type="curve" smooth="yes"/>
      <point x="191" y="518"/>
      <point x="228" y="590"/>
      <point x="309" y="590" type="curve" smooth="yes"/>
      <point x="389" y="590"/>
      <point x="426" y="518"/>
    </contour>
  </outline>
</glyph>
<glyph name="one" format="1">
  <advance width="617"/>
  <unicode hex="0031"/>
  <note>
    one
  </note>
  <outline>
    <contour>
      <point x="396" y="0" type="line"/>
      <point x="396" y="701" type="line"/>
      <point x="98" y="701" type="line"/>
      <point x="98" y="567" type="line"/>
      <point x="238" y="567" type="line"/>
      <point x="238" y="0" type="line"/>
    </contour>
  </outline>
</glyph>
<glyph name="two" format="1">
  <advance width="596"/>
  <unicode hex="0032"/>
  <note>
    two
  </note>
  <outline>
    <contour>
      <point x="25" y="603" type="curve"/>
      <point x="86" y="485" type="line"/>
      <point x="148" y="539"/>
      <point x="219" y="573"/>
      <point x="277" y="573" type="curve" smooth="yes"/>
      <point x="335" y="573"/>
      <point x="369" y="547"/>
      <point x="369" y="503" type="curve" smooth="yes"/>
      <point x="369" y="469"/>
      <point x="339" y="420"/>
      <point x="296" y="376" type="curve" smooth="yes"/>
      <point x="43" y="108" type="line"/>
      <point x="43" y="0" type="line"/>
      <point x="558" y="0" type="line"/>
      <point x="558" y="132" type="line"/>
      <point x="248" y="132" type="line"/>
      <point x="403" y="294" type="line" smooth="yes"/>
      <point x="479" y="372"/>
      <point x="534" y="451"/>
      <point x="534" y="526" type="curve" smooth="yes"/>
      <point x="534" y="636"/>
      <point x="437" y="707"/>
      <point x="300" y="707" type="curve" smooth="yes"/>
      <point x="203" y="707"/>
      <point x="110" y="668"/>
    </contour>
  </outline>
</glyph>
<glyph name="three" format="1">
  <advance width="617"/>
  <unicode hex="0033"/>
  <note>
    three
  </note>
  <outline>
    <contour>
      <point x="325" y="415" type="line"/>
      <point x="528" y="605" type="line"/>
      <point x="528" y="700" type="line"/>
      <point x="50" y="700" type="line"/>
      <point x="50" y="572" type="line"/>
      <point x="336" y="572" type="line"/>
      <point x="157" y="400" type="line"/>
      <point x="157" y="313" type="line"/>
      <point x="269" y="313" type="line" smooth="yes"/>
      <point x="358" y="313"/>
      <point x="408" y="281"/>
      <point x="408" y="217" type="curve" smooth="yes"/>
      <point x="408" y="156"/>
      <point x="358" y="118"/>
      <point x="270" y="118" type="curve" smooth="yes"/>
      <point x="201" y="118"/>
      <point x="134" y="147"/>
      <point x="78" y="201" type="curve"/>
      <point x="14" y="75" type="line"/>
      <point x="81" y="26"/>
      <point x="183" y="-7"/>
      <point x="282" y="-7" type="curve" smooth="yes"/>
      <point x="454" y="-7"/>
      <point x="563" y="86"/>
      <point x="563" y="219" type="curve" smooth="yes"/>
      <point x="563" y="328"/>
      <point x="481" y="396"/>
      <point x="363" y="410" type="curve" smooth="yes"/>
    </contour>
  </outline>
</glyph>
<glyph name="four" format="1">
  <advance width="617"/>
  <unicode hex="0034"/>
  <note>
    four
  </note>
  <outline>
    <contour>
      <point x="253" y="701" type="line"/>
      <point x="30" y="269" type="line"/>
      <point x="30" y="159" type="line"/>
      <point x="357" y="159" type="line"/>
      <point x="357" y="0" type="line"/>
      <point x="502" y="0" type="line"/>
      <point x="502" y="159" type="line"/>
      <point x="598" y="159" type="line"/>
      <point x="598" y="286" type="line"/>
      <point x="503" y="286" type="line"/>
      <point x="502" y="441" type="line"/>
      <point x="357" y="441" type="line"/>
      <point x="357" y="286" type="line"/>
      <point x="194" y="286" type="line"/>
      <point x="403" y="701" type="line"/>
    </contour>
  </outline>
</glyph>
<glyph name="five" format="1">
  <advance width="617"/>
  <unicode hex="0035"/>
  <note>
    five
  </note>
  <outline>
    <contour>
      <point x="83" y="701" type="line"/>
      <point x="83" y="312" type="line"/>
      <point x="129" y="316"/>
      <point x="237" y="318"/>
      <point x="277" y="318" type="curve" smooth="yes"/>
      <point x="358" y="318"/>
      <point x="405" y="283"/>
      <point x="405" y="224" type="curve" smooth="yes"/>
      <point x="405" y="159"/>
      <point x="358" y="121"/>
      <point x="276" y="121" type="curve" smooth="yes"/>
      <point x="211" y="121"/>
      <point x="144" y="150"/>
      <point x="88" y="204" type="curve"/>
      <point x="24" y="79" type="line"/>
      <point x="98" y="28"/>
      <point x="203" y="-6"/>
      <point x="294" y="-6" type="curve" smooth="yes"/>
      <point x="464" y="-6"/>
      <point x="574" y="89"/>
      <point x="574" y="234" type="curve" smooth="yes"/>
      <point x="574" y="359"/>
      <point x="469" y="446"/>
      <point x="307" y="446" type="curve" smooth="yes"/>
      <point x="228" y="446" type="line"/>
      <point x="228" y="569" type="line"/>
      <point x="543" y="569" type="line"/>
      <point x="543" y="701" type="line"/>
    </contour>
  </outline>
</glyph>
<glyph name="six" format="1">
  <advance width="617"/>
  <unicode hex="0036"/>
  <note>
    six
  </note>
  <outline>
    <contour>
      <point x="42" y="338" type="curve" smooth="yes"/>
      <point x="42" y="123"/>
      <point x="153" y="-7"/>
      <point x="335" y="-7" type="curve" smooth="yes"/>
      <point x="488" y="-7"/>
      <point x="589" y="85"/>
      <point x="589" y="232" type="curve" smooth="yes"/>
      <point x="589" y="369"/>
      <point x="502" y="459"/>
      <point x="365" y="459" type="curve" smooth="yes"/>
      <point x="284" y="459"/>
      <point x="225" y="428"/>
      <point x="190" y="375" type="curve"/>
      <point x="187" y="502"/>
      <point x="245" y="584"/>
      <point x="364" y="584" type="curve" smooth="yes"/>
      <point x="417" y="584"/>
      <point x="472" y="568"/>
      <point x="513" y="539" type="curve"/>
      <point x="572" y="652" type="line"/>
      <point x="514" y="686"/>
      <point x="428" y="708"/>
      <point x="354" y="708" type="curve" smooth="yes"/>
      <point x="164" y="708"/>
      <point x="42" y="562"/>
    </contour>
    <contour>
      <point x="445" y="233" type="curve" smooth="yes"/>
      <point x="445" y="162"/>
      <point x="399" y="122"/>
      <point x="328" y="122" type="curve" smooth="yes"/>
      <point x="246" y="122"/>
      <point x="209" y="175"/>
      <point x="210" y="230" type="curve" smooth="yes"/>
      <point x="209" y="292"/>
      <point x="254" y="341"/>
      <point x="332" y="341" type="curve" smooth="yes"/>
      <point x="403" y="341"/>
      <point x="445" y="300"/>
    </contour>
  </outline>
</glyph>
<glyph name="seven" format="1">
  <advance width="617"/>
  <unicode hex="0037"/>
  <note>
    seven
  </note>
  <outline>
    <contour>
      <point x="41" y="701" type="line"/>
      <point x="41" y="471" type="line"/>
      <point x="181" y="471" type="line"/>
      <point x="182" y="569" type="line"/>
      <point x="416" y="569" type="line"/>
      <point x="147" y="0" type="line"/>
      <point x="315" y="0" type="line"/>
      <point x="591" y="588" type="line"/>
      <point x="591" y="701" type="line"/>
    </contour>
  </outline>
</glyph>
<glyph name="eight" format="1">
  <advance width="617"/>
  <unicode hex="0038"/>
  <note>
    eight
  </note>
  <outline>
    <contour>
      <point x="68" y="527" type="curve" smooth="yes"/>
      <point x="68" y="464"/>
      <point x="105" y="408"/>
      <point x="166" y="375" type="curve"/>
      <point x="85" y="344"/>
      <point x="32" y="276"/>
      <point x="32" y="195" type="curve" smooth="yes"/>
      <point x="32" y="71"/>
      <point x="140" y="-7"/>
      <point x="309" y="-7" type="curve" smooth="yes"/>
      <point x="478" y="-7"/>
      <point x="585" y="72"/>
      <point x="585" y="198" type="curve" smooth="yes"/>
      <point x="585" y="278"/>
      <point x="536" y="344"/>
      <point x="459" y="375" type="curve"/>
      <point x="515" y="405"/>
      <point x="549" y="459"/>
      <point x="549" y="521" type="curve" smooth="yes"/>
      <point x="549" y="636"/>
      <point x="456" y="708"/>
      <point x="308" y="708" type="curve" smooth="yes"/>
      <point x="161" y="708"/>
      <point x="68" y="638"/>
    </contour>
    <contour>
      <point x="417" y="513" type="curve" smooth="yes"/>
      <point x="417" y="459"/>
      <point x="378" y="428"/>
      <point x="309" y="428" type="curve" smooth="yes"/>
      <point x="239" y="428"/>
      <point x="200" y="459"/>
      <point x="200" y="513" type="curve" smooth="yes"/>
      <point x="200" y="568"/>
      <point x="239" y="599"/>
      <point x="309" y="599" type="curve" smooth="yes"/>
      <point x="378" y="599"/>
      <point x="417" y="568"/>
    </contour>
    <contour>
      <point x="437" y="211" type="curve" smooth="yes"/>
      <point x="437" y="148"/>
      <point x="390" y="112"/>
      <point x="309" y="112" type="curve" smooth="yes"/>
      <point x="227" y="112"/>
      <point x="181" y="148"/>
      <point x="181" y="212" type="curve" smooth="yes"/>
      <point x="181" y="274"/>
      <point x="227" y="309"/>
      <point x="308" y="309" type="curve" smooth="yes"/>
      <point x="390" y="309"/>
      <point x="437" y="273"/>
    </contour>
  </outline>
</glyph>
<glyph name="nine" format="1">
  <advance width="617"/>
  <unicode hex="0039"/>
  <note>
    nine
  </note>
  <outline>
    <contour>
      <point x="175" y="468" type="curve" smooth="yes"/>
      <point x="175" y="539"/>
      <point x="220" y="580"/>
      <point x="291" y="580" type="curve" smooth="yes"/>
      <point x="373" y="580"/>
      <point x="409" y="526"/>
      <point x="409" y="471" type="curve" smooth="yes"/>
      <point x="409" y="409"/>
      <point x="365" y="360"/>
      <point x="287" y="360" type="curve" smooth="yes"/>
      <point x="217" y="360"/>
      <point x="175" y="401"/>
    </contour>
    <contour>
      <point x="576" y="363" type="curve" smooth="yes"/>
      <point x="576" y="578"/>
      <point x="466" y="708"/>
      <point x="284" y="708" type="curve" smooth="yes"/>
      <point x="132" y="708"/>
      <point x="32" y="616"/>
      <point x="32" y="469" type="curve" smooth="yes"/>
      <point x="32" y="332"/>
      <point x="118" y="242"/>
      <point x="254" y="242" type="curve" smooth="yes"/>
      <point x="335" y="242"/>
      <point x="393" y="273"/>
      <point x="428" y="327" type="curve"/>
      <point x="430" y="199"/>
      <point x="374" y="117"/>
      <point x="255" y="117" type="curve" smooth="yes"/>
      <point x="202" y="117"/>
      <point x="148" y="133"/>
      <point x="107" y="162" type="curve"/>
      <point x="48" y="50" type="line"/>
      <point x="106" y="15"/>
      <point x="191" y="-7"/>
      <point x="264" y="-7" type="curve" smooth="yes"/>
      <point x="455" y="-7"/>
      <point x="576" y="139"/>
    </contour>
  </outline>
</glyph>
<glyph name="less" format="1">
  <advance width="506"/>
  <unicode hex="003C"/>
  <outline>
    <contour>
      <point x="33" y="389" type="line"/>
      <point x="33" y="260" type="line"/>
      <point x="472" y="74" type="line"/>
      <point x="472" y="188" type="line"/>
      <point x="133" y="325" type="line"/>
      <point x="472" y="461" type="line"/>
      <point x="472" y="575" type="line"/>
    </contour>
  </outline>
</glyph>
<glyph name="equal" format="1">
  <advance width="506"/>
  <unicode hex="003D"/>
  <outline>
    <contour>
      <point x="33" y="484" type="line"/>
      <point x="33" y="382" type="line"/>
      <point x="472" y="382" type="line"/>
      <point x="472" y="484" type="line"/>
    </contour>
    <contour>
      <point x="33" y="270" type="line"/>
      <point x="33" y="168" type="line"/>
      <point x="472" y="168" type="line"/>
      <point x="472" y="270" type="line"/>
    </contour>
  </outline>
</glyph>
<glyph name="greater" format="1">
  <advance width="506"/>
  <unicode hex="003E"/>
  <outline>
    <contour>
      <point x="472" y="267" type="line"/>
      <point x="472" y="396" type="line"/>
      <point x="33" y="582" type="line"/>
      <point x="33" y="468" type="line"/>
      <point x="372" y="331" type="line"/>
      <point x="33" y="195" type="line"/>
      <point x="33" y="81" type="line"/>
    </contour>
  </outline>
</glyph>
<glyph name="question" format="1">
  <advance width="462"/>
  <unicode hex="003F"/>
  <outline>
    <contour>
      <point x="123" y="480" type="line"/>
      <point x="125" y="543"/>
      <point x="157" y="574"/>
      <point x="212" y="574" type="curve" smooth="yes"/>
      <point x="262" y="574"/>
      <point x="294" y="551"/>
      <point x="294" y="504" type="curve" smooth="yes"/>
      <point x="294" y="399"/>
      <point x="165" y="393"/>
      <point x="165" y="236" type="curve"/>
      <point x="281" y="236" type="line"/>
      <point x="281" y="360"/>
      <point x="436" y="376"/>
      <point x="436" y="529" type="curve" smooth="yes"/>
      <point x="436" y="640"/>
      <point x="354" y="701"/>
      <point x="225" y="701" type="curve" smooth="yes"/>
      <point x="90" y="701"/>
      <point x="7" y="620"/>
      <point x="4" y="481" type="curve"/>
    </contour>
    <contour>
      <point x="143" y="70" type="curve" smooth="yes"/>
      <point x="143" y="25"/>
      <point x="174" y="-8"/>
      <point x="218" y="-8" type="curve" smooth="yes"/>
      <point x="263" y="-8"/>
      <point x="295" y="25"/>
      <point x="295" y="70" type="curve" smooth="yes"/>
      <point x="295" y="116"/>
      <point x="263" y="149"/>
      <point x="218" y="149" type="curve" smooth="yes"/>
      <point x="174" y="149"/>
      <point x="143" y="116"/>
    </contour>
  </outline>
</glyph>
<glyph name="at" format="1">
  <advance width="935"/>
  <unicode hex="0040"/>
  <outline>
    <contour>
      <point x="27" y="267" type="curve" smooth="yes"/>
      <point x="27" y="28"/>
      <point x="214" y="-150"/>
      <point x="461" y="-150" type="curve" smooth="yes"/>
      <point x="538" y="-150"/>
      <point x="637" y="-122"/>
      <point x="695" y="-78" type="curve"/>
      <point x="651" y="-1" type="line"/>
      <point x="595" y="-42"/>
      <point x="519" y="-61"/>
      <point x="461" y="-61" type="curve" smooth="yes"/>
      <point x="268" y="-61"/>
      <point x="121" y="78"/>
      <point x="121" y="267" type="curve" smooth="yes"/>
      <point x="121" y="459"/>
      <point x="278" y="613"/>
      <point x="474" y="613" type="curve" smooth="yes"/>
      <point x="686" y="613"/>
      <point x="815" y="463"/>
      <point x="815" y="271" type="curve" smooth="yes"/>
      <point x="815" y="173"/>
      <point x="772" y="105"/>
      <point x="728" y="105" type="curve" smooth="yes"/>
      <point x="705" y="105"/>
      <point x="688" y="118"/>
      <point x="688" y="155" type="curve" smooth="yes"/>
      <point x="688" y="495" type="line"/>
      <point x="570" y="495" type="line"/>
      <point x="570" y="439" type="line"/>
      <point x="564" y="452"/>
      <point x="510" y="506"/>
      <point x="428" y="506" type="curve" smooth="yes"/>
      <point x="300" y="506"/>
      <point x="217" y="399"/>
      <point x="217" y="270" type="curve" smooth="yes"/>
      <point x="217" y="131"/>
      <point x="324" y="38"/>
      <point x="440" y="38" type="curve" smooth="yes"/>
      <point x="501" y="38"/>
      <point x="558" y="63"/>
      <point x="598" y="120" type="curve"/>
      <point x="600" y="105" type="line" smooth="yes"/>
      <point x="612" y="51"/>
      <point x="656" y="27"/>
      <point x="717" y="27" type="curve" smooth="yes"/>
      <point x="828" y="27"/>
      <point x="908" y="124"/>
      <point x="908" y="274" type="curve" smooth="yes"/>
      <point x="908" y="520"/>
      <point x="723" y="700"/>
      <point x="474" y="700" type="curve" smooth="yes"/>
      <point x="224" y="700"/>
      <point x="27" y="511"/>
    </contour>
    <contour>
      <point x="563" y="274" type="curve" smooth="yes"/>
      <point x="563" y="203"/>
      <point x="522" y="145"/>
      <point x="453" y="145" type="curve" smooth="yes"/>
      <point x="388" y="145"/>
      <point x="346" y="205"/>
      <point x="346" y="275" type="curve" smooth="yes"/>
      <point x="346" y="342"/>
      <point x="388" y="397"/>
      <point x="452" y="397" type="curve" smooth="yes"/>
      <point x="520" y="397"/>
      <point x="563" y="342"/>
    </contour>
  </outline>
</glyph>
<glyph name="A" format="1">
  <advance width="759"/>
  <unicode hex="0041"/>
  <outline>
    <contour>
      <point x="782" y="10" type="move" name="ogonek"/>
    </contour>
    <contour>
      <point x="380" y="700" type="move" name="abvm"/>
    </contour>
    <contour>
      <point x="378.0" y="535" type="line"/>
      <point x="487.81682" y="263" type="line"/>
      <point x="267.16636" y="263" type="line"/>
    </contour>
    <contour>
      <point x="594" y="0" type="line"/>
      <point x="763.0" y="0" type="line"/>
      <point x="464.0" y="700.0" type="line"/>
      <point x="301" y="700.0" type="line"/>
      <point x="-3.0" y="0" type="line"/>
      <point x="160" y="0" type="line"/>
      <point x="215.41682" y="136" type="line"/>
      <point x="539.09159" y="136" type="line"/>
    </contour>
  </outline>
</glyph>
<glyph name="B" format="1">
  <advance width="712"/>
  <unicode hex="0042"/>
  <outline>
    <contour>
      <point x="77" y="700" type="line"/>
      <point x="77" y="0" type="line"/>
      <point x="410" y="0" type="line" smooth="yes"/>
      <point x="572" y="0"/>
      <point x="674" y="74"/>
      <point x="674" y="194" type="curve" smooth="yes"/>
      <point x="674" y="286"/>
      <point x="618" y="354"/>
      <point x="528" y="371" type="curve"/>
      <point x="603" y="390"/>
      <point x="649" y="449"/>
      <point x="649" y="525" type="curve" smooth="yes"/>
      <point x="649" y="633"/>
      <point x="553" y="700"/>
      <point x="399" y="700" type="curve" smooth="yes"/>
    </contour>
    <contour>
      <point x="487" y="496" type="curve" smooth="yes"/>
      <point x="487" y="447"/>
      <point x="451" y="418"/>
      <point x="391" y="418" type="curve" smooth="yes"/>
      <point x="235" y="418" type="line"/>
      <point x="235" y="571" type="line"/>
      <point x="391" y="571" type="line" smooth="yes"/>
      <point x="451" y="571"/>
      <point x="487" y="544"/>
    </contour>
    <contour>
      <point x="511" y="214" type="curve" smooth="yes"/>
      <point x="511" y="160"/>
      <point x="466" y="129"/>
      <point x="391" y="129" type="curve" smooth="yes"/>
      <point x="235" y="129" type="line"/>
      <point x="235" y="296" type="line"/>
      <point x="391" y="296" type="line" smooth="yes"/>
      <point x="466" y="296"/>
      <point x="511" y="265"/>
    </contour>
  </outline>
</glyph>
<glyph name="C" format="1">
  <advance width="694"/>
  <unicode hex="0043"/>
  <outline>
    <contour>
      <point x="378" y="0" type="move" name="blwm"/>
    </contour>
    <contour>
      <point x="380" y="700" type="move" name="abvm"/>
    </contour>
    <contour>
      <point x="27" y="351" type="curve" smooth="yes"/>
      <point x="27" y="148"/>
      <point x="185" y="-7"/>
      <point x="393" y="-7" type="curve" smooth="yes"/>
      <point x="496" y="-7"/>
      <point x="603" y="42"/>
      <point x="676" y="118" type="curve"/>
      <point x="584" y="219" type="line"/>
      <point x="533" y="169"/>
      <point x="465" y="137"/>
      <point x="402" y="137" type="curve" smooth="yes"/>
      <point x="281" y="137"/>
      <point x="189" y="231"/>
      <point x="189" y="353" type="curve" smooth="yes"/>
      <point x="189" y="475"/>
      <point x="281" y="568"/>
      <point x="402" y="568" type="curve" smooth="yes"/>
      <point x="467" y="568"/>
      <point x="536" y="532"/>
      <point x="584" y="477" type="curve"/>
      <point x="676" y="589" type="line"/>
      <point x="606" y="660"/>
      <point x="501" y="705"/>
      <point x="399" y="705" type="curve" smooth="yes"/>
      <point x="188" y="705"/>
      <point x="27" y="553"/>
    </contour>
  </outline>
</glyph>
<glyph name="D" format="1">
  <advance width="769"/>
  <unicode hex="0044"/>
  <outline>
    <contour>
      <point x="381" y="350" type="move" name="center"/>
    </contour>
    <contour>
      <point x="361" y="700" type="move" name="abvm"/>
    </contour>
    <contour>
      <point x="77" y="700" type="line"/>
      <point x="77" y="0" type="line"/>
      <point x="368" y="0" type="line" smooth="yes"/>
      <point x="589" y="0"/>
      <point x="742" y="144"/>
      <point x="742" y="350" type="curve" smooth="yes"/>
      <point x="742" y="557"/>
      <point x="590" y="700"/>
      <point x="373" y="700" type="curve" smooth="yes"/>
    </contour>
    <contour>
      <point x="581" y="349" type="curve" smooth="yes"/>
      <point x="581" y="221"/>
      <point x="495" y="133"/>
      <point x="377" y="133" type="curve" smooth="yes"/>
      <point x="235" y="133" type="line"/>
      <point x="235" y="567" type="line"/>
      <point x="370" y="567" type="line" smooth="yes"/>
      <point x="491" y="567"/>
      <point x="581" y="478"/>
    </contour>
  </outline>
</glyph>
<glyph name="E" format="1">
  <advance width="668"/>
  <unicode hex="0045"/>
  <outline>
    <contour>
      <point x="338" y="0" type="move" name="blwm"/>
    </contour>
    <contour>
      <point x="615" y="10" type="move" name="ogonek"/>
    </contour>
    <contour>
      <point x="346" y="700" type="move" name="abvm"/>
    </contour>
    <contour>
      <point x="77" y="700" type="line"/>
      <point x="77" y="0" type="line"/>
      <point x="620" y="0" type="line"/>
      <point x="620" y="131" type="line"/>
      <point x="235" y="131" type="line"/>
      <point x="235" y="286" type="line"/>
      <point x="572" y="286" type="line"/>
      <point x="572" y="417" type="line"/>
      <point x="235" y="417" type="line"/>
      <point x="235" y="569" type="line"/>
      <point x="609" y="569" type="line"/>
      <point x="609" y="700" type="line"/>
    </contour>
  </outline>
</glyph>
<glyph name="F" format="1">
  <advance width="595"/>
  <unicode hex="0046"/>
  <outline>
    <contour>
      <point x="77" y="700" type="line"/>
      <point x="77" y="0" type="line"/>
      <point x="235" y="0" type="line"/>
      <point x="235" y="265" type="line"/>
      <point x="551" y="265" type="line"/>
      <point x="551" y="397" type="line"/>
      <point x="235" y="397" type="line"/>
      <point x="235" y="569" type="line"/>
      <point x="579" y="569" type="line"/>
      <point x="580" y="700" type="line"/>
    </contour>
  </outline>
</glyph>
<glyph name="G" format="1">
  <advance width="745"/>
  <unicode hex="0047"/>
  <outline>
    <contour>
      <point x="390" y="0" type="move" name="blwm"/>
    </contour>
    <contour>
      <point x="390" y="700" type="move" name="abvm"/>
    </contour>
    <contour>
      <point x="684" y="84" type="curve"/>
      <point x="684" y="353.0" type="line"/>
      <point x="547" y="353.0" type="line"/>
      <point x="547" y="169.65871" type="line"/>
      <point x="501.973411196" y="145.609431867"/>
      <point x="451.928530079" y="131.0"/>
      <point x="410.0" y="131.0" type="curve" smooth="yes"/>
      <point x="285" y="131"/>
      <point x="189" y="226"/>
      <point x="189" y="350" type="curve" smooth="yes"/>
      <point x="189" y="473"/>
      <point x="284" y="568"/>
      <point x="409" y="568" type="curve" smooth="yes"/>
      <point x="476" y="568"/>
      <point x="549" y="538"/>
      <point x="600" y="490" type="curve"/>
      <point x="690" y="603" type="line"/>
      <point x="619" y="665"/>
      <point x="512" y="705"/>
      <point x="409" y="705" type="curve" smooth="yes"/>
      <point x="191" y="705"/>
      <point x="27" y="552"/>
      <point x="27" y="350" type="curve" smooth="yes"/>
      <point x="27" y="147"/>
      <point x="188" y="-7"/>
      <point x="399" y="-7" type="curve" smooth="yes"/>
      <point x="497" y="-7"/>
      <point x="610" y="30"/>
    </contour>
  </outline>
</glyph>
<glyph name="H" format="1">
  <advance width="787"/>
  <unicode hex="0048"/>
  <outline>
    <contour>
      <point x="394" y="351" type="move" name="center"/>
    </contour>
    <contour>
      <point x="401" y="700" type="move" name="abvm"/>
    </contour>
    <contour>
      <point x="552" y="700" type="line"/>
      <point x="552" y="408" type="line"/>
      <point x="235" y="408" type="line"/>
      <point x="235" y="700" type="line"/>
      <point x="77" y="700" type="line"/>
      <point x="77" y="0" type="line"/>
      <point x="235" y="0" type="line"/>
      <point x="235" y="276" type="line"/>
      <point x="552" y="276" type="line"/>
      <point x="552.005" y="0" type="line"/>
      <point x="710" y="0" type="line"/>
      <point x="710" y="700" type="line"/>
    </contour>
  </outline>
</glyph>
<glyph name="I" format="1">
  <advance width="313"/>
  <unicode hex="0049"/>
  <outline>
    <contour>
      <point x="267" y="10" type="move" name="ogonek"/>
    </contour>
    <contour>
      <point x="156" y="700" type="move" name="abvm"/>
    </contour>
    <contour>
      <point x="77" y="700" type="line"/>
      <point x="77" y="0" type="line"/>
      <point x="235" y="0" type="line"/>
      <point x="235" y="700" type="line"/>
    </contour>
  </outline>
</glyph>
<glyph name="J" format="1">
  <advance width="524"/>
  <unicode hex="004A"/>
  <outline>
    <contour>
      <point x="257" y="700" type="move" name="abvm"/>
    </contour>
    <contour>
      <point x="60" y="700" type="line"/>
      <point x="60" y="566" type="line"/>
      <point x="300" y="566" type="line"/>
      <point x="300" y="228" type="line" smooth="yes"/>
      <point x="300" y="168"/>
      <point x="269" y="136"/>
      <point x="217" y="136" type="curve" smooth="yes"/>
      <point x="174" y="136"/>
      <point x="118" y="162"/>
      <point x="69" y="214" type="curve"/>
      <point x="-4" y="102" type="line"/>
      <point x="54" y="33"/>
      <point x="131" y="-7"/>
      <point x="225" y="-7" type="curve" smooth="yes"/>
      <point x="370" y="-7"/>
      <point x="460" y="77"/>
      <point x="460" y="224" type="curve" smooth="yes"/>
      <point x="460" y="700" type="line"/>
    </contour>
  </outline>
</glyph>
<glyph name="K" format="1">
  <advance width="737"/>
  <unicode hex="004B"/>
  <outline>
    <contour>
      <point x="360" y="0" type="move" name="blwm"/>
    </contour>
    <contour>
      <point x="360" y="700" type="move" name="abvm"/>
    </contour>
    <contour>
      <point x="235.0" y="173" type="line"/>
      <point x="335.97444" y="285.26484" type="line"/>
      <point x="537" y="0" type="line"/>
      <point x="727.0" y="0" type="line"/>
      <point x="446.03719" y="407.63418" type="line"/>
      <point x="709.0" y="700.0" type="line"/>
      <point x="525" y="700.0" type="line"/>
      <point x="235.0" y="382.0" type="line"/>
      <point x="235.0" y="700.0" type="line"/>
      <point x="77" y="700.0" type="line"/>
      <point x="77" y="0" type="line"/>
      <point x="235.0" y="0" type="line"/>
    </contour>
  </outline>
</glyph>
<glyph name="L" format="1">
  <advance width="552"/>
  <unicode hex="004C"/>
  <outline>
    <contour>
      <point x="291" y="0" type="move" name="blwm"/>
    </contour>
    <contour>
      <point x="155" y="700" type="move" name="abvm"/>
    </contour>
    <contour>
      <point x="77" y="700" type="line"/>
      <point x="77" y="0" type="line"/>
      <point x="534" y="0" type="line"/>
      <point x="534" y="138" type="line"/>
      <point x="235" y="138" type="line"/>
      <point x="235" y="700" type="line"/>
    </contour>
  </outline>
</glyph>
<glyph name="M" format="1">
  <advance width="915"/>
  <unicode hex="004D"/>
  <outline>
    <contour>
      <point x="660" y="700" type="line"/>
      <point x="458" y="272" type="line"/>
      <point x="254" y="700" type="line"/>
      <point x="77" y="700" type="line"/>
      <point x="77" y="0" type="line"/>
      <point x="220" y="0" type="line"/>
      <point x="220" y="472" type="line"/>
      <point x="405" y="71" type="line"/>
      <point x="509" y="71" type="line"/>
      <point x="694" y="472" type="line"/>
      <point x="695" y="0" type="line"/>
      <point x="837" y="0" type="line"/>
      <point x="837" y="700" type="line"/>
    </contour>
  </outline>
</glyph>
<glyph name="N" format="1">
  <advance width="788"/>
  <unicode hex="004E"/>
  <outline>
    <contour>
      <point x="394" y="0" type="move" name="blwm"/>
    </contour>
    <contour>
      <point x="394" y="700" type="move" name="abvm"/>
    </contour>
    <contour>
      <point x="561" y="700" type="line"/>
      <point x="561" y="250" type="line"/>
      <point x="221" y="700" type="line"/>
      <point x="77" y="700" type="line"/>
      <point x="77" y="0" type="line"/>
      <point x="227" y="0" type="line"/>
      <point x="227" y="449" type="line"/>
      <point x="567" y="0" type="line"/>
      <point x="710" y="0" type="line"/>
      <point x="710" y="700" type="line"/>
    </contour>
  </outline>
</glyph>
<glyph name="O" format="1">
  <advance width="806"/>
  <unicode hex="004F"/>
  <outline>
    <contour>
      <point x="396" y="700" type="move" name="abvm"/>
    </contour>
    <contour>
      <point x="27" y="350" type="curve" smooth="yes"/>
      <point x="27" y="147"/>
      <point x="189" y="-7"/>
      <point x="403" y="-7" type="curve" smooth="yes"/>
      <point x="617" y="-7"/>
      <point x="779" y="148"/>
      <point x="779" y="350" type="curve" smooth="yes"/>
      <point x="779" y="553"/>
      <point x="617" y="705"/>
      <point x="403" y="705" type="curve" smooth="yes"/>
      <point x="189" y="705"/>
      <point x="27" y="554"/>
    </contour>
    <contour>
      <point x="617" y="350" type="curve" smooth="yes"/>
      <point x="617" y="227"/>
      <point x="522" y="131"/>
      <point x="405" y="131" type="curve" smooth="yes"/>
      <point x="288" y="131"/>
      <point x="189" y="227"/>
      <point x="189" y="350" type="curve" smooth="yes"/>
      <point x="189" y="473"/>
      <point x="287" y="567"/>
      <point x="405" y="567" type="curve" smooth="yes"/>
      <point x="522" y="567"/>
      <point x="617" y="473"/>
    </contour>
  </outline>
</glyph>
<glyph name="P" format="1">
  <advance width="678"/>
  <unicode hex="0050"/>
  <outline>
    <contour>
      <point x="77" y="700" type="line"/>
      <point x="77" y="0" type="line"/>
      <point x="235" y="0" type="line"/>
      <point x="235" y="200" type="line"/>
      <point x="374" y="200" type="line" smooth="yes"/>
      <point x="552" y="200"/>
      <point x="654" y="294"/>
      <point x="654" y="457" type="curve" smooth="yes"/>
      <point x="654" y="612"/>
      <point x="552" y="700"/>
      <point x="374" y="700" type="curve" smooth="yes"/>
    </contour>
    <contour>
      <point x="504" y="452" type="curve" smooth="yes"/>
      <point x="504" y="372"/>
      <point x="454" y="332"/>
      <point x="366" y="332" type="curve" smooth="yes"/>
      <point x="235" y="332" type="line"/>
      <point x="235" y="569" type="line"/>
      <point x="366" y="569" type="line" smooth="yes"/>
      <point x="454" y="569"/>
      <point x="504" y="530"/>
    </contour>
  </outline>
</glyph>
<glyph name="Q" format="1">
  <advance width="815"/>
  <unicode hex="0051"/>
  <outline>
    <contour>
      <point x="618.0" y="-162.0" type="curve" smooth="yes"/>
      <point x="686" y="-162"/>
      <point x="762" y="-133"/>
      <point x="816" y="-85" type="curve"/>
      <point x="759.0" y="18" type="line"/>
      <point x="715" y="-16"/>
      <point x="669" y="-37"/>
      <point x="636" y="-37" type="curve" smooth="yes"/>
      <point x="601.819960762" y="-37.0"/>
      <point x="569.535446266" y="-16.7810694248"/>
      <point x="540.65318" y="16.13709" type="curve"/>
      <point x="682.762397355" y="66.5368128192"/>
      <point x="779.0" y="194.308013433"/>
      <point x="779.0" y="350.0" type="curve" smooth="yes"/>
      <point x="779" y="553"/>
      <point x="617" y="705"/>
      <point x="403" y="705" type="curve" smooth="yes"/>
      <point x="189" y="705"/>
      <point x="27" y="554"/>
      <point x="27" y="350" type="curve" smooth="yes"/>
      <point x="27.0" y="150.191564012"/>
      <point x="183.946118492" y="-2.14551514898"/>
      <point x="392.94547" y="-6.87764" type="curve"/>
      <point x="442.248933235" y="-103.388672281"/>
      <point x="522.918155832" y="-162.0"/>
    </contour>
    <contour>
      <point x="617" y="350" type="curve" smooth="yes"/>
      <point x="617" y="227"/>
      <point x="522" y="131"/>
      <point x="405" y="131" type="curve" smooth="yes"/>
      <point x="288" y="131"/>
      <point x="189" y="227"/>
      <point x="189" y="350" type="curve" smooth="yes"/>
      <point x="189" y="473"/>
      <point x="287" y="567"/>
      <point x="405" y="567" type="curve" smooth="yes"/>
      <point x="522" y="567"/>
      <point x="617" y="473"/>
    </contour>
  </outline>
</glyph>
<glyph name="R" format="1">
  <advance width="724"/>
  <unicode hex="0052"/>
  <outline>
    <contour>
      <point x="360" y="0" type="move" name="blwm"/>
    </contour>
    <contour>
      <point x="361" y="700" type="move" name="abvm"/>
    </contour>
    <contour>
      <point x="518" y="452" type="curve" smooth="yes"/>
      <point x="518" y="372"/>
      <point x="468" y="332"/>
      <point x="381" y="332" type="curve" smooth="yes"/>
      <point x="235" y="332" type="line"/>
      <point x="235" y="569" type="line"/>
      <point x="381" y="569" type="line" smooth="yes"/>
      <point x="468" y="569"/>
      <point x="518" y="530"/>
    </contour>
    <contour>
      <point x="235.0" y="200.0" type="line"/>
      <point x="380.0" y="200.0" type="line" smooth="yes"/>
      <point x="385.459206982" y="200.0"/>
      <point x="390.84899925" y="200.083653631"/>
      <point x="396.16866" y="200.26076" type="curve"/>
      <point x="507.0" y="0" type="line"/>
      <point x="686" y="0" type="line"/>
      <point x="537.05272" y="230.91235" type="line"/>
      <point x="621.717063445" y="270.976555251"/>
      <point x="668.0" y="348.781027043"/>
      <point x="668.0" y="457.0" type="curve" smooth="yes"/>
      <point x="668" y="612"/>
      <point x="563" y="700"/>
      <point x="380" y="700" type="curve" smooth="yes"/>
      <point x="77" y="700.0" type="line"/>
      <point x="77" y="0" type="line"/>
      <point x="235.0" y="0" type="line"/>
    </contour>
  </outline>
</glyph>
<glyph name="S" format="1">
  <advance width="637"/>
  <unicode hex="0053"/>
  <outline>
    <contour>
      <point x="326" y="0" type="move" name="blwm"/>
    </contour>
    <contour>
      <point x="333" y="700" type="move" name="abvm"/>
    </contour>
    <contour>
      <point x="63" y="500" type="curve" smooth="yes"/>
      <point x="63" y="252"/>
      <point x="435" y="329"/>
      <point x="435" y="197" type="curve" smooth="yes"/>
      <point x="435" y="154"/>
      <point x="396" y="130"/>
      <point x="331" y="130" type="curve" smooth="yes"/>
      <point x="257" y="130"/>
      <point x="155" y="171"/>
      <point x="83" y="235" type="curve"/>
      <point x="20" y="106" type="line"/>
      <point x="99" y="39"/>
      <point x="215" y="-5"/>
      <point x="329" y="-5" type="curve" smooth="yes"/>
      <point x="484" y="-5"/>
      <point x="604" y="69"/>
      <point x="604" y="206" type="curve" smooth="yes"/>
      <point x="604" y="458"/>
      <point x="232" y="386"/>
      <point x="232" y="515" type="curve" smooth="yes"/>
      <point x="232" y="553"/>
      <point x="267" y="572"/>
      <point x="321" y="572" type="curve" smooth="yes"/>
      <point x="377" y="572"/>
      <point x="464" y="544"/>
      <point x="538" y="500" type="curve"/>
      <point x="600" y="631" type="line"/>
      <point x="530" y="677"/>
      <point x="432" y="707"/>
      <point x="334" y="707" type="curve" smooth="yes"/>
      <point x="171" y="707"/>
      <point x="63" y="627"/>
    </contour>
  </outline>
</glyph>
<glyph name="T" format="1">
  <advance width="601"/>
  <unicode hex="0054"/>
  <outline>
    <contour>
      <point x="288" y="0" type="move" name="blwm"/>
    </contour>
    <contour>
      <point x="291" y="350" type="move" name="center"/>
    </contour>
    <contour>
      <point x="311" y="700" type="move" name="abvm"/>
    </contour>
    <contour>
      <point x="8" y="700" type="line"/>
      <point x="8" y="566" type="line"/>
      <point x="221" y="566" type="line"/>
      <point x="221" y="0" type="line"/>
      <point x="379" y="0" type="line"/>
      <point x="379" y="566" type="line"/>
      <point x="594" y="566" type="line"/>
      <point x="594" y="700" type="line"/>
    </contour>
  </outline>
</glyph>
<glyph name="U" format="1">
  <advance width="760"/>
  <unicode hex="0055"/>
  <outline>
    <contour>
      <point x="557" y="10" type="move" name="ogonek"/>
    </contour>
    <contour>
      <point x="380" y="700" type="move" name="abvm"/>
    </contour>
    <contour>
      <point x="537" y="700" type="line"/>
      <point x="537" y="293" type="line" smooth="yes"/>
      <point x="537" y="192"/>
      <point x="476" y="131"/>
      <point x="382" y="131" type="curve" smooth="yes"/>
      <point x="287" y="131"/>
      <point x="222" y="192"/>
      <point x="222" y="293" type="curve" smooth="yes"/>
      <point x="222" y="700" type="line"/>
      <point x="64" y="700" type="line"/>
      <point x="64" y="293" type="line" smooth="yes"/>
      <point x="64" y="108"/>
      <point x="187" y="-7"/>
      <point x="381" y="-7" type="curve" smooth="yes"/>
      <point x="575" y="-7"/>
      <point x="696" y="108"/>
      <point x="696" y="293" type="curve" smooth="yes"/>
      <point x="696" y="700" type="line"/>
    </contour>
  </outline>
</glyph>
<glyph name="V" format="1">
  <advance width="716"/>
  <unicode hex="0056"/>
  <outline>
    <contour>
      <point x="553" y="700" type="line"/>
      <point x="361" y="172" type="line"/>
      <point x="170" y="700" type="line"/>
      <point x="0" y="700" type="line"/>
      <point x="275" y="0" type="line"/>
      <point x="438" y="0" type="line"/>
      <point x="715" y="700" type="line"/>
    </contour>
  </outline>
</glyph>
<glyph name="W" format="1">
  <advance width="1066"/>
  <unicode hex="0057"/>
  <outline>
    <contour>
      <point x="537" y="700" type="move" name="abvm"/>
    </contour>
    <contour>
      <point x="911" y="700" type="line"/>
      <point x="766" y="172" type="line"/>
      <point x="618" y="700" type="line"/>
      <point x="463" y="700" type="line"/>
      <point x="317" y="172" type="line"/>
      <point x="170" y="700" type="line"/>
      <point x="0" y="700" type="line"/>
      <point x="230" y="0" type="line"/>
      <point x="393" y="0" type="line"/>
      <point x="537" y="499" type="line"/>
      <point x="679" y="0" type="line"/>
      <point x="842" y="0" type="line"/>
      <point x="1074" y="700" type="line"/>
    </contour>
  </outline>
</glyph>
<glyph name="X" format="1">
  <advance width="721"/>
  <unicode hex="0058"/>
  <outline>
    <contour>
      <point x="502" y="700" type="line"/>
      <point x="355" y="486" type="line"/>
      <point x="209" y="700" type="line"/>
      <point x="24" y="700" type="line"/>
      <point x="259" y="358" type="line"/>
      <point x="8" y="0" type="line"/>
      <point x="193" y="0" type="line"/>
      <point x="355" y="233" type="line"/>
      <point x="519" y="0" type="line"/>
      <point x="709" y="0" type="line"/>
      <point x="456" y="365" type="line"/>
      <point x="688" y="700" type="line"/>
    </contour>
  </outline>
</glyph>
<glyph name="Y" format="1">
  <advance width="666"/>
  <unicode hex="0059"/>
  <outline>
    <contour>
      <point x="333" y="700" type="move" name="abvm"/>
    </contour>
    <contour>
      <point x="414.0" y="0" type="line"/>
      <point x="414.0" y="226.09231" type="line"/>
      <point x="669" y="700.0" type="line"/>
      <point x="510.0" y="700.0" type="line"/>
      <point x="335" y="386.0" type="line"/>
      <point x="156" y="700.0" type="line"/>
      <point x="-3.0" y="700.0" type="line"/>
      <point x="256" y="221.60245" type="line"/>
      <point x="256" y="0" type="line"/>
    </contour>
  </outline>
</glyph>
<glyph name="Z" format="1">
  <advance width="672"/>
  <unicode hex="005A"/>
  <outline>
    <contour>
      <point x="349" y="700" type="move" name="abvm"/>
    </contour>
    <contour>
      <point x="44" y="700" type="line"/>
      <point x="43" y="568" type="line"/>
      <point x="423" y="568" type="line"/>
      <point x="31" y="107" type="line"/>
      <point x="31" y="0" type="line"/>
      <point x="640" y="0" type="line"/>
      <point x="640" y="132" type="line"/>
      <point x="243" y="132" type="line"/>
      <point x="635" y="594" type="line"/>
      <point x="635" y="700" type="line"/>
    </contour>
  </outline>
</glyph>
<glyph name="backslash" format="1">
  <advance width="346"/>
  <unicode hex="005C"/>
  <outline>
    <contour>
      <point x="-74" y="813" type="line"/>
      <point x="247" y="-112" type="line"/>
      <point x="376" y="-112" type="line"/>
      <point x="55" y="813" type="line"/>
    </contour>
  </outline>
</glyph>
<glyph name="bracketright" format="1">
  <advance width="419"/>
  <unicode hex="005D"/>
  <outline>
    <contour>
      <point x="84" y="742" type="line"/>
      <point x="84" y="623" type="line"/>
      <point x="205" y="623" type="line"/>
      <point x="205" y="-5" type="line"/>
      <point x="84" y="-5" type="line"/>
      <point x="84" y="-124" type="line"/>
      <point x="342" y="-124" type="line"/>
      <point x="342" y="742" type="line"/>
    </contour>
  </outline>
</glyph>
<glyph name="asciicircum" format="1">
  <advance width="568"/>
  <unicode hex="005E"/>
  <outline>
    <contour>
      <point x="348" y="525" type="line"/>
      <point x="219" y="525" type="line"/>
      <point x="33" y="135" type="line"/>
      <point x="147" y="135" type="line"/>
      <point x="284" y="436" type="line"/>
      <point x="420" y="135" type="line"/>
      <point x="534" y="135" type="line"/>
    </contour>
  </outline>
</glyph>
<glyph name="underscore" format="1">
  <advance width="578"/>
  <unicode hex="005F"/>
  <outline>
    <contour>
      <point x="0" y="-116" type="line"/>
      <point x="0" y="-204" type="line"/>
      <point x="578" y="-204" type="line"/>
      <point x="578" y="-116" type="line"/>
    </contour>
  </outline>
</glyph>
<glyph name="grave" format="1">
  <advance width="350"/>
  <unicode hex="0060"/>
  <outline>
    <contour>
      <point x="216" y="537" type="move" name="_abvm"/>
    </contour>
    <contour>
      <point x="46" y="712" type="line"/>
      <point x="173" y="602" type="line"/>
      <point x="296" y="602" type="line"/>
      <point x="189" y="765" type="line"/>
    </contour>
  </outline>
</glyph>
<glyph name="a" format="1">
  <advance width="596"/>
  <unicode hex="0061"/>
  <outline>
    <contour>
      <point x="563" y="10" type="move" name="ogonek"/>
    </contour>
    <contour>
      <point x="296" y="538" type="move" name="abvm"/>
    </contour>
    <contour>
      <point x="261" y="103" type="curve" smooth="yes"/>
      <point x="208" y="103"/>
      <point x="176" y="130"/>
      <point x="176" y="171" type="curve" smooth="yes"/>
      <point x="176" y="214"/>
      <point x="205" y="232"/>
      <point x="264" y="232" type="curve" smooth="yes"/>
      <point x="385.3033" y="232.0" type="line"/>
      <point x="385.44683" y="184.20415" type="line"/>
      <point x="378" y="139"/>
      <point x="326" y="103"/>
    </contour>
    <contour>
      <point x="386.0" y="0" type="line"/>
      <point x="537" y="0" type="line"/>
      <point x="536" y="351.0" type="line" smooth="yes"/>
      <point x="536" y="472"/>
      <point x="453" y="544"/>
      <point x="308" y="544" type="curve" smooth="yes"/>
      <point x="214" y="544"/>
      <point x="146" y="522"/>
      <point x="65" y="482" type="curve"/>
      <point x="113.0" y="376.0" type="line"/>
      <point x="169" y="407"/>
      <point x="226" y="423"/>
      <point x="273" y="423" type="curve" smooth="yes"/>
      <point x="347" y="423"/>
      <point x="385" y="390"/>
      <point x="385" y="333" type="curve"/>
      <point x="385.03003" y="323" type="line"/>
      <point x="237.0" y="323" type="line" smooth="yes"/>
      <point x="105" y="322"/>
      <point x="32" y="262"/>
      <point x="32" y="161" type="curve" smooth="yes"/>
      <point x="32" y="63"/>
      <point x="102" y="-7"/>
      <point x="218" y="-7" type="curve" smooth="yes"/>
      <point x="292.617181701" y="-7.0"/>
      <point x="350.221173867" y="17.5746071067"/>
      <point x="385.8101" y="63.23679" type="curve"/>
    </contour>
  </outline>
</glyph>
<glyph name="b" format="1">
  <advance width="683"/>
  <unicode hex="0062"/>
  <outline>
    <contour>
      <point x="406.0" y="-6.0" type="curve" smooth="yes"/>
      <point x="557" y="-6"/>
      <point x="655" y="103"/>
      <point x="655" y="266" type="curve" smooth="yes"/>
      <point x="655" y="432"/>
      <point x="554" y="543"/>
      <point x="402" y="543" type="curve" smooth="yes"/>
      <point x="329.009322485" y="543.0"/>
      <point x="271.06285975" y="513.195423548"/>
      <point x="233.0" y="459.48099" type="curve"/>
      <point x="233.0" y="742.0" type="line"/>
      <point x="79" y="742.0" type="line"/>
      <point x="79" y="0" type="line"/>
      <point x="233.0" y="0" type="line"/>
      <point x="233.0" y="78.12083" type="line"/>
      <point x="271.662484445" y="24.1960298196"/>
      <point x="330.922758222" y="-6.0"/>
    </contour>
    <contour>
      <point x="500" y="271" type="curve" smooth="yes"/>
      <point x="500" y="183"/>
      <point x="446" y="122"/>
      <point x="366" y="122" type="curve" smooth="yes"/>
      <point x="288" y="122"/>
      <point x="233" y="182"/>
      <point x="233" y="271" type="curve" smooth="yes"/>
      <point x="233" y="358"/>
      <point x="288" y="419"/>
      <point x="366" y="419" type="curve" smooth="yes"/>
      <point x="446" y="419"/>
      <point x="500" y="357"/>
    </contour>
  </outline>
</glyph>
<glyph name="c" format="1">
  <advance width="563"/>
  <unicode hex="0063"/>
  <outline>
    <contour>
      <point x="290" y="0" type="move" name="blwm"/>
    </contour>
    <contour>
      <point x="291" y="537" type="move" name="abvm"/>
    </contour>
    <contour>
      <point x="28" y="267" type="curve" smooth="yes"/>
      <point x="28" y="104"/>
      <point x="139" y="-6"/>
      <point x="302" y="-6" type="curve" smooth="yes"/>
      <point x="412" y="-6"/>
      <point x="496" y="38"/>
      <point x="541" y="113" type="curve"/>
      <point x="435" y="185" type="line"/>
      <point x="408" y="143"/>
      <point x="365" y="122"/>
      <point x="310" y="122" type="curve" smooth="yes"/>
      <point x="235" y="122"/>
      <point x="182" y="181"/>
      <point x="182" y="268" type="curve" smooth="yes"/>
      <point x="182" y="354"/>
      <point x="235" y="412"/>
      <point x="310" y="412" type="curve" smooth="yes"/>
      <point x="363" y="413"/>
      <point x="404" y="391"/>
      <point x="434" y="355" type="curve"/>
      <point x="537" y="430" type="line"/>
      <point x="489" y="502"/>
      <point x="407" y="543"/>
      <point x="304" y="543" type="curve" smooth="yes"/>
      <point x="140" y="543"/>
      <point x="28" y="432"/>
    </contour>
  </outline>
</glyph>
<glyph name="d" format="1">
  <advance width="685"/>
  <unicode hex="0064"/>
  <outline>
    <contour>
      <point x="-14" y="0" type="move" name="center"/>
    </contour>
    <contour>
      <point x="451" y="267" type="curve" smooth="yes"/>
      <point x="451" y="179"/>
      <point x="397" y="118"/>
      <point x="317" y="118" type="curve" smooth="yes"/>
      <point x="237" y="118"/>
      <point x="183" y="179"/>
      <point x="182" y="267" type="curve" smooth="yes"/>
      <point x="183" y="354"/>
      <point x="237" y="416"/>
      <point x="317" y="416" type="curve" smooth="yes"/>
      <point x="397" y="416"/>
      <point x="451" y="355"/>
    </contour>
    <contour>
      <point x="452.0" y="0" type="line"/>
      <point x="606" y="0" type="line"/>
      <point x="606" y="742.0" type="line"/>
      <point x="452.0" y="742.0" type="line"/>
      <point x="452.0" y="459.01978" type="line"/>
      <point x="413.346106462" y="513.542587514"/>
      <point x="353.940065191" y="544.0"/>
      <point x="278.0" y="544.0" type="curve" smooth="yes"/>
      <point x="129" y="544"/>
      <point x="28" y="435"/>
      <point x="28" y="271" type="curve" smooth="yes"/>
      <point x="28" y="105"/>
      <point x="129" y="-6"/>
      <point x="282" y="-6" type="curve" smooth="yes"/>
      <point x="356.154579296" y="-6.0"/>
      <point x="414.086530729" y="24.168395675"/>
      <point x="452.0" y="78.14058" type="curve"/>
    </contour>
  </outline>
</glyph>
<glyph name="e" format="1">
  <advance width="597"/>
  <unicode hex="0065"/>
  <outline>
    <contour>
      <point x="303" y="0" type="move" name="blwm"/>
    </contour>
    <contour>
      <point x="537.005" y="10" type="move" name="ogonek"/>
    </contour>
    <contour>
      <point x="300" y="537" type="move" name="abvm"/>
    </contour>
    <contour>
      <point x="306.0" y="430.0" type="curve" smooth="yes"/>
      <point x="377" y="430"/>
      <point x="423" y="384"/>
      <point x="425" y="313" type="curve"/>
      <point x="179.9732" y="313" type="line"/>
      <point x="191.807600863" y="383.64448175"/>
      <point x="238.234673215" y="430.0"/>
    </contour>
    <contour>
      <point x="539" y="89" type="curve"/>
      <point x="458.0" y="171" type="line"/>
      <point x="421" y="134"/>
      <point x="373" y="114"/>
      <point x="322" y="114" type="curve" smooth="yes"/>
      <point x="252.668994255" y="114.0"/>
      <point x="200.885755635" y="153.644955356"/>
      <point x="183.41658" y="222.0" type="curve"/>
      <point x="569" y="222.0" type="line"/>
      <point x="582" y="418"/>
      <point x="494" y="543"/>
      <point x="305" y="543" type="curve" smooth="yes"/>
      <point x="141" y="543"/>
      <point x="28" y="433"/>
      <point x="28" y="267" type="curve" smooth="yes"/>
      <point x="28" y="104"/>
      <point x="137" y="-6"/>
      <point x="309" y="-6" type="curve" smooth="yes"/>
      <point x="406" y="-6"/>
      <point x="485" y="29"/>
    </contour>
  </outline>
</glyph>
<glyph name="f" format="1">
  <advance width="372"/>
  <unicode hex="0066"/>
  <outline>
    <contour>
      <point x="383.0" y="407.0" type="line"/>
      <point x="383.0" y="514" type="line"/>
      <point x="256" y="514" type="line"/>
      <point x="256" y="559" type="line"/>
      <point x="256" y="602"/>
      <point x="284" y="622"/>
      <point x="321" y="622" type="curve"/>
      <point x="342" y="622"/>
      <point x="367" y="614"/>
      <point x="387" y="599" type="curve"/>
      <point x="442.0" y="711.0" type="line"/>
      <point x="404" y="736"/>
      <point x="351" y="749"/>
      <point x="302" y="749" type="curve"/>
      <point x="193" y="749"/>
      <point x="103" y="685"/>
      <point x="103" y="565" type="curve" smooth="yes"/>
      <point x="103.0" y="514" type="line"/>
      <point x="31.0" y="514" type="line"/>
      <point x="31.0" y="407.0" type="line"/>
      <point x="103.0" y="407.0" type="line"/>
      <point x="103.0" y="0" type="line"/>
      <point x="256" y="0" type="line"/>
      <point x="256" y="407.0" type="line"/>
    </contour>
  </outline>
</glyph>
<glyph name="g" format="1">
  <advance width="645"/>
  <unicode hex="0067"/>
  <outline>
    <contour>
      <point x="322" y="538" type="move" name="abvm"/>
    </contour>
    <contour>
      <point x="425" y="284" type="curve" smooth="yes"/>
      <point x="425" y="202"/>
      <point x="374" y="145"/>
      <point x="299" y="145" type="curve" smooth="yes"/>
      <point x="223" y="145"/>
      <point x="173" y="202"/>
      <point x="172" y="284" type="curve" smooth="yes"/>
      <point x="173" y="366"/>
      <point x="224" y="424"/>
      <point x="299" y="424" type="curve" smooth="yes"/>
      <point x="374" y="424"/>
      <point x="425" y="367"/>
    </contour>
    <contour>
      <point x="291" y="-200" type="curve" smooth="yes"/>
      <point x="463" y="-200"/>
      <point x="578" y="-103"/>
      <point x="578" y="50" type="curve" smooth="yes"/>
      <point x="578" y="538" type="line"/>
      <point x="425.0" y="538" type="line"/>
      <point x="425.0" y="464.75025" type="line"/>
      <point x="388.396982812" y="515.351949022"/>
      <point x="331.883654191" y="543.535909222"/>
      <point x="259.0" y="543.0" type="curve" smooth="yes"/>
      <point x="122" y="543"/>
      <point x="28" y="440"/>
      <point x="28" y="288" type="curve" smooth="yes"/>
      <point x="28" y="132"/>
      <point x="124" y="28"/>
      <point x="263" y="28" type="curve" smooth="yes"/>
      <point x="334.086237943" y="28.0"/>
      <point x="389.131295566" y="55.8609973972"/>
      <point x="425.0" y="105.92886" type="curve"/>
      <point x="425.0" y="45.0" type="line" smooth="yes"/>
      <point x="425" y="-28"/>
      <point x="369" y="-75"/>
      <point x="281" y="-75" type="curve" smooth="yes"/>
      <point x="220" y="-75"/>
      <point x="163" y="-56"/>
      <point x="114" y="-21" type="curve"/>
      <point x="57.0" y="-129" type="line"/>
      <point x="119" y="-171"/>
      <point x="200" y="-200"/>
    </contour>
  </outline>
</glyph>
<glyph name="h" format="1">
  <advance width="675"/>
  <unicode hex="0068"/>
  <outline>
    <contour>
      <point x="641" y="0" type="move" name="blwm"/>
    </contour>
    <contour>
      <point x="336" y="269" type="move" name="center"/>
    </contour>
    <contour>
      <point x="153" y="742" type="move" name="abvm"/>
    </contour>
    <contour>
      <point x="280" y="539" type="move" name="topright"/>
    </contour>
    <contour>
      <point x="233.0" y="265" type="line"/>
      <point x="233" y="344"/>
      <point x="280" y="402"/>
      <point x="357" y="403" type="curve" smooth="yes"/>
      <point x="423" y="403"/>
      <point x="463" y="361"/>
      <point x="463" y="293" type="curve" smooth="yes"/>
      <point x="463.0" y="0" type="line"/>
      <point x="617" y="0" type="line"/>
      <point x="617" y="338" type="line" smooth="yes"/>
      <point x="617" y="464"/>
      <point x="540" y="544"/>
      <point x="419" y="544" type="curve" smooth="yes"/>
      <point x="335.393088582" y="543.394152816"/>
      <point x="270.872819315" y="510.120783489"/>
      <point x="233.0" y="442.15074" type="curve"/>
      <point x="233.0" y="742.0" type="line"/>
      <point x="79" y="742.0" type="line"/>
      <point x="79" y="0" type="line"/>
      <point x="233.0" y="0" type="line"/>
    </contour>
  </outline>
</glyph>
<glyph name="i" format="1">
  <advance width="302"/>
  <unicode hex="0069"/>
  <outline>
    <contour>
      <point x="151" y="538" type="move" name="_abvm"/>
    </contour>
    <contour>
      <point x="264" y="10" type="move" name="ogonek"/>
    </contour>
    <contour>
      <point x="151" y="538" type="move" name="abvm"/>
    </contour>
    <contour>
      <point x="68" y="692" type="curve" smooth="yes"/>
      <point x="68" y="642"/>
      <point x="103" y="606"/>
      <point x="151" y="606" type="curve" smooth="yes"/>
      <point x="200" y="606"/>
      <point x="235" y="642"/>
      <point x="235" y="692" type="curve" smooth="yes"/>
      <point x="235" y="742"/>
      <point x="200" y="778"/>
      <point x="151" y="778" type="curve" smooth="yes"/>
      <point x="103" y="778"/>
      <point x="68" y="742"/>
    </contour>
    <contour>
      <point x="74" y="538" type="line"/>
      <point x="74" y="0" type="line"/>
      <point x="227" y="0" type="line"/>
      <point x="227" y="538" type="line"/>
    </contour>
  </outline>
</glyph>
<glyph name="j" format="1">
  <advance width="308"/>
  <unicode hex="006A"/>
  <outline>
    <contour>
      <point x="63" y="691" type="curve" smooth="yes"/>
      <point x="63" y="641"/>
      <point x="100" y="605"/>
      <point x="152" y="605" type="curve" smooth="yes"/>
      <point x="205" y="605"/>
      <point x="241" y="641"/>
      <point x="241" y="691" type="curve" smooth="yes"/>
      <point x="241" y="742"/>
      <point x="205" y="777"/>
      <point x="152" y="777" type="curve" smooth="yes"/>
      <point x="100" y="777"/>
      <point x="63" y="742"/>
    </contour>
    <contour>
      <point x="75" y="538" type="line"/>
      <point x="75" y="-10" type="line"/>
      <point x="75" y="-54"/>
      <point x="51" y="-73"/>
      <point x="19" y="-73" type="curve"/>
      <point x="-2" y="-73"/>
      <point x="-24" y="-65"/>
      <point x="-45" y="-52" type="curve"/>
      <point x="-87" y="-165" type="line"/>
      <point x="-52" y="-188"/>
      <point x="-7" y="-201"/>
      <point x="40" y="-201" type="curve"/>
      <point x="142" y="-201"/>
      <point x="228" y="-138"/>
      <point x="228" y="-16" type="curve"/>
      <point x="228" y="538" type="line"/>
    </contour>
  </outline>
</glyph>
<glyph name="k" format="1">
  <advance width="619"/>
  <unicode hex="006B"/>
  <outline>
    <contour>
      <point x="130" y="0" type="move" name="blwm"/>
    </contour>
    <contour>
      <point x="157" y="742" type="move" name="abvm"/>
    </contour>
    <contour>
      <point x="283" y="538" type="move" name="topright"/>
    </contour>
    <contour>
      <point x="432.0" y="0" type="line"/>
      <point x="614" y="0" type="line"/>
      <point x="408.04488" y="329.71715" type="line"/>
      <point x="606" y="537" type="line"/>
      <point x="430.0" y="537" type="line"/>
      <point x="233.0" y="334.26214" type="line"/>
      <point x="233.0" y="742.0" type="line"/>
      <point x="79" y="742.0" type="line"/>
      <point x="79" y="0" type="line"/>
      <point x="233.0" y="0" type="line"/>
      <point x="233.0" y="146.42408" type="line"/>
      <point x="302.21628" y="218.90187" type="line"/>
    </contour>
  </outline>
</glyph>
<glyph name="l" format="1">
  <advance width="313"/>
  <unicode hex="006C"/>
  <outline>
    <contour>
      <point x="157" y="0" type="move" name="blwm"/>
    </contour>
    <contour>
      <point x="157" y="742" type="move" name="abvm"/>
    </contour>
    <contour>
      <point x="283" y="538" type="move" name="topright"/>
    </contour>
    <contour>
      <point x="79" y="742" type="line"/>
      <point x="79" y="0" type="line"/>
      <point x="233" y="0" type="line"/>
      <point x="233" y="742" type="line"/>
    </contour>
  </outline>
</glyph>
<glyph name="m" format="1">
  <advance width="1039"/>
  <unicode hex="006D"/>
  <outline>
    <contour>
      <point x="227.0" y="266" type="line"/>
      <point x="227" y="344"/>
      <point x="273" y="402"/>
      <point x="348" y="403" type="curve" smooth="yes"/>
      <point x="411" y="403"/>
      <point x="450" y="362"/>
      <point x="450" y="293" type="curve" smooth="yes"/>
      <point x="450.0" y="0" type="line"/>
      <point x="604" y="0" type="line"/>
      <point x="604" y="266" type="line"/>
      <point x="604" y="344"/>
      <point x="649" y="402"/>
      <point x="723" y="403" type="curve" smooth="yes"/>
      <point x="786" y="403"/>
      <point x="826" y="362"/>
      <point x="826" y="293" type="curve" smooth="yes"/>
      <point x="826.0" y="0" type="line"/>
      <point x="980.0" y="0" type="line"/>
      <point x="980.0" y="338" type="line" smooth="yes"/>
      <point x="980" y="464"/>
      <point x="905" y="544"/>
      <point x="786" y="544" type="curve" smooth="yes"/>
      <point x="694.928795889" y="543.330358793"/>
      <point x="626.726978408" y="502.751395818"/>
      <point x="591.60407" y="419.84636" type="curve"/>
      <point x="565.692055215" y="497.630883112"/>
      <point x="500.597534752" y="544.0"/>
      <point x="410.0" y="544.0" type="curve" smooth="yes"/>
      <point x="327.94609619" y="543.396662472"/>
      <point x="264.457017188" y="510.395885573"/>
      <point x="227.0" y="443.22551" type="curve"/>
      <point x="227.0" y="538" type="line"/>
      <point x="74" y="538" type="line"/>
      <point x="74" y="0" type="line"/>
      <point x="227.0" y="0" type="line"/>
    </contour>
  </outline>
</glyph>
<glyph name="o" format="1">
  <advance width="633"/>
  <unicode hex="006F"/>
  <outline>
    <contour>
      <point x="317" y="537" type="move" name="abvm"/>
    </contour>
    <contour>
      <point x="28" y="269" type="curve" smooth="yes"/>
      <point x="28" y="105"/>
      <point x="144" y="-6"/>
      <point x="317" y="-6" type="curve" smooth="yes"/>
      <point x="489" y="-6"/>
      <point x="606" y="105"/>
      <point x="606" y="269" type="curve" smooth="yes"/>
      <point x="606" y="434"/>
      <point x="489" y="543"/>
      <point x="317" y="543" type="curve" smooth="yes"/>
      <point x="144" y="543"/>
      <point x="28" y="434"/>
    </contour>
    <contour>
      <point x="451" y="267" type="curve" smooth="yes"/>
      <point x="451" y="179"/>
      <point x="396" y="119"/>
      <point x="317" y="119" type="curve" smooth="yes"/>
      <point x="238" y="119"/>
      <point x="183" y="179"/>
      <point x="183" y="267" type="curve" smooth="yes"/>
      <point x="183" y="355"/>
      <point x="238" y="415"/>
      <point x="317" y="415" type="curve" smooth="yes"/>
      <point x="396" y="415"/>
      <point x="451" y="355"/>
    </contour>
  </outline>
</glyph>
<glyph name="r" format="1">
  <advance width="416"/>
  <unicode hex="0072"/>
  <outline>
    <contour>
      <point x="147" y="0" type="move" name="blwm"/>
    </contour>
    <contour>
      <point x="218" y="538" type="move" name="abvm"/>
    </contour>
    <contour>
      <point x="406.0" y="399.0" type="curve"/>
      <point x="406.0" y="544" type="line"/>
      <point x="326.47398119" y="543.406522248"/>
      <point x="264.910970347" y="507.239244404"/>
      <point x="228.0" y="441.11511" type="curve"/>
      <point x="228.0" y="538" type="line"/>
      <point x="74" y="538" type="line"/>
      <point x="74" y="0" type="line"/>
      <point x="228.0" y="0" type="line"/>
      <point x="228.0" y="277.39212" type="line"/>
      <point x="236.837246093" y="357.904068825"/>
      <point x="303.68189751" y="408.301645681"/>
    </contour>
  </outline>
</glyph>
<glyph name="s" format="1">
  <advance width="499"/>
  <unicode hex="0073"/>
  <outline>
    <contour>
      <point x="248" y="0" type="move" name="blwm"/>
    </contour>
    <contour>
      <point x="258" y="538" type="move" name="abvm"/>
    </contour>
    <contour>
      <point x="45" y="377" type="curve" smooth="yes"/>
      <point x="44" y="188"/>
      <point x="323" y="234"/>
      <point x="323" y="148" type="curve" smooth="yes"/>
      <point x="323" y="119"/>
      <point x="294" y="106"/>
      <point x="255" y="106" type="curve" smooth="yes"/>
      <point x="196" y="106"/>
      <point x="124" y="130"/>
      <point x="69" y="173" type="curve"/>
      <point x="18" y="69" type="line"/>
      <point x="79" y="20"/>
      <point x="165" y="-6"/>
      <point x="251" y="-6" type="curve" smooth="yes"/>
      <point x="373" y="-6"/>
      <point x="470" y="52"/>
      <point x="470" y="162" type="curve" smooth="yes"/>
      <point x="471" y="352"/>
      <point x="187" y="311"/>
      <point x="187" y="392" type="curve" smooth="yes"/>
      <point x="187" y="420"/>
      <point x="213" y="432"/>
      <point x="249" y="432" type="curve" smooth="yes"/>
      <point x="294" y="432"/>
      <point x="354" y="413"/>
      <point x="413" y="380" type="curve"/>
      <point x="466" y="485" type="line"/>
      <point x="406" y="523"/>
      <point x="331" y="545"/>
      <point x="257" y="545" type="curve" smooth="yes"/>
      <point x="139" y="545"/>
      <point x="45" y="488"/>
    </contour>
  </outline>
</glyph>
<glyph name="t" format="1">
  <advance width="426"/>
  <unicode hex="0074"/>
  <outline>
    <contour>
      <point x="254" y="0" type="move" name="blwm"/>
    </contour>
    <contour>
      <point x="213" y="269" type="move" name="center"/>
    </contour>
    <contour>
      <point x="407" y="30" type="curve"/>
      <point x="375.0" y="143" type="line"/>
      <point x="347" y="130"/>
      <point x="323" y="123"/>
      <point x="303" y="123" type="curve"/>
      <point x="270" y="122"/>
      <point x="251" y="140"/>
      <point x="251" y="185" type="curve"/>
      <point x="251.0" y="407.392" type="line"/>
      <point x="398.0" y="407.0" type="line"/>
      <point x="398.0" y="514" type="line"/>
      <point x="251.0" y="514" type="line"/>
      <point x="251.0" y="662" type="line"/>
      <point x="98.0" y="662" type="line"/>
      <point x="98.0" y="514" type="line"/>
      <point x="23.0" y="514" type="line"/>
      <point x="23.0" y="408.0" type="line"/>
      <point x="98.0" y="407.8" type="line"/>
      <point x="98.0" y="159" type="line"/>
      <point x="98" y="48"/>
      <point x="171" y="-7"/>
      <point x="267" y="-7" type="curve"/>
      <point x="317" y="-7"/>
      <point x="367" y="7"/>
    </contour>
  </outline>
</glyph>
<glyph name="u" format="1">
  <advance width="660"/>
  <unicode hex="0075"/>
  <outline>
    <contour>
      <point x="605" y="10" type="move" name="ogonek"/>
    </contour>
    <contour>
      <point x="325" y="538" type="move" name="abvm"/>
    </contour>
    <contour>
      <point x="432.0" y="0" type="line"/>
      <point x="586" y="0" type="line"/>
      <point x="586" y="538" type="line"/>
      <point x="432.0" y="538" type="line"/>
      <point x="432.0" y="272" type="line"/>
      <point x="431.0" y="272" type="line"/>
      <point x="431" y="194"/>
      <point x="387" y="136"/>
      <point x="313" y="135" type="curve" smooth="yes"/>
      <point x="251" y="135"/>
      <point x="212" y="176"/>
      <point x="212" y="244" type="curve" smooth="yes"/>
      <point x="212.0" y="538" type="line"/>
      <point x="58.0" y="538" type="line"/>
      <point x="58.0" y="200.0" type="line" smooth="yes"/>
      <point x="58" y="73"/>
      <point x="133" y="-6"/>
      <point x="252" y="-6" type="curve" smooth="yes"/>
      <point x="332.980163987" y="-6.0"/>
      <point x="395.334401546" y="27.2344961738"/>
      <point x="432.0" y="94.83469" type="curve"/>
    </contour>
  </outline>
</glyph>
<glyph name="v" format="1">
  <advance width="556"/>
  <unicode hex="0076"/>
  <outline>
    <contour>
      <point x="409" y="538" type="line"/>
      <point x="283" y="146" type="line"/>
      <point x="156" y="538" type="line"/>
      <point x="-3" y="537" type="line"/>
      <point x="201" y="0" type="line"/>
      <point x="359" y="0" type="line"/>
      <point x="562" y="538" type="line"/>
    </contour>
  </outline>
</glyph>
<glyph name="w" format="1">
  <advance width="923"/>
  <unicode hex="0077"/>
  <outline>
    <contour>
      <point x="462" y="538" type="move" name="abvm"/>
    </contour>
    <contour>
      <point x="777" y="538" type="line"/>
      <point x="659" y="153" type="line"/>
      <point x="541" y="538" type="line"/>
      <point x="390" y="538" type="line"/>
      <point x="274" y="153" type="line"/>
      <point x="154" y="538" type="line"/>
      <point x="-3" y="537" type="line"/>
      <point x="193" y="0" type="line"/>
      <point x="348" y="0" type="line"/>
      <point x="463" y="355" type="line"/>
      <point x="579" y="0" type="line"/>
      <point x="733" y="0" type="line"/>
      <point x="929" y="538" type="line"/>
    </contour>
  </outline>
</glyph>
<glyph name="x" format="1">
  <advance width="589"/>
  <unicode hex="0078"/>
  <outline>
    <contour>
      <point x="19" y="538" type="line"/>
      <point x="193" y="275" type="line"/>
      <point x="7" y="0" type="line"/>
      <point x="177" y="0" type="line"/>
      <point x="295" y="176" type="line"/>
      <point x="403" y="0" type="line"/>
      <point x="580" y="0" type="line"/>
      <point x="397" y="276" type="line"/>
      <point x="568" y="538" type="line"/>
      <point x="399" y="538" type="line"/>
      <point x="295" y="375" type="line"/>
      <point x="196" y="538" type="line"/>
    </contour>
  </outline>
</glyph>
<glyph name="y" format="1">
  <advance width="564"/>
  <unicode hex="0079"/>
  <outline>
    <contour>
      <point x="283" y="538" type="move" name="abvm"/>
    </contour>
    <contour>
      <point x="418" y="538" type="line"/>
      <point x="290" y="168" type="line"/>
      <point x="149" y="538" type="line"/>
      <point x="-9" y="538" type="line"/>
      <point x="213" y="11" type="line"/>
      <point x="199" y="-19" type="line" smooth="yes"/>
      <point x="183" y="-51"/>
      <point x="159" y="-67"/>
      <point x="127" y="-67" type="curve" smooth="yes"/>
      <point x="102" y="-67"/>
      <point x="82" y="-58"/>
      <point x="57" y="-38" type="curve"/>
      <point x="-8" y="-149" type="line"/>
      <point x="37" y="-185"/>
      <point x="82" y="-201"/>
      <point x="138" y="-201" type="curve" smooth="yes"/>
      <point x="231" y="-201"/>
      <point x="297" y="-155"/>
      <point x="335" y="-60" type="curve" smooth="yes"/>
      <point x="571" y="538" type="line"/>
    </contour>
  </outline>
</glyph>
<glyph name="z" format="1">
  <advance width="548"/>
  <unicode hex="007A"/>
  <outline>
    <contour>
      <point x="274" y="537" type="move" name="abvm"/>
    </contour>
    <contour>
      <point x="48" y="537" type="line"/>
      <point x="48" y="417" type="line"/>
      <point x="316" y="416" type="line"/>
      <point x="38" y="97" type="line"/>
      <point x="38" y="0" type="line"/>
      <point x="516" y="-1" type="line"/>
      <point x="516" y="121" type="line"/>
      <point x="230" y="121" type="line"/>
      <point x="507" y="440" type="line"/>
      <point x="507" y="537" type="line"/>
    </contour>
  </outline>
</glyph>
<glyph name="braceleft" format="1">
  <advance width="348"/>
  <unicode hex="007B"/>
  <outline>
    <contour>
      <point x="331" y="-126.0" type="line"/>
      <point x="331" y="-7.0" type="line"/>
      <point x="262" y="-7"/>
      <point x="241" y="11"/>
      <point x="241" y="59" type="curve" smooth="yes"/>
      <point x="241.0" y="191.0" type="line" smooth="yes"/>
      <point x="241.0" y="260.551249107"/>
      <point x="220.136836508" y="294.131526676"/>
      <point x="161.93507" y="308.19601" type="curve"/>
      <point x="220.136836508" y="322.868473324"/>
      <point x="241.0" y="356.448750893"/>
      <point x="241.0" y="426.0" type="curve" smooth="yes"/>
      <point x="241.0" y="558" type="line" smooth="yes"/>
      <point x="241" y="606"/>
      <point x="262" y="624"/>
      <point x="331" y="624" type="curve"/>
      <point x="331" y="744.0" type="line"/>
      <point x="272" y="744.0" type="line" smooth="yes"/>
      <point x="148" y="744"/>
      <point x="104" y="707"/>
      <point x="104" y="606" type="curve" smooth="yes"/>
      <point x="104.0" y="416.0" type="line" smooth="yes"/>
      <point x="104" y="383"/>
      <point x="92" y="369"/>
      <point x="64" y="369" type="curve" smooth="yes"/>
      <point x="28.0" y="369.0" type="line"/>
      <point x="28.0" y="247.0" type="line"/>
      <point x="64" y="247.0" type="line" smooth="yes"/>
      <point x="92" y="247"/>
      <point x="104" y="235"/>
      <point x="104" y="201" type="curve" smooth="yes"/>
      <point x="104.0" y="11.0" type="line" smooth="yes"/>
      <point x="104" y="-90"/>
      <point x="148" y="-126"/>
      <point x="272" y="-126" type="curve" smooth="yes"/>
    </contour>
  </outline>
</glyph>
<glyph name="bar" format="1">
  <advance width="289"/>
  <unicode hex="007C"/>
  <outline>
    <contour>
      <point x="87" y="805" type="line"/>
      <point x="87" y="-111" type="line"/>
      <point x="202" y="-111" type="line"/>
      <point x="202" y="805" type="line"/>
    </contour>
  </outline>
</glyph>
<glyph name="braceright" format="1">
  <advance width="361"/>
  <unicode hex="007D"/>
  <outline>
    <contour>
      <point x="53.0" y="-126.0" type="line"/>
      <point x="112.0" y="-126.0" type="line" smooth="yes"/>
      <point x="236" y="-126"/>
      <point x="280" y="-90"/>
      <point x="280" y="11" type="curve" smooth="yes"/>
      <point x="280" y="201.0" type="line" smooth="yes"/>
      <point x="280" y="235"/>
      <point x="292" y="247"/>
      <point x="320" y="247" type="curve" smooth="yes"/>
      <point x="356.0" y="247.0" type="line"/>
      <point x="356.0" y="369.0" type="line"/>
      <point x="320" y="369.0" type="line"/>
      <point x="292" y="369"/>
      <point x="280" y="383"/>
      <point x="280" y="416" type="curve" smooth="yes"/>
      <point x="280" y="606" type="line" smooth="yes"/>
      <point x="280" y="707"/>
      <point x="236" y="744"/>
      <point x="112" y="744" type="curve" smooth="yes"/>
      <point x="53.0" y="744.0" type="line"/>
      <point x="53.0" y="624" type="line"/>
      <point x="122" y="624"/>
      <point x="143" y="606"/>
      <point x="143" y="558" type="curve" smooth="yes"/>
      <point x="143" y="426.0" type="line" smooth="yes"/>
      <point x="143.0" y="356.448750893"/>
      <point x="163.863163492" y="322.868473324"/>
      <point x="222.06493" y="308.19601" type="curve"/>
      <point x="163.863163492" y="294.131526676"/>
      <point x="143.0" y="260.551249107"/>
      <point x="143.0" y="191.0" type="curve" smooth="yes"/>
      <point x="143" y="59.0" type="line" smooth="yes"/>
      <point x="143" y="11"/>
      <point x="122" y="-7"/>
      <point x="53" y="-7" type="curve"/>
    </contour>
  </outline>
</glyph>
<glyph name="asciitilde" format="1">
  <advance width="506"/>
  <unicode hex="007E"/>
  <outline>
    <contour>
      <point x="60" y="245" type="curve"/>
      <point x="164" y="245" type="line"/>
      <point x="164" y="276"/>
      <point x="176" y="292"/>
      <point x="198" y="292" type="curve"/>
      <point x="234" y="292"/>
      <point x="272" y="240"/>
      <point x="340" y="240" type="curve"/>
      <point x="412" y="240"/>
      <point x="447" y="293"/>
      <point x="447" y="403" type="curve"/>
      <point x="344" y="403" type="line"/>
      <point x="344" y="371"/>
      <point x="332" y="355"/>
      <point x="310" y="355" type="curve"/>
      <point x="274" y="355"/>
      <point x="233" y="408"/>
      <point x="168" y="408" type="curve"/>
      <point x="96" y="408"/>
      <point x="60" y="355"/>
    </contour>
  </outline>
</glyph>
<glyph name="exclamdown" format="1">
  <advance width="258"/>
  <unicode hex="00A1"/>
  <outline>
    <contour>
      <point x="202" y="467" type="curve" smooth="yes"/>
      <point x="202" y="512"/>
      <point x="171" y="545"/>
      <point x="127" y="545" type="curve" smooth="yes"/>
      <point x="82" y="545"/>
      <point x="50" y="512"/>
      <point x="50" y="467" type="curve" smooth="yes"/>
      <point x="50" y="421"/>
      <point x="82" y="388"/>
      <point x="127" y="388" type="curve" smooth="yes"/>
      <point x="171" y="388"/>
      <point x="202" y="421"/>
    </contour>
    <contour>
      <point x="196" y="-158" type="line"/>
      <point x="196" y="19" type="line"/>
      <point x="170" y="301" type="line"/>
      <point x="76" y="301" type="line"/>
      <point x="50" y="19" type="line"/>
      <point x="50" y="-158" type="line"/>
    </contour>
  </outline>
</glyph>
<glyph name="currency" format="1">
  <advance width="705"/>
  <unicode hex="00A4"/>
  <note>
    currency
  </note>
  <outline>
    <contour>
      <point x="578" y="455" type="curve"/>
      <point x="677" y="553" type="line"/>
      <point x="590" y="643" type="line"/>
      <point x="490" y="543" type="line"/>
      <point x="450" y="567"/>
      <point x="403" y="581"/>
      <point x="352" y="581" type="curve" smooth="yes"/>
      <point x="302" y="581"/>
      <point x="255" y="567"/>
      <point x="215" y="542" type="curve"/>
      <point x="114" y="643" type="line"/>
      <point x="28" y="553" type="line"/>
      <point x="126" y="454" type="line"/>
      <point x="103" y="415"/>
      <point x="89" y="370"/>
      <point x="89" y="321" type="curve" smooth="yes"/>
      <point x="89" y="270"/>
      <point x="104" y="223"/>
      <point x="129" y="183" type="curve"/>
      <point x="28" y="82" type="line"/>
      <point x="114" y="-8" type="line"/>
      <point x="219" y="97" type="line"/>
      <point x="258" y="75"/>
      <point x="304" y="62"/>
      <point x="352" y="62" type="curve" smooth="yes"/>
      <point x="400" y="62"/>
      <point x="446" y="75"/>
      <point x="485" y="97" type="curve"/>
      <point x="590" y="-8" type="line"/>
      <point x="677" y="82" type="line"/>
      <point x="575" y="183" type="line"/>
      <point x="601" y="223"/>
      <point x="616" y="270"/>
      <point x="616" y="321" type="curve" smooth="yes"/>
      <point x="616" y="370"/>
      <point x="602" y="416"/>
    </contour>
    <contour>
      <point x="210" y="321" type="curve" smooth="yes"/>
      <point x="210" y="395"/>
      <point x="273" y="456"/>
      <point x="352" y="456" type="curve" smooth="yes"/>
      <point x="431" y="456"/>
      <point x="496" y="395"/>
      <point x="496" y="321" type="curve" smooth="yes"/>
      <point x="496" y="247"/>
      <point x="431" y="187"/>
      <point x="352" y="187" type="curve" smooth="yes"/>
      <point x="273" y="187"/>
      <point x="210" y="247"/>
    </contour>
  </outline>
</glyph>
<glyph name="yen" format="1">
  <advance width="653"/>
  <unicode hex="00A5"/>
  <note>
    yen
  </note>
  <outline>
    <contour>
      <point x="669" y="700" type="line"/>
      <point x="510" y="700" type="line"/>
      <point x="335" y="386" type="line"/>
      <point x="156" y="700" type="line"/>
      <point x="-3" y="700" type="line"/>
      <point x="195" y="335" type="line"/>
      <point x="71" y="335" type="line"/>
      <point x="71" y="274" type="line"/>
      <point x="228" y="274" type="line"/>
      <point x="256" y="221" type="line"/>
      <point x="256" y="204" type="line"/>
      <point x="71" y="204" type="line"/>
      <point x="71" y="142" type="line"/>
      <point x="256" y="142" type="line"/>
      <point x="256" y="0" type="line"/>
      <point x="415" y="0" type="line"/>
      <point x="415" y="142" type="line"/>
      <point x="596" y="142" type="line"/>
      <point x="596" y="204" type="line"/>
      <point x="415" y="204" type="line"/>
      <point x="415" y="226" type="line"/>
      <point x="440" y="274" type="line"/>
      <point x="596" y="274" type="line"/>
      <point x="596" y="335" type="line"/>
      <point x="473" y="335" type="line"/>
    </contour>
  </outline>
</glyph>
<glyph name="brokenbar" format="1">
  <advance width="289"/>
  <unicode hex="00A6"/>
  <outline>
    <contour>
      <point x="87" y="805" type="line"/>
      <point x="87" y="461" type="line"/>
      <point x="202" y="461" type="line"/>
      <point x="202" y="805" type="line"/>
    </contour>
    <contour>
      <point x="87" y="232" type="line"/>
      <point x="87" y="-111" type="line"/>
      <point x="202" y="-111" type="line"/>
      <point x="202" y="232" type="line"/>
    </contour>
  </outline>
</glyph>
<glyph name="section" format="1">
  <advance width="532"/>
  <unicode hex="00A7"/>
  <outline>
    <contour>
      <point x="363" y="298" type="curve" smooth="yes"/>
      <point x="363" y="270"/>
      <point x="336" y="250"/>
      <point x="282" y="250" type="curve" smooth="yes"/>
      <point x="220" y="250"/>
      <point x="172" y="275"/>
      <point x="172" y="312" type="curve" smooth="yes"/>
      <point x="172" y="340"/>
      <point x="201" y="359"/>
      <point x="254" y="359" type="curve" smooth="yes"/>
      <point x="315" y="359"/>
      <point x="363" y="334"/>
    </contour>
    <contour>
      <point x="65" y="538" type="curve" smooth="yes"/>
      <point x="65" y="493"/>
      <point x="83" y="463"/>
      <point x="146" y="433" type="curve"/>
      <point x="77" y="410"/>
      <point x="35" y="364"/>
      <point x="35" y="302" type="curve" smooth="yes"/>
      <point x="35" y="122"/>
      <point x="333" y="154"/>
      <point x="333" y="66" type="curve" smooth="yes"/>
      <point x="333" y="40"/>
      <point x="301" y="20"/>
      <point x="251" y="20" type="curve" smooth="yes"/>
      <point x="193" y="20"/>
      <point x="126" y="43"/>
      <point x="62" y="88" type="curve"/>
      <point x="18" y="-10" type="line"/>
      <point x="84" y="-60"/>
      <point x="170" y="-87"/>
      <point x="255" y="-87" type="curve" smooth="yes"/>
      <point x="388" y="-87"/>
      <point x="474" y="-21"/>
      <point x="474" y="70" type="curve" smooth="yes"/>
      <point x="474" y="123"/>
      <point x="450" y="149"/>
      <point x="401" y="175" type="curve"/>
      <point x="460" y="197"/>
      <point x="503" y="248"/>
      <point x="503" y="307" type="curve" smooth="yes"/>
      <point x="503" y="489"/>
      <point x="202" y="454"/>
      <point x="202" y="545" type="curve" smooth="yes"/>
      <point x="202" y="571"/>
      <point x="230" y="589"/>
      <point x="276" y="589" type="curve" smooth="yes"/>
      <point x="319" y="589"/>
      <point x="375" y="571"/>
      <point x="440" y="537" type="curve"/>
      <point x="487" y="635" type="line"/>
      <point x="418" y="675"/>
      <point x="346" y="694"/>
      <point x="275" y="694" type="curve" smooth="yes"/>
      <point x="146" y="694"/>
      <point x="65" y="629"/>
    </contour>
  </outline>
</glyph>
<glyph name="dieresis" format="1">
  <advance width="375"/>
  <unicode hex="00A8"/>
  <outline>
    <contour>
      <point x="175" y="537" type="move" name="_abvm"/>
    </contour>
    <contour>
      <point x="9.04" y="694.17" type="curve" smooth="yes"/>
      <point x="9.04" y="650.67"/>
      <point x="39.49" y="619.35"/>
      <point x="81.25" y="619.35" type="curve" smooth="yes"/>
      <point x="123.88" y="619.35"/>
      <point x="154.33" y="650.67"/>
      <point x="154.33" y="694.17" type="curve" smooth="yes"/>
      <point x="154.33" y="737.67"/>
      <point x="123.88" y="768.99"/>
      <point x="81.25" y="768.99" type="curve" smooth="yes"/>
      <point x="39.49" y="768.99"/>
      <point x="9.04" y="737.67"/>
    </contour>
    <contour>
      <point x="197.04" y="694.17" type="curve" smooth="yes"/>
      <point x="197.04" y="650.67"/>
      <point x="227.49" y="619.35"/>
      <point x="269.25" y="619.35" type="curve" smooth="yes"/>
      <point x="311.88" y="619.35"/>
      <point x="342.33" y="650.67"/>
      <point x="342.33" y="694.17" type="curve" smooth="yes"/>
      <point x="342.33" y="737.67"/>
      <point x="311.88" y="768.99"/>
      <point x="269.25" y="768.99" type="curve" smooth="yes"/>
      <point x="227.49" y="768.99"/>
      <point x="197.04" y="737.67"/>
    </contour>
  </outline>
</glyph>
<glyph name="copyright" format="1">
  <advance width="731"/>
  <unicode hex="00A9"/>
  <outline>
    <contour>
      <point x="27" y="348" type="curve" smooth="yes"/>
      <point x="27" y="163"/>
      <point x="174" y="9"/>
      <point x="364" y="9" type="curve" smooth="yes"/>
      <point x="555" y="9"/>
      <point x="704" y="165"/>
      <point x="704" y="350" type="curve" smooth="yes"/>
      <point x="704" y="536"/>
      <point x="556" y="689"/>
      <point x="366" y="689" type="curve" smooth="yes"/>
      <point x="175" y="689"/>
      <point x="27" y="533"/>
    </contour>
    <contour>
      <point x="632" y="350" type="curve" smooth="yes"/>
      <point x="632" y="205"/>
      <point x="515" y="84"/>
      <point x="364" y="84" type="curve" smooth="yes"/>
      <point x="214" y="84"/>
      <point x="99" y="203"/>
      <point x="99" y="348" type="curve" smooth="yes"/>
      <point x="99" y="493"/>
      <point x="215" y="614"/>
      <point x="366" y="614" type="curve" smooth="yes"/>
      <point x="516" y="614"/>
      <point x="632" y="495"/>
    </contour>
    <contour>
      <point x="195" y="349" type="curve" smooth="yes"/>
      <point x="195" y="253"/>
      <point x="270" y="180"/>
      <point x="369" y="180" type="curve" smooth="yes"/>
      <point x="418" y="180"/>
      <point x="469" y="203"/>
      <point x="504" y="239" type="curve"/>
      <point x="460" y="287" type="line"/>
      <point x="435" y="263"/>
      <point x="402" y="248"/>
      <point x="373" y="248" type="curve" smooth="yes"/>
      <point x="316" y="248"/>
      <point x="272" y="293"/>
      <point x="272" y="350" type="curve" smooth="yes"/>
      <point x="272" y="407"/>
      <point x="316" y="451"/>
      <point x="373" y="451" type="curve" smooth="yes"/>
      <point x="404" y="451"/>
      <point x="436" y="434"/>
      <point x="460" y="408" type="curve"/>
      <point x="504" y="461" type="line"/>
      <point x="470" y="495"/>
      <point x="420" y="516"/>
      <point x="372" y="516" type="curve" smooth="yes"/>
      <point x="272" y="516"/>
      <point x="195" y="444"/>
    </contour>
  </outline>
</glyph>
<glyph name="ordfeminine" format="1">
  <advance width="390"/>
  <unicode hex="00AA"/>
  <outline>
    <contour>
      <point x="173" y="522" type="curve"/>
      <point x="143" y="522"/>
      <point x="125" y="537"/>
      <point x="125" y="561" type="curve"/>
      <point x="125" y="584"/>
      <point x="144" y="596"/>
      <point x="176" y="596" type="curve"/>
      <point x="245.0" y="596" type="line"/>
      <point x="245.0" y="561" type="line"/>
      <point x="229" y="534"/>
      <point x="203" y="522"/>
    </contour>
    <contour>
      <point x="245.0" y="458.0" type="line"/>
      <point x="349.0" y="458.0" type="line"/>
      <point x="349.0" y="667" type="line"/>
      <point x="349" y="740"/>
      <point x="295" y="783"/>
      <point x="202" y="783" type="curve"/>
      <point x="153" y="783"/>
      <point x="99" y="770"/>
      <point x="46" y="749" type="curve"/>
      <point x="71" y="678" type="line"/>
      <point x="110" y="694"/>
      <point x="147" y="703"/>
      <point x="178" y="703" type="curve"/>
      <point x="222" y="703"/>
      <point x="244" y="685"/>
      <point x="245" y="654" type="curve"/>
      <point x="245.0" y="647" type="line"/>
      <point x="154" y="647" type="line"/>
      <point x="71" y="647"/>
      <point x="25" y="613"/>
      <point x="25" y="553" type="curve"/>
      <point x="25" y="493"/>
      <point x="67" y="453"/>
      <point x="137" y="453" type="curve"/>
      <point x="185.52865498" y="453.0"/>
      <point x="222.032161685" y="470.0883686"/>
      <point x="245.0" y="501.77449" type="curve"/>
    </contour>
  </outline>
</glyph>
<glyph name="logicalnot" format="1">
  <advance width="572"/>
  <unicode hex="00AC"/>
  <outline>
    <contour>
      <point x="505.0" y="139" type="line"/>
      <point x="505.0" y="421.0" type="line"/>
      <point x="33" y="421.0" type="line"/>
      <point x="33" y="319" type="line"/>
      <point x="394.0" y="319" type="line"/>
      <point x="394.0" y="139" type="line"/>
    </contour>
  </outline>
</glyph>
<glyph name="registered" format="1">
  <advance width="731"/>
  <unicode hex="00AE"/>
  <outline>
    <contour>
      <point x="27" y="348" type="curve" smooth="yes"/>
      <point x="27" y="163"/>
      <point x="174" y="9"/>
      <point x="364" y="9" type="curve" smooth="yes"/>
      <point x="555" y="9"/>
      <point x="704" y="165"/>
      <point x="704" y="350" type="curve" smooth="yes"/>
      <point x="704" y="536"/>
      <point x="556" y="689"/>
      <point x="366" y="689" type="curve" smooth="yes"/>
      <point x="175" y="689"/>
      <point x="27" y="533"/>
    </contour>
    <contour>
      <point x="632" y="350" type="curve" smooth="yes"/>
      <point x="632" y="205"/>
      <point x="515" y="84"/>
      <point x="364" y="84" type="curve" smooth="yes"/>
      <point x="214" y="84"/>
      <point x="99" y="203"/>
      <point x="99" y="348" type="curve" smooth="yes"/>
      <point x="99" y="493"/>
      <point x="215" y="614"/>
      <point x="366" y="614" type="curve" smooth="yes"/>
      <point x="516" y="614"/>
      <point x="632" y="495"/>
    </contour>
    <contour>
      <point x="440" y="407" type="curve" smooth="yes"/>
      <point x="440" y="370"/>
      <point x="416" y="349"/>
      <point x="375" y="349" type="curve" smooth="yes"/>
      <point x="309" y="349" type="line"/>
      <point x="309" y="464" type="line"/>
      <point x="375" y="464" type="line" smooth="yes"/>
      <point x="416" y="464"/>
      <point x="440" y="444"/>
    </contour>
    <contour>
      <point x="309" y="291" type="line"/>
      <point x="375.0" y="291" type="line" smooth="yes"/>
      <point x="377.621928416" y="291.0"/>
      <point x="380.208536209" y="291.040897563"/>
      <point x="382.75954" y="291.1353" type="curve"/>
      <point x="436.0" y="197.0" type="line"/>
      <point x="518" y="197.0" type="line"/>
      <point x="447.25622" y="304.88426" type="line"/>
      <point x="487.413449044" y="323.349586067"/>
      <point x="509.0" y="359.704135954"/>
      <point x="509.0" y="410.0" type="curve" smooth="yes"/>
      <point x="509" y="481"/>
      <point x="461" y="522"/>
      <point x="375" y="522" type="curve" smooth="yes"/>
      <point x="237.0" y="522" type="line"/>
      <point x="237.0" y="197.0" type="line"/>
      <point x="309" y="197.0" type="line"/>
    </contour>
  </outline>
</glyph>
<glyph name="degree" format="1">
  <advance width="365"/>
  <unicode hex="00B0"/>
  <outline>
    <contour>
      <point x="83" y="698" type="curve" smooth="yes"/>
      <point x="83" y="634"/>
      <point x="136" y="581"/>
      <point x="201" y="581" type="curve" smooth="yes"/>
      <point x="266" y="581"/>
      <point x="319" y="634"/>
      <point x="319" y="698" type="curve" smooth="yes"/>
      <point x="319" y="762"/>
      <point x="266" y="815"/>
      <point x="201" y="815" type="curve" smooth="yes"/>
      <point x="136" y="815"/>
      <point x="83" y="762"/>
    </contour>
    <contour>
      <point x="258" y="698" type="curve" smooth="yes"/>
      <point x="258" y="668"/>
      <point x="232" y="644"/>
      <point x="201" y="644" type="curve" smooth="yes"/>
      <point x="170" y="644"/>
      <point x="144" y="668"/>
      <point x="144" y="698" type="curve" smooth="yes"/>
      <point x="144" y="727"/>
      <point x="170" y="752"/>
      <point x="201" y="752" type="curve" smooth="yes"/>
      <point x="232" y="752"/>
      <point x="258" y="727"/>
    </contour>
  </outline>
</glyph>
<glyph name="acute" format="1">
  <advance width="350"/>
  <unicode hex="00B4"/>
  <outline>
    <contour>
      <point x="130" y="537" type="move" name="_abvm"/>
    </contour>
    <contour>
      <point x="50" y="602" type="line"/>
      <point x="172" y="602" type="line"/>
      <point x="300" y="711" type="line"/>
      <point x="156" y="765" type="line"/>
    </contour>
  </outline>
</glyph>
<glyph name="mu" format="1">
  <advance width="681"/>
  <unicode hex="00B5"/>
  <outline>
    <contour>
      <point x="273.0" y="-6.0" type="curve" smooth="yes"/>
      <point x="353.980163987" y="-6.0"/>
      <point x="416.334401546" y="27.2344961738"/>
      <point x="453.0" y="94.83469" type="curve"/>
      <point x="453.0" y="0" type="line"/>
      <point x="607" y="0" type="line"/>
      <point x="607" y="538" type="line"/>
      <point x="453.0" y="538" type="line"/>
      <point x="453.0" y="272" type="line"/>
      <point x="452.0" y="272" type="line"/>
      <point x="452" y="194"/>
      <point x="408" y="136"/>
      <point x="334" y="135" type="curve" smooth="yes"/>
      <point x="272" y="135"/>
      <point x="233" y="176"/>
      <point x="233" y="244" type="curve" smooth="yes"/>
      <point x="233.0" y="538" type="line"/>
      <point x="79" y="538" type="line"/>
      <point x="79" y="-194.0" type="line"/>
      <point x="233.0" y="-194.0" type="line"/>
      <point x="233.0" y="-2.77898" type="line"/>
      <point x="245.694907895" y="-4.9135776172"/>
      <point x="259.044905942" y="-6.0"/>
    </contour>
  </outline>
</glyph>
<glyph name="paragraph" format="1">
  <advance width="638"/>
  <unicode hex="00B6"/>
  <outline>
    <contour>
      <point x="233" y="742" type="line" smooth="yes"/>
      <point x="61" y="742"/>
      <point x="-4" y="639"/>
      <point x="-4" y="533" type="curve" smooth="yes"/>
      <point x="-4" y="455"/>
      <point x="36" y="333"/>
      <point x="193" y="333" type="curve" smooth="yes"/>
      <point x="221" y="333" type="line"/>
      <point x="221" y="-107" type="line"/>
      <point x="336" y="-107" type="line"/>
      <point x="336" y="651" type="line"/>
      <point x="446" y="651" type="line"/>
      <point x="446" y="-107" type="line"/>
      <point x="561" y="-107" type="line"/>
      <point x="561" y="742" type="line"/>
    </contour>
  </outline>
</glyph>
<glyph name="cedilla" format="1">
  <advance width="350"/>
  <unicode hex="00B8"/>
  <outline>
    <contour>
      <point x="175" y="0" type="move" name="_blwm"/>
    </contour>
    <contour>
      <point x="243" y="14" type="line"/>
      <point x="156" y="14" type="line"/>
      <point x="111" y="-85" type="line"/>
      <point x="122" y="-83"/>
      <point x="136" y="-81"/>
      <point x="146" y="-81" type="curve" smooth="yes"/>
      <point x="177" y="-81"/>
      <point x="193" y="-97"/>
      <point x="193" y="-117" type="curve" smooth="yes"/>
      <point x="193" y="-137"/>
      <point x="176" y="-155"/>
      <point x="150" y="-155" type="curve" smooth="yes"/>
      <point x="131" y="-155"/>
      <point x="112" y="-147"/>
      <point x="98" y="-135" type="curve"/>
      <point x="69" y="-202" type="line"/>
      <point x="95" y="-220"/>
      <point x="130" y="-232"/>
      <point x="162" y="-232" type="curve" smooth="yes"/>
      <point x="230" y="-232"/>
      <point x="280" y="-193"/>
      <point x="280" y="-131" type="curve" smooth="yes"/>
      <point x="280" y="-90"/>
      <point x="253" y="-61"/>
      <point x="212" y="-50" type="curve"/>
    </contour>
  </outline>
</glyph>
<glyph name="onesuperior" format="1">
  <advance width="270"/>
  <unicode hex="00B9"/>
  <outline>
    <contour>
      <point x="201" y="700" type="line"/>
      <point x="12" y="700" type="line"/>
      <point x="12" y="613" type="line"/>
      <point x="93" y="613" type="line"/>
      <point x="93" y="284" type="line"/>
      <point x="201" y="284" type="line"/>
    </contour>
  </outline>
</glyph>
<glyph name="ordmasculine" format="1">
  <advance width="411"/>
  <unicode hex="00BA"/>
  <outline>
    <contour>
      <point x="24" y="619" type="curve" smooth="yes"/>
      <point x="24" y="520"/>
      <point x="96" y="455"/>
      <point x="206" y="455" type="curve" smooth="yes"/>
      <point x="315" y="455"/>
      <point x="388" y="520"/>
      <point x="388" y="619" type="curve" smooth="yes"/>
      <point x="388" y="717"/>
      <point x="315" y="783"/>
      <point x="206" y="783" type="curve" smooth="yes"/>
      <point x="96" y="783"/>
      <point x="24" y="717"/>
    </contour>
    <contour>
      <point x="280" y="617" type="curve" smooth="yes"/>
      <point x="280" y="569"/>
      <point x="249" y="537"/>
      <point x="205" y="537" type="curve" smooth="yes"/>
      <point x="161" y="537"/>
      <point x="130" y="569"/>
      <point x="130" y="617" type="curve" smooth="yes"/>
      <point x="130" y="666"/>
      <point x="161" y="698"/>
      <point x="205" y="698" type="curve" smooth="yes"/>
      <point x="249" y="698"/>
      <point x="280" y="666"/>
    </contour>
  </outline>
</glyph>
<glyph name="questiondown" format="1">
  <advance width="462"/>
  <unicode hex="00BF"/>
  <outline>
    <contour>
      <point x="319" y="467" type="curve" smooth="yes"/>
      <point x="319" y="512"/>
      <point x="288" y="545"/>
      <point x="244" y="545" type="curve" smooth="yes"/>
      <point x="199" y="545"/>
      <point x="167" y="512"/>
      <point x="167" y="467" type="curve" smooth="yes"/>
      <point x="167" y="421"/>
      <point x="199" y="388"/>
      <point x="244" y="388" type="curve" smooth="yes"/>
      <point x="288" y="388"/>
      <point x="319" y="421"/>
    </contour>
    <contour>
      <point x="339" y="57" type="line"/>
      <point x="337" y="-6"/>
      <point x="305" y="-37"/>
      <point x="250" y="-37" type="curve" smooth="yes"/>
      <point x="200" y="-37"/>
      <point x="168" y="-14"/>
      <point x="168" y="33" type="curve" smooth="yes"/>
      <point x="168" y="138"/>
      <point x="297" y="144"/>
      <point x="297" y="301" type="curve"/>
      <point x="181" y="301" type="line"/>
      <point x="181" y="177"/>
      <point x="26" y="161"/>
      <point x="26" y="8" type="curve" smooth="yes"/>
      <point x="26" y="-103"/>
      <point x="108" y="-164"/>
      <point x="237" y="-164" type="curve" smooth="yes"/>
      <point x="372" y="-164"/>
      <point x="455" y="-83"/>
      <point x="458" y="56" type="curve"/>
    </contour>
  </outline>
</glyph>
<glyph name="Aring" format="1">
  <advance width="759"/>
  <unicode hex="00C5"/>
  <outline>
    <contour>
      <point x="442" y="769" type="curve" smooth="yes"/>
      <point x="442" y="738"/>
      <point x="416" y="713"/>
      <point x="382" y="713" type="curve" smooth="yes"/>
      <point x="349" y="713"/>
      <point x="323" y="738"/>
      <point x="323" y="769" type="curve" smooth="yes"/>
      <point x="323" y="801"/>
      <point x="349" y="826"/>
      <point x="382" y="826" type="curve" smooth="yes"/>
      <point x="416" y="826"/>
      <point x="442" y="801"/>
    </contour>
    <contour>
      <point x="378.0" y="535" type="line"/>
      <point x="487.81682" y="263" type="line"/>
      <point x="267.16636" y="263" type="line"/>
    </contour>
    <contour>
      <point x="594" y="0" type="line"/>
      <point x="763.0" y="0" type="line"/>
      <point x="472.11154" y="681.00977" type="line"/>
      <point x="494.899238138" y="703.578227601"/>
      <point x="509.0" y="734.681132184"/>
      <point x="509.0" y="769.0" type="curve" smooth="yes"/>
      <point x="509" y="839"/>
      <point x="452" y="895"/>
      <point x="382" y="895" type="curve" smooth="yes"/>
      <point x="312" y="895"/>
      <point x="256" y="839"/>
      <point x="256" y="769" type="curve" smooth="yes"/>
      <point x="256.0" y="734.552308755"/>
      <point x="269.957578702" y="703.344769709"/>
      <point x="292.64658" y="680.76516" type="curve"/>
      <point x="-3.0" y="0" type="line"/>
      <point x="160" y="0" type="line"/>
      <point x="215.41682" y="136" type="line"/>
      <point x="539.09159" y="136" type="line"/>
    </contour>
  </outline>
</glyph>
<glyph name="AE" format="1">
  <advance width="1086"/>
  <unicode hex="00C6"/>
  <outline>
    <contour>
      <point x="756" y="0" type="move" name="blwm"/>
    </contour>
    <contour>
      <point x="1033" y="10" type="move" name="ogonek"/>
    </contour>
    <contour>
      <point x="637" y="700" type="move" name="abvm"/>
    </contour>
    <contour>
      <point x="473.0" y="574" type="line"/>
      <point x="495.0" y="574" type="line"/>
      <point x="495.0" y="274" type="line"/>
      <point x="310.45645" y="274" type="line"/>
    </contour>
    <contour>
      <point x="495.0" y="0" type="line"/>
      <point x="1038" y="0" type="line"/>
      <point x="1038" y="132" type="line"/>
      <point x="653" y="132" type="line"/>
      <point x="653" y="286" type="line"/>
      <point x="990.0" y="286" type="line"/>
      <point x="990.0" y="417.0" type="line"/>
      <point x="653" y="417.0" type="line"/>
      <point x="653" y="569" type="line"/>
      <point x="1027" y="569" type="line"/>
      <point x="1027" y="700.0" type="line"/>
      <point x="398.0" y="700.0" type="line"/>
      <point x="-3.0" y="0" type="line"/>
      <point x="162" y="0" type="line"/>
      <point x="245.43902" y="154" type="line"/>
      <point x="495.0" y="154" type="line"/>
    </contour>
  </outline>
</glyph>
<glyph name="Eth" format="1">
  <advance width="797"/>
  <unicode hex="00D0"/>
  <outline>
    <contour>
      <point x="396.005" y="0" type="line" smooth="yes"/>
      <point x="617.005" y="0"/>
      <point x="770.005" y="144"/>
      <point x="770.005" y="350" type="curve" smooth="yes"/>
      <point x="770.005" y="557"/>
      <point x="618.005" y="700"/>
      <point x="401.005" y="700" type="curve" smooth="yes"/>
      <point x="105.005" y="700.0" type="line"/>
      <point x="105.005" y="395.0" type="line"/>
      <point x="0" y="395.0" type="line"/>
      <point x="0" y="307" type="line"/>
      <point x="105.005" y="307" type="line"/>
      <point x="105.005" y="0" type="line"/>
    </contour>
    <contour>
      <point x="263.005" y="133" type="line"/>
      <point x="263.005" y="307" type="line"/>
      <point x="435.0" y="307" type="line"/>
      <point x="435.0" y="395.0" type="line"/>
      <point x="263.005" y="395.0" type="line"/>
      <point x="263.005" y="567" type="line"/>
      <point x="398.005" y="567" type="line" smooth="yes"/>
      <point x="519.005" y="567"/>
      <point x="609.005" y="478"/>
      <point x="609.005" y="349" type="curve" smooth="yes"/>
      <point x="609.005" y="221"/>
      <point x="523.005" y="133"/>
      <point x="405.005" y="133" type="curve" smooth="yes"/>
    </contour>
  </outline>
</glyph>
<glyph name="multiply" format="1">
  <advance width="506"/>
  <unicode hex="00D7"/>
  <outline>
    <contour>
      <point x="373.0" y="134" type="line"/>
      <point x="442.0" y="206.0" type="line"/>
      <point x="322.76923" y="326" type="line"/>
      <point x="442.0" y="446.0" type="line"/>
      <point x="373.0" y="518" type="line"/>
      <point x="252.5" y="396.72258" type="line"/>
      <point x="132" y="518" type="line"/>
      <point x="63.0" y="446.0" type="line"/>
      <point x="182.23077" y="326" type="line"/>
      <point x="63.0" y="206.0" type="line"/>
      <point x="132" y="134" type="line"/>
      <point x="252.5" y="255.27742" type="line"/>
    </contour>
  </outline>
</glyph>
<glyph name="Oslash" format="1">
  <advance width="806"/>
  <unicode hex="00D8"/>
  <outline>
    <contour>
      <point x="391" y="700" type="move" name="abvm"/>
    </contour>
    <contour>
      <point x="189.0" y="350.0" type="curve" smooth="yes"/>
      <point x="189" y="473"/>
      <point x="287" y="567"/>
      <point x="405" y="567" type="curve" smooth="yes"/>
      <point x="412.305962068" y="567.0"/>
      <point x="419.526140236" y="566.633468794"/>
      <point x="426.64276" y="565.91451" type="curve"/>
      <point x="287.89958" y="166.10938" type="line"/>
      <point x="228.86597909" y="204.766851951"/>
      <point x="189.0" y="271.9471561"/>
    </contour>
    <contour>
      <point x="405" y="131" type="curve" smooth="yes"/>
      <point x="391.808239883" y="131.0"/>
      <point x="378.845306243" y="132.220407872"/>
      <point x="366.2273" y="134.57532" type="curve"/>
      <point x="507.56083" y="540.58002" type="line"/>
      <point x="572.797187423" y="504.308943988"/>
      <point x="617.0" y="433.901217072"/>
      <point x="617.0" y="350.0" type="curve" smooth="yes"/>
      <point x="617" y="227"/>
      <point x="522" y="131"/>
    </contour>
    <contour>
      <point x="403.0" y="-7.0" type="curve" smooth="yes"/>
      <point x="617" y="-7"/>
      <point x="779" y="148"/>
      <point x="779" y="350" type="curve" smooth="yes"/>
      <point x="779.0" y="501.130800623"/>
      <point x="689.209807049" y="623.99431828"/>
      <point x="555.01977" y="676.91394" type="curve"/>
      <point x="601" y="809.0" type="line"/>
      <point x="511.0" y="809.0" type="line"/>
      <point x="472.96066" y="699.38508" type="line"/>
      <point x="450.399778585" y="703.083808284"/>
      <point x="427.027658928" y="705.0"/>
      <point x="403.0" y="705.0" type="curve" smooth="yes"/>
      <point x="189" y="705"/>
      <point x="27" y="554"/>
      <point x="27" y="350" type="curve" smooth="yes"/>
      <point x="27.0" y="203.270349985"/>
      <point x="111.636696143" y="82.1406883095"/>
      <point x="239.37088" y="26.26812" type="curve"/>
      <point x="190.0" y="-116.0" type="line"/>
      <point x="279" y="-116.0" type="line"/>
      <point x="319.76568" y="1.10637" type="line"/>
      <point x="346.392084813" y="-4.21584144217"/>
      <point x="374.225989663" y="-7.0"/>
    </contour>
  </outline>
</glyph>
<glyph name="Thorn" format="1">
  <advance width="685"/>
  <unicode hex="00DE"/>
  <outline>
    <contour>
      <point x="359.0" y="480.0" type="line" smooth="yes"/>
      <point x="450" y="480"/>
      <point x="500" y="438"/>
      <point x="500" y="362" type="curve" smooth="yes"/>
      <point x="500" y="284"/>
      <point x="450" y="241"/>
      <point x="359" y="241" type="curve" smooth="yes"/>
      <point x="235.0" y="241.0" type="line"/>
      <point x="235.0" y="480.0" type="line"/>
    </contour>
    <contour>
      <point x="365.0" y="115.0" type="line" smooth="yes"/>
      <point x="552" y="115"/>
      <point x="661" y="209"/>
      <point x="661" y="367" type="curve" smooth="yes"/>
      <point x="661" y="517"/>
      <point x="552" y="606"/>
      <point x="365" y="606" type="curve" smooth="yes"/>
      <point x="235.0" y="606" type="line"/>
      <point x="235.0" y="700.0" type="line"/>
      <point x="77" y="700.0" type="line"/>
      <point x="77" y="0" type="line"/>
      <point x="235.0" y="0" type="line"/>
      <point x="235.0" y="115.0" type="line"/>
    </contour>
  </outline>
</glyph>
<glyph name="germandbls" format="1">
  <advance width="659"/>
  <unicode hex="00DF"/>
  <outline>
    <contour>
      <point x="64" y="491" type="curve" smooth="yes"/>
      <point x="64" y="0" type="line"/>
      <point x="217" y="0" type="line"/>
      <point x="217" y="502" type="line" smooth="yes"/>
      <point x="217" y="582"/>
      <point x="258" y="629"/>
      <point x="330" y="629" type="curve" smooth="yes"/>
      <point x="392" y="629"/>
      <point x="431" y="592"/>
      <point x="431" y="528" type="curve" smooth="yes"/>
      <point x="431" y="462"/>
      <point x="387" y="423"/>
      <point x="313" y="423" type="curve"/>
      <point x="313" y="310" type="line"/>
      <point x="329" y="310" type="line" smooth="yes"/>
      <point x="418" y="310"/>
      <point x="472" y="276"/>
      <point x="472" y="213" type="curve" smooth="yes"/>
      <point x="472" y="153"/>
      <point x="425" y="114"/>
      <point x="345" y="114" type="curve" smooth="yes"/>
      <point x="298" y="114" type="line"/>
      <point x="298" y="0" type="line"/>
      <point x="348" y="0" type="line" smooth="yes"/>
      <point x="514" y="0"/>
      <point x="621" y="87"/>
      <point x="621" y="213" type="curve" smooth="yes"/>
      <point x="621" y="301"/>
      <point x="561" y="361"/>
      <point x="477" y="383" type="curve"/>
      <point x="539" y="413"/>
      <point x="579" y="479"/>
      <point x="579" y="551" type="curve" smooth="yes"/>
      <point x="579" y="671"/>
      <point x="479" y="749"/>
      <point x="330" y="749" type="curve" smooth="yes"/>
      <point x="166" y="749"/>
      <point x="64" y="648"/>
    </contour>
  </outline>
</glyph>
<glyph name="ae" format="1">
  <advance width="968"/>
  <unicode hex="00E6"/>
  <outline>
    <contour>
      <point x="486" y="538" type="move" name="abvm"/>
    </contour>
    <contour>
      <point x="669.0" y="435.0" type="curve" smooth="yes"/>
      <point x="739" y="435"/>
      <point x="787" y="383"/>
      <point x="788" y="312" type="curve"/>
      <point x="541.81879" y="312" type="line"/>
      <point x="553.516460355" y="384.373821932"/>
      <point x="600.835193516" y="435.0"/>
    </contour>
    <contour>
      <point x="262" y="97" type="curve" smooth="yes"/>
      <point x="210" y="97"/>
      <point x="176" y="126"/>
      <point x="176" y="171" type="curve" smooth="yes"/>
      <point x="176" y="214"/>
      <point x="210" y="237"/>
      <point x="269" y="237" type="curve" smooth="yes"/>
      <point x="388.0" y="237.0" type="line"/>
      <point x="388.0" y="178.0" type="line"/>
      <point x="390.38091" y="177.43237" type="line"/>
      <point x="365" y="121"/>
      <point x="318" y="97"/>
    </contour>
    <contour>
      <point x="425.93618" y="160.87869" type="curve"/>
      <point x="407.29272" y="173.40041" type="line"/>
      <point x="423.2279" y="169.6013" type="line"/>
      <point x="424.08960295" y="166.633207618"/>
      <point x="424.992456291" y="163.73471668"/>
    </contour>
    <contour>
      <point x="672.0" y="-6.0" type="curve" smooth="yes"/>
      <point x="769" y="-6"/>
      <point x="848" y="29"/>
      <point x="902" y="88" type="curve"/>
      <point x="821.0" y="172" type="line"/>
      <point x="784" y="134"/>
      <point x="736" y="114"/>
      <point x="684" y="114" type="curve" smooth="yes"/>
      <point x="610.716176769" y="114.0"/>
      <point x="557.038087201" y="158.294435315"/>
      <point x="542.76636" y="234.0" type="curve"/>
      <point x="941.0" y="234.0" type="line"/>
      <point x="949" y="420"/>
      <point x="843" y="543"/>
      <point x="667" y="543" type="curve" smooth="yes"/>
      <point x="595.483699817" y="543.0"/>
      <point x="535.794700049" y="520.175385163"/>
      <point x="491.99729" y="479.6119" type="curve"/>
      <point x="452.959995912" y="521.169034326"/>
      <point x="390.651448693" y="544.0"/>
      <point x="309.0" y="544.0" type="curve" smooth="yes"/>
      <point x="230" y="544"/>
      <point x="147" y="522"/>
      <point x="65" y="484" type="curve"/>
      <point x="101.0" y="376.0" type="line"/>
      <point x="161" y="407"/>
      <point x="223" y="423"/>
      <point x="275" y="423" type="curve" smooth="yes"/>
      <point x="349" y="423"/>
      <point x="388" y="390"/>
      <point x="388" y="333" type="curve"/>
      <point x="388.0" y="314" type="line"/>
      <point x="238.0" y="314" type="line" smooth="yes"/>
      <point x="107" y="313"/>
      <point x="32" y="258"/>
      <point x="32" y="158" type="curve" smooth="yes"/>
      <point x="32" y="60"/>
      <point x="105" y="-7"/>
      <point x="225" y="-7" type="curve" smooth="yes"/>
      <point x="328.991372391" y="-7.0"/>
      <point x="405.180628481" y="33.8854651484"/>
      <point x="447.65231" y="111.98408" type="curve"/>
      <point x="490.225453929" y="38.1508540931"/>
      <point x="567.466099336" y="-6.0"/>
    </contour>
  </outline>
</glyph>
<glyph name="eth" format="1">
  <advance width="599"/>
  <unicode hex="00F0"/>
  <outline>
    <contour>
      <point x="283" y="-7" type="curve" smooth="yes"/>
      <point x="459" y="-7"/>
      <point x="572" y="105"/>
      <point x="572" y="279" type="curve" smooth="yes"/>
      <point x="572.0" y="393.699494364"/>
      <point x="523.216506639" y="504.939166505"/>
      <point x="438.4705" y="595.41204" type="curve"/>
      <point x="535" y="628" type="line"/>
      <point x="511.0" y="703.0" type="line"/>
      <point x="372.49858" y="655.88827" type="line"/>
      <point x="325.652667687" y="692.84310703"/>
      <point x="271.727148193" y="724.454596633"/>
      <point x="212.0" y="749.0" type="curve"/>
      <point x="109.0" y="682" type="line"/>
      <point x="153.537516863" y="661.353469004"/>
      <point x="195.552156579" y="636.444145586"/>
      <point x="233.63265" y="608.65254" type="curve"/>
      <point x="120.0" y="570" type="line"/>
      <point x="144" y="496.0" type="line"/>
      <point x="303.81812" y="549.95394" type="line"/>
      <point x="359.4938507" y="496.433034938"/>
      <point x="400.644040105" y="437.067879686"/>
      <point x="420.0" y="379.0" type="curve"/>
      <point x="388" y="419"/>
      <point x="323" y="445"/>
      <point x="254" y="445" type="curve" smooth="yes"/>
      <point x="116" y="445"/>
      <point x="27" y="358"/>
      <point x="27" y="225" type="curve" smooth="yes"/>
      <point x="27" y="84"/>
      <point x="128" y="-7"/>
    </contour>
    <contour>
      <point x="408" y="230" type="curve" smooth="yes"/>
      <point x="408" y="167"/>
      <point x="362" y="125"/>
      <point x="290" y="125" type="curve" smooth="yes"/>
      <point x="220" y="125"/>
      <point x="174" y="168"/>
      <point x="174" y="234" type="curve" smooth="yes"/>
      <point x="174" y="297"/>
      <point x="219" y="338"/>
      <point x="290" y="338" type="curve" smooth="yes"/>
      <point x="362" y="338"/>
      <point x="408" y="295"/>
    </contour>
  </outline>
</glyph>
<glyph name="divide" format="1">
  <advance width="506"/>
  <unicode hex="00F7"/>
  <outline>
    <contour>
      <point x="174.04" y="510.17" type="curve" smooth="yes"/>
      <point x="174.04" y="466.67"/>
      <point x="204.49" y="435.35"/>
      <point x="246.25" y="435.35" type="curve" smooth="yes"/>
      <point x="288.88" y="435.35"/>
      <point x="319.33" y="466.67"/>
      <point x="319.33" y="510.17" type="curve" smooth="yes"/>
      <point x="319.33" y="553.67"/>
      <point x="288.88" y="584.99"/>
      <point x="246.25" y="584.99" type="curve" smooth="yes"/>
      <point x="204.49" y="584.99"/>
      <point x="174.04" y="553.67"/>
    </contour>
    <contour>
      <point x="33" y="377" type="line"/>
      <point x="33" y="275" type="line"/>
      <point x="472" y="275" type="line"/>
      <point x="472" y="377" type="line"/>
    </contour>
    <contour>
      <point x="174.04" y="153.17" type="curve" smooth="yes"/>
      <point x="174.04" y="109.67"/>
      <point x="204.49" y="78.35"/>
      <point x="246.25" y="78.35" type="curve" smooth="yes"/>
      <point x="288.88" y="78.35"/>
      <point x="319.33" y="109.67"/>
      <point x="319.33" y="153.17" type="curve" smooth="yes"/>
      <point x="319.33" y="196.67"/>
      <point x="288.88" y="227.99"/>
      <point x="246.25" y="227.99" type="curve" smooth="yes"/>
      <point x="204.49" y="227.99"/>
      <point x="174.04" y="196.67"/>
    </contour>
  </outline>
</glyph>
<glyph name="oslash" format="1">
  <advance width="633"/>
  <unicode hex="00F8"/>
  <outline>
    <contour>
      <point x="317" y="537" type="move" name="abvm"/>
    </contour>
    <contour>
      <point x="173.0" y="267.0" type="curve" smooth="yes"/>
      <point x="173" y="364"/>
      <point x="232" y="428"/>
      <point x="317" y="428" type="curve" smooth="yes"/>
      <point x="323.589505225" y="428.0"/>
      <point x="330.016742958" y="427.615365943"/>
      <point x="336.26727" y="426.83722" type="curve"/>
      <point x="239.1581" y="128.15295" type="line"/>
      <point x="198.106098692" y="154.94505907"/>
      <point x="173.0" y="204.376859539"/>
    </contour>
    <contour>
      <point x="317" y="106" type="curve" smooth="yes"/>
      <point x="310.179164811" y="106.0"/>
      <point x="303.525750883" y="106.418553152"/>
      <point x="297.05681" y="107.25904" type="curve"/>
      <point x="393.96532" y="406.45946" type="line"/>
      <point x="435.077885147" y="379.988860815"/>
      <point x="460.0" y="330.584342392"/>
      <point x="460.0" y="267.0" type="curve" smooth="yes"/>
      <point x="460" y="171"/>
      <point x="402" y="106"/>
    </contour>
    <contour>
      <point x="317.0" y="-6.0" type="curve" smooth="yes"/>
      <point x="489" y="-6"/>
      <point x="606" y="105"/>
      <point x="606" y="269" type="curve" smooth="yes"/>
      <point x="606.0" y="393.75690299"/>
      <point x="539.112164309" y="486.499115392"/>
      <point x="432.13642" y="524.31093" type="curve"/>
      <point x="479.0" y="669" type="line"/>
      <point x="415.0" y="669" type="line"/>
      <point x="372.72071" y="538.95915" type="line"/>
      <point x="354.89762359" y="541.628317167"/>
      <point x="336.294878565" y="543.0"/>
      <point x="317.0" y="543.0" type="curve" smooth="yes"/>
      <point x="144" y="543"/>
      <point x="28" y="434"/>
      <point x="28" y="269" type="curve" smooth="yes"/>
      <point x="28.0" y="144.908195305"/>
      <point x="94.413519301" y="51.1604985669"/>
      <point x="201.68121" y="12.88312" type="curve"/>
      <point x="151" y="-143" type="line"/>
      <point x="216.0" y="-143" type="line"/>
      <point x="261.67427" y="-1.98286" type="line"/>
      <point x="279.362905632" y="-4.63728832273"/>
      <point x="297.831567385" y="-6.0"/>
    </contour>
  </outline>
</glyph>
<glyph name="thorn" format="1">
  <advance width="682"/>
  <unicode hex="00FE"/>
  <outline>
    <contour>
      <point x="157" y="0" type="move" name="blwm"/>
    </contour>
    <contour>
      <point x="157" y="742" type="move" name="abvm"/>
    </contour>
    <contour>
      <point x="283" y="538" type="move" name="topright"/>
    </contour>
    <contour>
      <point x="500" y="271" type="curve" smooth="yes"/>
      <point x="500" y="183"/>
      <point x="446" y="122"/>
      <point x="366" y="122" type="curve" smooth="yes"/>
      <point x="288" y="122"/>
      <point x="233" y="182"/>
      <point x="233" y="271" type="curve" smooth="yes"/>
      <point x="233" y="358"/>
      <point x="288" y="419"/>
      <point x="366" y="419" type="curve" smooth="yes"/>
      <point x="446" y="419"/>
      <point x="500" y="357"/>
    </contour>
    <contour>
      <point x="233.0" y="-194.0" type="line"/>
      <point x="233.0" y="78.12083" type="line"/>
      <point x="271.662484445" y="24.1960298196"/>
      <point x="330.922758222" y="-6.0"/>
      <point x="406.0" y="-6.0" type="curve" smooth="yes"/>
      <point x="557" y="-6"/>
      <point x="655" y="103"/>
      <point x="655" y="266" type="curve" smooth="yes"/>
      <point x="655" y="432"/>
      <point x="554" y="543"/>
      <point x="402" y="543" type="curve" smooth="yes"/>
      <point x="329.009322485" y="543.0"/>
      <point x="271.06285975" y="513.195423548"/>
      <point x="233.0" y="459.48099" type="curve"/>
      <point x="233.0" y="742.0" type="line"/>
      <point x="79" y="742.0" type="line"/>
      <point x="79" y="-194.0" type="line"/>
    </contour>
  </outline>
</glyph>
<glyph name="Aogonek" format="1">
  <advance width="759"/>
  <unicode hex="0104"/>
  <outline>
    <contour>
      <point x="302" y="700" type="line"/>
      <point x="-3" y="0" type="line"/>
      <point x="161" y="0" type="line"/>
      <point x="217" y="136" type="line"/>
      <point x="538" y="136" type="line"/>
      <point x="595" y="0" type="line"/>
      <point x="643" y="0" type="line"/>
      <point x="613" y="-43"/>
      <point x="594" y="-82"/>
      <point x="594" y="-121" type="curve" smooth="yes"/>
      <point x="594" y="-181"/>
      <point x="639" y="-202"/>
      <point x="679" y="-202" type="curve" smooth="yes"/>
      <point x="720" y="-202"/>
      <point x="758" y="-180"/>
      <point x="783" y="-138" type="curve"/>
      <point x="742" y="-90" type="line"/>
      <point x="728" y="-109"/>
      <point x="713" y="-121"/>
      <point x="697" y="-121" type="curve" smooth="yes"/>
      <point x="683" y="-121"/>
      <point x="673" y="-112"/>
      <point x="673" y="-96" type="curve" smooth="yes"/>
      <point x="673" y="-75"/>
      <point x="688" y="-42"/>
      <point x="718" y="0" type="curve"/>
      <point x="763" y="0" type="line"/>
      <point x="465" y="700" type="line"/>
    </contour>
    <contour>
      <point x="491" y="263" type="line"/>
      <point x="266" y="263" type="line"/>
      <point x="379" y="536" type="line"/>
    </contour>
  </outline>
</glyph>
<glyph name="aogonek" format="1">
  <advance width="600"/>
  <unicode hex="0105"/>
  <outline>
    <contour>
      <point x="65" y="482" type="curve"/>
      <point x="113" y="376" type="line"/>
      <point x="169" y="407"/>
      <point x="226" y="423"/>
      <point x="273" y="423" type="curve" smooth="yes"/>
      <point x="348" y="423"/>
      <point x="386" y="390"/>
      <point x="387" y="334" type="curve"/>
      <point x="387" y="323" type="line"/>
      <point x="237" y="323" type="line" smooth="yes"/>
      <point x="105" y="322"/>
      <point x="32" y="262"/>
      <point x="32" y="161" type="curve" smooth="yes"/>
      <point x="32" y="63"/>
      <point x="102" y="-7"/>
      <point x="218" y="-7" type="curve" smooth="yes"/>
      <point x="293" y="-7"/>
      <point x="351" y="17"/>
      <point x="388" y="63" type="curve"/>
      <point x="388" y="0" type="line"/>
      <point x="425" y="0" type="line"/>
      <point x="394" y="-42"/>
      <point x="375" y="-82"/>
      <point x="375" y="-121" type="curve" smooth="yes"/>
      <point x="375" y="-181"/>
      <point x="420" y="-202"/>
      <point x="460" y="-202" type="curve" smooth="yes"/>
      <point x="502" y="-202"/>
      <point x="539" y="-180"/>
      <point x="564" y="-138" type="curve"/>
      <point x="523" y="-90" type="line"/>
      <point x="510" y="-109"/>
      <point x="495" y="-121"/>
      <point x="479" y="-121" type="curve" smooth="yes"/>
      <point x="464" y="-121"/>
      <point x="454" y="-112"/>
      <point x="454" y="-96" type="curve" smooth="yes"/>
      <point x="454" y="-75"/>
      <point x="470" y="-42"/>
      <point x="500.003" y="0" type="curve"/>
      <point x="539" y="0" type="line"/>
      <point x="539" y="351" type="line" smooth="yes"/>
      <point x="537" y="472"/>
      <point x="454" y="544"/>
      <point x="309" y="544" type="curve" smooth="yes"/>
      <point x="214" y="544"/>
      <point x="146" y="522"/>
    </contour>
    <contour>
      <point x="387" y="182" type="line"/>
      <point x="379" y="139"/>
      <point x="323" y="103"/>
      <point x="261" y="103" type="curve" smooth="yes"/>
      <point x="208" y="103"/>
      <point x="176" y="130"/>
      <point x="176" y="171" type="curve" smooth="yes"/>
      <point x="176" y="214"/>
      <point x="204" y="232"/>
      <point x="265" y="232" type="curve" smooth="yes"/>
      <point x="387" y="232" type="line"/>
    </contour>
  </outline>
</glyph>
<glyph name="Eogonek" format="1">
  <advance width="674"/>
  <unicode hex="0118"/>
  <outline>
    <contour>
      <point x="77" y="700" type="line"/>
      <point x="77" y="0" type="line"/>
      <point x="482" y="0" type="line"/>
      <point x="451" y="-44"/>
      <point x="433" y="-83"/>
      <point x="433" y="-121" type="curve" smooth="yes"/>
      <point x="433" y="-181"/>
      <point x="478" y="-202"/>
      <point x="518" y="-202" type="curve" smooth="yes"/>
      <point x="559" y="-202"/>
      <point x="597" y="-180"/>
      <point x="621" y="-138" type="curve"/>
      <point x="581" y="-90" type="line"/>
      <point x="567" y="-109"/>
      <point x="552" y="-121"/>
      <point x="536" y="-121" type="curve" smooth="yes"/>
      <point x="522" y="-121"/>
      <point x="511" y="-112"/>
      <point x="511" y="-96" type="curve" smooth="yes"/>
      <point x="511" y="-75"/>
      <point x="526" y="-44"/>
      <point x="557" y="0" type="curve"/>
      <point x="626" y="0" type="line"/>
      <point x="626" y="126" type="line"/>
      <point x="235" y="126" type="line"/>
      <point x="235" y="291" type="line"/>
      <point x="578" y="291" type="line"/>
      <point x="578" y="417" type="line"/>
      <point x="235" y="417" type="line"/>
      <point x="235" y="574" type="line"/>
      <point x="616" y="574" type="line"/>
      <point x="616" y="700" type="line"/>
    </contour>
  </outline>
</glyph>
<glyph name="eogonek" format="1">
  <advance width="597"/>
  <unicode hex="0119"/>
  <outline>
    <contour>
      <point x="28" y="269" type="curve" smooth="yes"/>
      <point x="28" y="104"/>
      <point x="138" y="-6"/>
      <point x="306" y="-6" type="curve" smooth="yes"/>
      <point x="344" y="-6"/>
      <point x="377" y="2"/>
      <point x="410" y="20" type="curve"/>
      <point x="374" y="-29"/>
      <point x="353" y="-77"/>
      <point x="353" y="-120" type="curve" smooth="yes"/>
      <point x="353" y="-181"/>
      <point x="398" y="-202"/>
      <point x="438" y="-202" type="curve" smooth="yes"/>
      <point x="480" y="-202"/>
      <point x="516" y="-178"/>
      <point x="540" y="-138" type="curve"/>
      <point x="500" y="-90" type="line"/>
      <point x="487" y="-108"/>
      <point x="473" y="-121"/>
      <point x="456" y="-121" type="curve" smooth="yes"/>
      <point x="441" y="-121"/>
      <point x="432" y="-113"/>
      <point x="432" y="-94" type="curve" smooth="yes"/>
      <point x="432" y="-49"/>
      <point x="488" y="30"/>
      <point x="539" y="88" type="curve"/>
      <point x="458" y="172" type="line"/>
      <point x="421" y="134"/>
      <point x="372" y="114"/>
      <point x="322" y="114" type="curve" smooth="yes"/>
      <point x="249" y="114"/>
      <point x="200" y="156"/>
      <point x="183" y="222" type="curve"/>
      <point x="570" y="222" type="line"/>
      <point x="582" y="421"/>
      <point x="487" y="546"/>
      <point x="305" y="543" type="curve" smooth="yes"/>
      <point x="130" y="540"/>
      <point x="28" y="427"/>
    </contour>
    <contour>
      <point x="425" y="313" type="curve"/>
      <point x="180" y="313" type="line"/>
      <point x="188" y="382"/>
      <point x="238" y="430"/>
      <point x="307" y="430" type="curve" smooth="yes"/>
      <point x="376" y="430"/>
      <point x="423" y="382"/>
    </contour>
  </outline>
</glyph>
<glyph name="Hbar" format="1">
  <advance width="862"/>
  <unicode hex="0126"/>
  <outline>
    <contour>
      <point x="272" y="408.0" type="line"/>
      <point x="272" y="513" type="line"/>
      <point x="589" y="513" type="line"/>
      <point x="589" y="408.0" type="line"/>
    </contour>
    <contour>
      <point x="272" y="276" type="line"/>
      <point x="589" y="276" type="line"/>
      <point x="589.005" y="0" type="line"/>
      <point x="747.0" y="0" type="line"/>
      <point x="747.0" y="513" type="line"/>
      <point x="834.0" y="513" type="line"/>
      <point x="834.0" y="609" type="line"/>
      <point x="747.0" y="609" type="line"/>
      <point x="747.0" y="700.0" type="line"/>
      <point x="589" y="700.0" type="line"/>
      <point x="589" y="609" type="line"/>
      <point x="272" y="609" type="line"/>
      <point x="272" y="700.0" type="line"/>
      <point x="114.0" y="700.0" type="line"/>
      <point x="114.0" y="609" type="line"/>
      <point x="28.0" y="609" type="line"/>
      <point x="28.0" y="513" type="line"/>
      <point x="114.0" y="513" type="line"/>
      <point x="114.0" y="0" type="line"/>
      <point x="272" y="0" type="line"/>
    </contour>
  </outline>
</glyph>
<glyph name="Iogonek" format="1">
  <advance width="313"/>
  <unicode hex="012E"/>
  <outline>
    <contour>
      <point x="226" y="-90" type="line"/>
      <point x="212" y="-109"/>
      <point x="197" y="-121"/>
      <point x="180" y="-121" type="curve" smooth="yes"/>
      <point x="166" y="-121"/>
      <point x="157" y="-112"/>
      <point x="157" y="-96" type="curve" smooth="yes"/>
      <point x="157" y="-75"/>
      <point x="172" y="-42"/>
      <point x="202" y="0" type="curve"/>
      <point x="235" y="0" type="line"/>
      <point x="235" y="700" type="line"/>
      <point x="77" y="700" type="line"/>
      <point x="77" y="0" type="line"/>
      <point x="126" y="0" type="line"/>
      <point x="97" y="-43"/>
      <point x="78" y="-82"/>
      <point x="78" y="-121" type="curve" smooth="yes"/>
      <point x="78" y="-181"/>
      <point x="123" y="-202"/>
      <point x="163" y="-202" type="curve" smooth="yes"/>
      <point x="204" y="-202"/>
      <point x="242" y="-180"/>
      <point x="266" y="-138" type="curve"/>
    </contour>
  </outline>
</glyph>
<glyph name="iogonek" format="1">
  <advance width="283"/>
  <unicode hex="012F"/>
  <outline>
    <contour>
      <point x="59" y="691" type="curve" smooth="yes"/>
      <point x="59" y="641"/>
      <point x="94" y="605"/>
      <point x="143" y="605" type="curve" smooth="yes"/>
      <point x="191" y="605"/>
      <point x="226" y="641"/>
      <point x="226" y="691" type="curve" smooth="yes"/>
      <point x="226" y="742"/>
      <point x="191" y="777"/>
      <point x="143" y="777" type="curve" smooth="yes"/>
      <point x="94" y="777"/>
      <point x="59" y="742"/>
    </contour>
    <contour>
      <point x="66" y="538" type="line"/>
      <point x="66" y="0" type="line"/>
      <point x="109" y="0" type="line"/>
      <point x="79" y="-43"/>
      <point x="60" y="-82"/>
      <point x="60" y="-121" type="curve" smooth="yes"/>
      <point x="60" y="-181"/>
      <point x="105" y="-202"/>
      <point x="145" y="-202" type="curve" smooth="yes"/>
      <point x="186" y="-202"/>
      <point x="224" y="-180"/>
      <point x="249" y="-138" type="curve"/>
      <point x="208" y="-90" type="line"/>
      <point x="194" y="-109"/>
      <point x="180" y="-121"/>
      <point x="163" y="-121" type="curve" smooth="yes"/>
      <point x="149" y="-121"/>
      <point x="139" y="-112"/>
      <point x="139" y="-96" type="curve" smooth="yes"/>
      <point x="139" y="-75"/>
      <point x="154" y="-42"/>
      <point x="184" y="0" type="curve"/>
      <point x="219" y="0" type="line"/>
      <point x="219" y="538" type="line"/>
    </contour>
  </outline>
</glyph>
<glyph name="idotless" format="1">
  <advance width="302"/>
  <unicode hex="0131"/>
  <outline>
    <contour>
      <point x="264" y="10" type="move" name="ogonek"/>
    </contour>
    <contour>
      <point x="151" y="538" type="move" name="abvm"/>
    </contour>
    <contour>
      <point x="74" y="538" type="line"/>
      <point x="74" y="0" type="line"/>
      <point x="227" y="0" type="line"/>
      <point x="227" y="538" type="line"/>
    </contour>
  </outline>
</glyph>
<glyph name="kgreenlandic" format="1">
  <advance width="613"/>
  <unicode hex="0138"/>
  <outline>
    <contour>
      <point x="304" y="0" type="move" name="blwm"/>
    </contour>
    <contour>
      <point x="264" y="10" type="move" name="ogonek"/>
    </contour>
    <contour>
      <point x="151" y="538" type="move" name="abvm"/>
    </contour>
    <contour>
      <point x="426.0" y="0" type="line"/>
      <point x="608" y="0" type="line"/>
      <point x="401.47681" y="330.62657" type="line"/>
      <point x="599" y="538" type="line"/>
      <point x="424.0" y="538" type="line"/>
      <point x="227.0" y="335.26214" type="line"/>
      <point x="227.0" y="538" type="line"/>
      <point x="74" y="538" type="line"/>
      <point x="74" y="0" type="line"/>
      <point x="227.0" y="0" type="line"/>
      <point x="227.0" y="147.44882" type="line"/>
      <point x="295.7723" y="219.65071" type="line"/>
    </contour>
  </outline>
</glyph>
<glyph name="ldot" format="1">
  <advance width="375"/>
  <unicode hex="0140"/>
  <outline>
    <contour>
      <point x="79" y="742" type="line"/>
      <point x="79" y="0" type="line"/>
      <point x="233" y="0" type="line"/>
      <point x="233" y="742" type="line"/>
    </contour>
    <contour>
      <point x="260" y="311" type="curve" smooth="yes"/>
      <point x="260" y="266"/>
      <point x="292" y="233"/>
      <point x="336" y="233" type="curve" smooth="yes"/>
      <point x="380" y="233"/>
      <point x="412" y="266"/>
      <point x="412" y="311" type="curve" smooth="yes"/>
      <point x="412" y="357"/>
      <point x="380" y="390"/>
      <point x="336" y="390" type="curve" smooth="yes"/>
      <point x="292" y="390"/>
      <point x="260" y="357"/>
    </contour>
  </outline>
</glyph>
<glyph name="Lslash" format="1">
  <advance width="571"/>
  <unicode hex="0141"/>
  <outline>
    <contour>
      <point x="553" y="0" type="line"/>
      <point x="553" y="138" type="line"/>
      <point x="254.0" y="138" type="line"/>
      <point x="254.0" y="388.08313" type="line"/>
      <point x="429.0" y="439.0" type="line"/>
      <point x="403.0" y="537" type="line"/>
      <point x="254.0" y="493.39024" type="line"/>
      <point x="254.0" y="700.0" type="line"/>
      <point x="96.0" y="700.0" type="line"/>
      <point x="96.0" y="447.14634" type="line"/>
      <point x="-7.0" y="417.0" type="line"/>
      <point x="20" y="320" type="line"/>
      <point x="96.0" y="342.11247" type="line"/>
      <point x="96.0" y="0" type="line"/>
    </contour>
  </outline>
</glyph>
<glyph name="lslash" format="1">
  <advance width="363"/>
  <unicode hex="0142"/>
  <outline>
    <contour>
      <point x="267" y="0" type="line"/>
      <point x="267" y="405.94309" type="line"/>
      <point x="381.0" y="439.0" type="line"/>
      <point x="355.0" y="538" type="line"/>
      <point x="267" y="512.00542" type="line"/>
      <point x="267" y="742.0" type="line"/>
      <point x="113.0" y="742.0" type="line"/>
      <point x="113.0" y="466.51491" type="line"/>
      <point x="-14.0" y="429.0" type="line"/>
      <point x="12.0" y="332" type="line"/>
      <point x="113.0" y="361.28726" type="line"/>
      <point x="113.0" y="0" type="line"/>
    </contour>
  </outline>
</glyph>
<glyph name="Eng" format="1">
  <advance width="788"/>
  <unicode hex="014A"/>
  <outline>
    <contour>
      <point x="394" y="0" type="move" name="blwm"/>
    </contour>
    <contour>
      <point x="394" y="700" type="move" name="abvm"/>
    </contour>
    <contour>
      <point x="476" y="-212" type="curve" smooth="yes"/>
      <point x="617" y="-212"/>
      <point x="708" y="-131"/>
      <point x="711" y="1" type="curve"/>
      <point x="710.0" y="1.16" type="line"/>
      <point x="710.0" y="700.0" type="line"/>
      <point x="561" y="700.0" type="line"/>
      <point x="561" y="250.0" type="line"/>
      <point x="221.0" y="700.0" type="line"/>
      <point x="77" y="700.0" type="line"/>
      <point x="77" y="0" type="line"/>
      <point x="227.0" y="0" type="line"/>
      <point x="227.0" y="449.0" type="line"/>
      <point x="560.17495" y="9.01308" type="line"/>
      <point x="554.846935903" y="-41.8620641125"/>
      <point x="523.969446581" y="-69.0"/>
      <point x="475.0" y="-69.0" type="curve" smooth="yes"/>
      <point x="440" y="-69"/>
      <point x="395" y="-55"/>
      <point x="353" y="-26" type="curve"/>
      <point x="290" y="-148" type="line"/>
      <point x="339" y="-189"/>
      <point x="402" y="-212"/>
    </contour>
  </outline>
</glyph>
<glyph name="eng" format="1">
  <advance width="670"/>
  <unicode hex="014B"/>
  <outline>
    <contour>
      <point x="340" y="0" type="move" name="blwm"/>
    </contour>
    <contour>
      <point x="351" y="538" type="move" name="abvm"/>
    </contour>
    <contour>
      <point x="422" y="-201" type="curve" smooth="yes"/>
      <point x="524" y="-201"/>
      <point x="611" y="-138"/>
      <point x="611" y="-18" type="curve" smooth="yes"/>
      <point x="611" y="338" type="line" smooth="yes"/>
      <point x="611" y="464"/>
      <point x="534" y="544"/>
      <point x="413" y="544" type="curve" smooth="yes"/>
      <point x="330.12444768" y="543.399452519"/>
      <point x="266.003073735" y="510.700407437"/>
      <point x="228.0" y="443.95334" type="curve"/>
      <point x="228.0" y="538" type="line"/>
      <point x="74" y="538" type="line"/>
      <point x="74" y="0" type="line"/>
      <point x="228.0" y="0" type="line"/>
      <point x="228.0" y="284.40215" type="line"/>
      <point x="235.171895503" y="353.410773637"/>
      <point x="280.517915418" y="402.084648252"/>
      <point x="351.0" y="403.0" type="curve" smooth="yes"/>
      <point x="417" y="403"/>
      <point x="457" y="361"/>
      <point x="457" y="293" type="curve" smooth="yes"/>
      <point x="457.0" y="-10" type="line" smooth="yes"/>
      <point x="457" y="-54"/>
      <point x="433" y="-73"/>
      <point x="401" y="-73" type="curve"/>
      <point x="380" y="-73"/>
      <point x="358" y="-65"/>
      <point x="337" y="-52" type="curve"/>
      <point x="295" y="-165" type="line"/>
      <point x="330" y="-188"/>
      <point x="375" y="-201"/>
    </contour>
  </outline>
</glyph>
<glyph name="OE" format="1">
  <advance width="1109"/>
  <unicode hex="0152"/>
  <outline>
    <contour>
      <point x="778" y="0" type="move" name="blwm"/>
    </contour>
    <contour>
      <point x="1055" y="10" type="move" name="ogonek"/>
    </contour>
    <contour>
      <point x="553" y="700" type="move" name="abvm"/>
    </contour>
    <contour>
      <point x="403.0" y="134" type="line"/>
      <point x="281" y="134"/>
      <point x="189" y="226"/>
      <point x="189" y="349" type="curve" smooth="yes"/>
      <point x="189" y="472"/>
      <point x="281" y="564"/>
      <point x="403" y="564" type="curve"/>
      <point x="517" y="564" type="line"/>
      <point x="517" y="134.7037" type="line"/>
    </contour>
    <contour>
      <point x="402" y="0" type="curve"/>
      <point x="1061" y="0" type="line"/>
      <point x="1061" y="132" type="line"/>
      <point x="675" y="132" type="line"/>
      <point x="675" y="286" type="line"/>
      <point x="1012.0" y="286" type="line"/>
      <point x="1012.0" y="417.0" type="line"/>
      <point x="675" y="417.0" type="line"/>
      <point x="675" y="569" type="line"/>
      <point x="1050" y="569" type="line"/>
      <point x="1050" y="700.0" type="line"/>
      <point x="402.0" y="700.0" type="line"/>
      <point x="188" y="700"/>
      <point x="27" y="548"/>
      <point x="27" y="350" type="curve" smooth="yes"/>
      <point x="27" y="150"/>
      <point x="189" y="0"/>
    </contour>
  </outline>
</glyph>
<glyph name="oe" format="1">
  <advance width="1025"/>
  <unicode hex="0153"/>
  <outline>
    <contour>
      <point x="517" y="537" type="move" name="abvm"/>
    </contour>
    <contour>
      <point x="725.0" y="434.0" type="curve" smooth="yes"/>
      <point x="795" y="434"/>
      <point x="844" y="383"/>
      <point x="845" y="312" type="curve"/>
      <point x="595.87891" y="312" type="line"/>
      <point x="607.807648753" y="384.135797663"/>
      <point x="655.984438813" y="434.0"/>
    </contour>
    <contour>
      <point x="451" y="267" type="curve" smooth="yes"/>
      <point x="451" y="179"/>
      <point x="396" y="119"/>
      <point x="317" y="119" type="curve" smooth="yes"/>
      <point x="238" y="119"/>
      <point x="183" y="179"/>
      <point x="183" y="267" type="curve" smooth="yes"/>
      <point x="183" y="355"/>
      <point x="238" y="415"/>
      <point x="317" y="415" type="curve" smooth="yes"/>
      <point x="396" y="415"/>
      <point x="451" y="355"/>
    </contour>
    <contour>
      <point x="959" y="89" type="curve"/>
      <point x="878.0" y="171" type="line"/>
      <point x="840" y="134"/>
      <point x="792" y="114"/>
      <point x="740" y="114" type="curve" smooth="yes"/>
      <point x="665.862561765" y="114.0"/>
      <point x="611.331638684" y="158.296200902"/>
      <point x="596.82785" y="234.0" type="curve"/>
      <point x="998.0" y="234.0" type="line"/>
      <point x="1006" y="420"/>
      <point x="899" y="543"/>
      <point x="723" y="543" type="curve" smooth="yes"/>
      <point x="634.834432536" y="543.0"/>
      <point x="566.592400344" y="506.473518669"/>
      <point x="524.58837" y="443.73242" type="curve"/>
      <point x="481.244436108" y="506.493495756"/>
      <point x="410.174645945" y="543.0"/>
      <point x="317.0" y="543.0" type="curve" smooth="yes"/>
      <point x="144" y="543"/>
      <point x="28" y="434"/>
      <point x="28" y="269" type="curve" smooth="yes"/>
      <point x="28" y="105"/>
      <point x="144" y="-6"/>
      <point x="317" y="-6" type="curve" smooth="yes"/>
      <point x="409.447306128" y="-6.0"/>
      <point x="480.133519279" y="30.5982018268"/>
      <point x="523.56825" y="92.81962" type="curve"/>
      <point x="565.266013377" y="30.574856056"/>
      <point x="634.163053797" y="-6.0"/>
      <point x="727.0" y="-6.0" type="curve" smooth="yes"/>
      <point x="825" y="-6"/>
      <point x="904" y="29"/>
    </contour>
  </outline>
</glyph>
<glyph name="tbar" format="1">
  <advance width="426"/>
  <unicode hex="0167"/>
  <outline>
    <contour>
      <point x="254" y="0" type="move" name="blwm"/>
    </contour>
    <contour>
      <point x="213" y="269" type="move" name="center"/>
    </contour>
    <contour>
      <point x="407" y="30" type="curve"/>
      <point x="375.0" y="143" type="line"/>
      <point x="347" y="130"/>
      <point x="323" y="123"/>
      <point x="303" y="123" type="curve"/>
      <point x="270" y="122"/>
      <point x="251" y="140"/>
      <point x="251" y="185" type="curve"/>
      <point x="251.0" y="243.0" type="line"/>
      <point x="398.0" y="243.0" type="line"/>
      <point x="398.0" y="339" type="line"/>
      <point x="251.0" y="339" type="line"/>
      <point x="251.0" y="418.0" type="line"/>
      <point x="398.0" y="418.0" type="line"/>
      <point x="398.0" y="514" type="line"/>
      <point x="251.0" y="514" type="line"/>
      <point x="251.0" y="662" type="line"/>
      <point x="98.0" y="662" type="line"/>
      <point x="98.0" y="514" type="line"/>
      <point x="23.0" y="514" type="line"/>
      <point x="23.0" y="418.0" type="line"/>
      <point x="98.0" y="418.0" type="line"/>
      <point x="98.0" y="339" type="line"/>
      <point x="23.0" y="339" type="line"/>
      <point x="23.0" y="243.0" type="line"/>
      <point x="98.0" y="243.0" type="line"/>
      <point x="98.0" y="159" type="line"/>
      <point x="98" y="48"/>
      <point x="171" y="-7"/>
      <point x="267" y="-7" type="curve"/>
      <point x="317" y="-7"/>
      <point x="367" y="7"/>
    </contour>
  </outline>
</glyph>
<glyph name="Uogonek" format="1">
  <advance width="761"/>
  <unicode hex="0172"/>
  <outline>
    <contour>
      <point x="453" y="-202" type="curve" smooth="yes"/>
      <point x="494" y="-202"/>
      <point x="532" y="-180"/>
      <point x="557" y="-138" type="curve"/>
      <point x="516" y="-90.0" type="line"/>
      <point x="502" y="-109"/>
      <point x="488" y="-121"/>
      <point x="471" y="-121" type="curve" smooth="yes"/>
      <point x="457" y="-121"/>
      <point x="447" y="-112"/>
      <point x="447" y="-96" type="curve" smooth="yes"/>
      <point x="447.0" y="-73.3900534931"/>
      <point x="464.750336147" y="-38.3548716829"/>
      <point x="497.74267" y="9.1011" type="curve"/>
      <point x="622.462466522" y="46.9014491409"/>
      <point x="697.0" y="149.177969339"/>
      <point x="697.0" y="293.0" type="curve" smooth="yes"/>
      <point x="697.0" y="700.0" type="line"/>
      <point x="538" y="700.0" type="line"/>
      <point x="538" y="293" type="line" smooth="yes"/>
      <point x="538" y="192"/>
      <point x="477" y="131"/>
      <point x="383" y="131" type="curve" smooth="yes"/>
      <point x="288" y="131"/>
      <point x="223" y="193"/>
      <point x="223" y="293" type="curve" smooth="yes"/>
      <point x="223.0" y="700.0" type="line"/>
      <point x="65" y="700.0" type="line"/>
      <point x="65" y="293" type="line" smooth="yes"/>
      <point x="65" y="109"/>
      <point x="188" y="-7"/>
      <point x="382" y="-7" type="curve" smooth="yes"/>
      <point x="392.125588459" y="-7.0"/>
      <point x="402.055750048" y="-6.68071103038"/>
      <point x="411.78312" y="-6.0441" type="curve"/>
      <point x="384.728013165" y="-46.1378272382"/>
      <point x="368.0" y="-84.2659141676"/>
      <point x="368.0" y="-121.0" type="curve" smooth="yes"/>
      <point x="368" y="-181"/>
      <point x="413" y="-202"/>
    </contour>
  </outline>
</glyph>
<glyph name="uogonek" format="1">
  <advance width="655"/>
  <unicode hex="0173"/>
  <outline>
    <contour>
      <point x="434" y="538" type="line"/>
      <point x="434" y="259" type="line" smooth="yes"/>
      <point x="429" y="188"/>
      <point x="385" y="136"/>
      <point x="315" y="135" type="curve" smooth="yes"/>
      <point x="251" y="135"/>
      <point x="211" y="176"/>
      <point x="211" y="244" type="curve" smooth="yes"/>
      <point x="211" y="538" type="line"/>
      <point x="58" y="538" type="line"/>
      <point x="58" y="200" type="line" smooth="yes"/>
      <point x="58" y="73"/>
      <point x="133" y="-6"/>
      <point x="253" y="-6" type="curve" smooth="yes"/>
      <point x="334" y="-6"/>
      <point x="397" y="26"/>
      <point x="434" y="92" type="curve"/>
      <point x="434" y="0" type="line"/>
      <point x="475" y="0" type="line"/>
      <point x="445" y="-43"/>
      <point x="426" y="-82"/>
      <point x="426" y="-121" type="curve" smooth="yes"/>
      <point x="426" y="-181"/>
      <point x="472" y="-202"/>
      <point x="511" y="-202" type="curve" smooth="yes"/>
      <point x="552" y="-202"/>
      <point x="590" y="-180"/>
      <point x="615" y="-138" type="curve"/>
      <point x="574" y="-90" type="line"/>
      <point x="561" y="-109"/>
      <point x="546" y="-121"/>
      <point x="529" y="-121" type="curve" smooth="yes"/>
      <point x="515" y="-121"/>
      <point x="505" y="-112"/>
      <point x="505" y="-96" type="curve" smooth="yes"/>
      <point x="505" y="-75"/>
      <point x="520" y="-42"/>
      <point x="551" y="0" type="curve"/>
      <point x="587" y="0" type="line"/>
      <point x="587" y="538" type="line"/>
    </contour>
  </outline>
</glyph>
<glyph name="florin" format="1">
  <advance width="397"/>
  <unicode hex="0192"/>
  <note>
    florin
  </note>
  <outline>
    <contour>
      <point x="419" y="603" type="curve"/>
      <point x="472" y="714" type="line"/>
      <point x="437" y="736"/>
      <point x="382" y="751"/>
      <point x="331" y="752" type="curve" smooth="yes"/>
      <point x="218" y="753"/>
      <point x="137" y="684"/>
      <point x="124" y="577" type="curve" smooth="yes"/>
      <point x="110" y="465" type="line"/>
      <point x="39" y="465" type="line"/>
      <point x="27" y="362" type="line"/>
      <point x="98" y="362" type="line"/>
      <point x="53" y="-2" type="line" smooth="yes"/>
      <point x="47" y="-48"/>
      <point x="25" y="-77"/>
      <point x="-15" y="-76" type="curve" smooth="yes"/>
      <point x="-34" y="-75"/>
      <point x="-58" y="-67"/>
      <point x="-75" y="-52" type="curve"/>
      <point x="-115" y="-163" type="line"/>
      <point x="-86" y="-185"/>
      <point x="-38" y="-200"/>
      <point x="3" y="-201" type="curve" smooth="yes"/>
      <point x="116" y="-202"/>
      <point x="190" y="-133"/>
      <point x="203" y="-26" type="curve" smooth="yes"/>
      <point x="250" y="362" type="line"/>
      <point x="379" y="362" type="line"/>
      <point x="391" y="465" type="line"/>
      <point x="263" y="465" type="line"/>
      <point x="274" y="554" type="line" smooth="yes"/>
      <point x="280" y="599"/>
      <point x="311" y="628"/>
      <point x="354" y="627" type="curve" smooth="yes"/>
      <point x="375" y="626"/>
      <point x="401" y="618"/>
    </contour>
  </outline>
</glyph>
<glyph name="jdotless" format="1">
  <advance width="296"/>
  <unicode hex="0237"/>
  <outline>
    <contour>
      <point x="147" y="538" type="move" name="abvm"/>
    </contour>
    <contour>
      <point x="75" y="538" type="line"/>
      <point x="75" y="2" type="line"/>
      <point x="75" y="-49"/>
      <point x="53" y="-76"/>
      <point x="13" y="-75" type="curve"/>
      <point x="-10" y="-74"/>
      <point x="-33" y="-68"/>
      <point x="-54" y="-55" type="curve"/>
      <point x="-91" y="-165" type="line"/>
      <point x="-52" y="-187"/>
      <point x="-5" y="-199"/>
      <point x="47" y="-200" type="curve"/>
      <point x="160" y="-201"/>
      <point x="229" y="-134"/>
      <point x="229" y="-21" type="curve"/>
      <point x="229" y="538" type="line"/>
    </contour>
  </outline>
</glyph>
<glyph name="circumflex" format="1">
  <advance width="350"/>
  <unicode hex="02C6"/>
  <outline>
    <contour>
      <point x="175" y="539" type="move" name="_abvm"/>
    </contour>
    <contour>
      <point x="111" y="760" type="line"/>
      <point x="2" y="612" type="line"/>
      <point x="116" y="612" type="line"/>
      <point x="175" y="697" type="line"/>
      <point x="235" y="612" type="line"/>
      <point x="349" y="612" type="line"/>
      <point x="239" y="760" type="line"/>
    </contour>
  </outline>
</glyph>
<glyph name="caron" format="1">
  <advance width="350"/>
  <unicode hex="02C7"/>
  <outline>
    <contour>
      <point x="179" y="539" type="move" name="_abvm"/>
    </contour>
    <contour>
      <point x="244" y="600" type="line"/>
      <point x="361" y="760" type="line"/>
      <point x="237" y="760" type="line"/>
      <point x="175" y="668" type="line"/>
      <point x="113" y="760" type="line"/>
      <point x="-11" y="760" type="line"/>
      <point x="106" y="600" type="line"/>
    </contour>
  </outline>
</glyph>
<glyph name="breve" format="1">
  <advance width="350"/>
  <unicode hex="02D8"/>
  <outline>
    <contour>
      <point x="175" y="538" type="move" name="_abvm"/>
    </contour>
    <contour>
      <point x="233" y="757" type="line"/>
      <point x="231" y="721"/>
      <point x="207" y="697"/>
      <point x="175" y="697" type="curve" smooth="yes"/>
      <point x="143" y="697"/>
      <point x="119" y="721"/>
      <point x="117" y="757" type="curve"/>
      <point x="19" y="757" type="line"/>
      <point x="23" y="664"/>
      <point x="86" y="603"/>
      <point x="175" y="603" type="curve" smooth="yes"/>
      <point x="265" y="603"/>
      <point x="328" y="664"/>
      <point x="331" y="757" type="curve"/>
    </contour>
  </outline>
</glyph>
<glyph name="dotaccent" format="1">
  <advance width="350"/>
  <unicode hex="02D9"/>
  <outline>
    <contour>
      <point x="175" y="537" type="move" name="_abvm"/>
    </contour>
    <contour>
      <point x="92" y="691" type="curve" smooth="yes"/>
      <point x="92" y="641"/>
      <point x="127" y="605"/>
      <point x="175" y="605" type="curve" smooth="yes"/>
      <point x="224" y="605"/>
      <point x="259" y="641"/>
      <point x="259" y="691" type="curve" smooth="yes"/>
      <point x="259" y="741"/>
      <point x="224" y="777"/>
      <point x="175" y="777" type="curve" smooth="yes"/>
      <point x="127" y="777"/>
      <point x="92" y="741"/>
    </contour>
  </outline>
</glyph>
<glyph name="ring" format="1">
  <advance width="350"/>
  <unicode hex="02DA"/>
  <outline>
    <contour>
      <point x="175" y="537" type="move" name="_abvm"/>
    </contour>
    <contour>
      <point x="55" y="692" type="curve" smooth="yes"/>
      <point x="55" y="626"/>
      <point x="109" y="573"/>
      <point x="175" y="573" type="curve" smooth="yes"/>
      <point x="241" y="573"/>
      <point x="295" y="626"/>
      <point x="295" y="692" type="curve" smooth="yes"/>
      <point x="295" y="757"/>
      <point x="241" y="811"/>
      <point x="175" y="811" type="curve" smooth="yes"/>
      <point x="109" y="811"/>
      <point x="55" y="757"/>
    </contour>
    <contour>
      <point x="233" y="692" type="curve" smooth="yes"/>
      <point x="233" y="661"/>
      <point x="207" y="637"/>
      <point x="175" y="637" type="curve" smooth="yes"/>
      <point x="144" y="637"/>
      <point x="118" y="661"/>
      <point x="118" y="692" type="curve" smooth="yes"/>
      <point x="118" y="722"/>
      <point x="144" y="746"/>
      <point x="175" y="746" type="curve" smooth="yes"/>
      <point x="207" y="746"/>
      <point x="233" y="722"/>
    </contour>
  </outline>
</glyph>
<glyph name="ogonek" format="1">
  <advance width="350"/>
  <unicode hex="02DB"/>
  <outline>
    <contour>
      <point x="271" y="10" type="move" name="_ogonek"/>
    </contour>
    <contour>
      <point x="142" y="16" type="line"/>
      <point x="106" y="-31"/>
      <point x="82" y="-77"/>
      <point x="82" y="-121" type="curve" smooth="yes"/>
      <point x="82" y="-181"/>
      <point x="127" y="-202"/>
      <point x="167" y="-202" type="curve" smooth="yes"/>
      <point x="208" y="-202"/>
      <point x="246" y="-180"/>
      <point x="271" y="-138" type="curve"/>
      <point x="230" y="-90" type="line"/>
      <point x="217" y="-109"/>
      <point x="201" y="-121"/>
      <point x="185" y="-121" type="curve" smooth="yes"/>
      <point x="171" y="-121"/>
      <point x="161" y="-112"/>
      <point x="161" y="-96" type="curve" smooth="yes"/>
      <point x="161" y="-72"/>
      <point x="180" y="-34"/>
      <point x="217" y="16" type="curve"/>
    </contour>
  </outline>
</glyph>
<glyph name="tilde" format="1">
  <advance width="350"/>
  <unicode hex="02DC"/>
  <outline>
    <contour>
      <point x="175" y="537" type="move" name="_abvm"/>
    </contour>
    <contour>
      <point x="3" y="622" type="curve"/>
      <point x="99" y="622" type="line"/>
      <point x="99" y="652"/>
      <point x="109" y="667"/>
      <point x="131" y="667" type="curve"/>
      <point x="162" y="667"/>
      <point x="187" y="618"/>
      <point x="248" y="618" type="curve"/>
      <point x="315" y="618"/>
      <point x="348" y="667"/>
      <point x="348" y="767" type="curve"/>
      <point x="253" y="767" type="line"/>
      <point x="253" y="738"/>
      <point x="242" y="723"/>
      <point x="220" y="723" type="curve"/>
      <point x="190" y="723"/>
      <point x="161" y="773"/>
      <point x="104" y="773" type="curve"/>
      <point x="37" y="773"/>
      <point x="3" y="723"/>
    </contour>
  </outline>
</glyph>
<glyph name="hungarumlaut" format="1">
  <advance width="350"/>
  <unicode hex="02DD"/>
  <outline>
    <contour>
      <point x="145" y="539" type="move" name="_abvm"/>
    </contour>
    <contour>
      <point x="-20" y="602" type="line"/>
      <point x="94" y="602" type="line"/>
      <point x="185" y="722" type="line"/>
      <point x="65" y="769" type="line"/>
    </contour>
    <contour>
      <point x="165" y="602" type="line"/>
      <point x="279" y="602" type="line"/>
      <point x="370" y="722" type="line"/>
      <point x="249" y="769" type="line"/>
    </contour>
  </outline>
</glyph>
<glyph name="commaaccentcomb" format="1">
  <advance width="231"/>
  <unicode hex="0326"/>
  <outline>
    <contour>
      <point x="111" y="0" type="move" name="_blwm"/>
    </contour>
    <contour>
      <point x="105.0" y="-284" type="line"/>
      <point x="172" y="-183.0" type="line" smooth="yes"/>
      <point x="185" y="-164"/>
      <point x="193" y="-144"/>
      <point x="193" y="-120" type="curve" smooth="yes"/>
      <point x="193" y="-71"/>
      <point x="158" y="-43"/>
      <point x="118" y="-43" type="curve" smooth="yes"/>
      <point x="74" y="-43"/>
      <point x="42" y="-76"/>
      <point x="42" y="-121" type="curve" smooth="yes"/>
      <point x="42.0" y="-145.757839476"/>
      <point x="51.6136116013" y="-168.195152015"/>
      <point x="72.17691" y="-182.39199" type="curve"/>
      <point x="30.0" y="-284" type="line"/>
    </contour>
  </outline>
</glyph>
<glyph name="Delta" format="1">
  <advance width="760"/>
  <unicode hex="0394"/>
  <outline>
    <contour>
      <point x="378.0" y="535" type="line"/>
      <point x="545.5514" y="120.0" type="line"/>
      <point x="208.8972" y="120.0" type="line"/>
    </contour>
    <contour>
      <point x="-3.0" y="0" type="line"/>
      <point x="763.0" y="0" type="line"/>
      <point x="464.0" y="700.0" type="line"/>
      <point x="301" y="700.0" type="line"/>
    </contour>
  </outline>
</glyph>
<glyph name="Omega" format="1">
  <advance width="865"/>
  <unicode hex="03A9"/>
  <outline>
    <contour>
      <point x="20" y="700" type="move" name="topleft"/>
    </contour>
    <contour>
      <point x="73" y="379" type="curve" smooth="yes"/>
      <point x="73" y="289"/>
      <point x="124" y="186"/>
      <point x="195" y="129" type="curve"/>
      <point x="8" y="129" type="line"/>
      <point x="8" y="0" type="line"/>
      <point x="352" y="0" type="line"/>
      <point x="352" y="119" type="line"/>
      <point x="272" y="171"/>
      <point x="213" y="274"/>
      <point x="213" y="365" type="curve" smooth="yes"/>
      <point x="213" y="486"/>
      <point x="306" y="573"/>
      <point x="433" y="573" type="curve" smooth="yes"/>
      <point x="560" y="573"/>
      <point x="653" y="486"/>
      <point x="653" y="365" type="curve" smooth="yes"/>
      <point x="653" y="274"/>
      <point x="594" y="171"/>
      <point x="514" y="120" type="curve"/>
      <point x="514" y="0" type="line"/>
      <point x="858" y="0" type="line"/>
      <point x="858" y="129" type="line"/>
      <point x="671" y="129" type="line"/>
      <point x="742" y="187"/>
      <point x="793" y="290"/>
      <point x="793" y="379" type="curve" smooth="yes"/>
      <point x="793" y="569"/>
      <point x="640" y="708"/>
      <point x="433" y="708" type="curve" smooth="yes"/>
      <point x="225" y="708"/>
      <point x="73" y="569"/>
    </contour>
  </outline>
</glyph>
<glyph name="pi" format="1">
  <advance width="728"/>
  <unicode hex="03C0"/>
  <outline>
    <contour>
      <point x="302" y="0" type="line"/>
      <point x="349.11538" y="425.0" type="line"/>
      <point x="457.0" y="425.0" type="line"/>
      <point x="457.0" y="0" type="line"/>
      <point x="584" y="0" type="line"/>
      <point x="584" y="425.0" type="line"/>
      <point x="717.0" y="425.0" type="line"/>
      <point x="716.0" y="538" type="line"/>
      <point x="163" y="538" type="line"/>
      <point x="60" y="538"/>
      <point x="-15" y="471"/>
      <point x="-14" y="383" type="curve"/>
      <point x="-14" y="340"/>
      <point x="1" y="287"/>
      <point x="23" y="247" type="curve"/>
      <point x="129" y="286" type="line"/>
      <point x="115" y="308"/>
      <point x="106" y="336"/>
      <point x="106" y="356" type="curve"/>
      <point x="105" y="396"/>
      <point x="138" y="425"/>
      <point x="183" y="425" type="curve"/>
      <point x="221.15385" y="425.0" type="line"/>
      <point x="175.0" y="0" type="line"/>
    </contour>
  </outline>
</glyph>
<glyph name="uni0964" format="1">
  <advance width="308"/>
  <unicode hex="0964"/>
  <outline>
    <contour>
      <point x="276" y="-41" type="line"/>
      <point x="276" y="680" type="line"/>
      <point x="131" y="680" type="line"/>
      <point x="131" y="-41" type="line"/>
    </contour>
  </outline>
</glyph>
<glyph name="uni0A02" format="1">
  <advance width="0"/>
  <unicode hex="0A02"/>
  <outline>
    <contour>
      <point x="0" y="682" type="move" name="_abvm_bindu"/>
    </contour>
    <component base="uni0A3C" yOffset="912"/>
  </outline>
</glyph>
<glyph name="uni0A03" format="1">
  <advance width="486"/>
  <unicode hex="0A03"/>
  <outline>
    <contour>
      <point x="386" y="514" type="curve" smooth="yes"/>
      <point x="386" y="593"/>
      <point x="321" y="659"/>
      <point x="244" y="659" type="curve" smooth="yes"/>
      <point x="165" y="659"/>
      <point x="100" y="593"/>
      <point x="100" y="514" type="curve" smooth="yes"/>
      <point x="100" y="436"/>
      <point x="165" y="369"/>
      <point x="244" y="369" type="curve" smooth="yes"/>
      <point x="321" y="369"/>
      <point x="386" y="436"/>
    </contour>
    <contour>
      <point x="191" y="514" type="curve" smooth="yes"/>
      <point x="191" y="542"/>
      <point x="214" y="564"/>
      <point x="243" y="564" type="curve" smooth="yes"/>
      <point x="271" y="564"/>
      <point x="294" y="542"/>
      <point x="294" y="514" type="curve" smooth="yes"/>
      <point x="294" y="486"/>
      <point x="271" y="464"/>
      <point x="243" y="464" type="curve" smooth="yes"/>
      <point x="214" y="464"/>
      <point x="191" y="486"/>
    </contour>
    <contour>
      <point x="386" y="167" type="curve" smooth="yes"/>
      <point x="386" y="245"/>
      <point x="321" y="311"/>
      <point x="244" y="311" type="curve" smooth="yes"/>
      <point x="165" y="311"/>
      <point x="100" y="245"/>
      <point x="100" y="167" type="curve" smooth="yes"/>
      <point x="100" y="88"/>
      <point x="165" y="21"/>
      <point x="244" y="21" type="curve" smooth="yes"/>
      <point x="321" y="21"/>
      <point x="386" y="88"/>
    </contour>
    <contour>
      <point x="191" y="167" type="curve" smooth="yes"/>
      <point x="191" y="194"/>
      <point x="214" y="216"/>
      <point x="243" y="216" type="curve" smooth="yes"/>
      <point x="271" y="216"/>
      <point x="294" y="194"/>
      <point x="294" y="167" type="curve" smooth="yes"/>
      <point x="294" y="138"/>
      <point x="271" y="116"/>
      <point x="243" y="116" type="curve" smooth="yes"/>
      <point x="214" y="116"/>
      <point x="191" y="138"/>
    </contour>
  </outline>
</glyph>
<glyph name="uni0A05" format="1">
  <advance width="877"/>
  <unicode hex="0A05"/>
  <outline>
    <contour>
      <point x="706" y="691" type="move" name="abvm_bindu"/>
    </contour>
    <contour>
      <point x="706" y="701" type="move" name="abvm_candra"/>
    </contour>
    <contour>
      <point x="706" y="681" type="move" name="abvm"/>
    </contour>
    <contour>
      <point x="802.0" y="0" type="line"/>
      <point x="802.0" y="564" type="line"/>
      <point x="877.0" y="564" type="line"/>
      <point x="877.0" y="691" type="line"/>
      <point x="651" y="691" type="line"/>
      <point x="651" y="430.0" type="line"/>
      <point x="547.99158" y="430.0" type="line"/>
      <point x="526.707308752" y="559.178055766"/>
      <point x="440.11254636" y="626.0"/>
      <point x="337.0" y="626.0" type="curve" smooth="yes"/>
      <point x="287.93389757" y="626.0"/>
      <point x="245.337782799" y="611.119028386"/>
      <point x="210.77292" y="584.45949" type="curve"/>
      <point x="165.682597073" y="656.456522283"/>
      <point x="86.2513086097" y="691.0"/>
      <point x="2.0" y="691.0" type="curve" smooth="yes"/>
      <point x="-17" y="691" type="line"/>
      <point x="-17" y="564" type="line"/>
      <point x="12.0" y="564" type="line" smooth="yes"/>
      <point x="72.2885173201" y="564.0"/>
      <point x="119.255390911" y="531.747599392"/>
      <point x="128.82984" y="481.15121" type="curve"/>
      <point x="89.3470357484" y="410.562940944"/>
      <point x="57.9083737799" y="322.172329186"/>
      <point x="57.0" y="195.0" type="curve"/>
      <point x="180.0" y="163" type="line"/>
      <point x="230.15302392" y="259.65855519"/>
      <point x="256.192180586" y="328.045679809"/>
      <point x="258.11747" y="404.61578" type="curve"/>
      <point x="272.277037599" y="464.637093219"/>
      <point x="310.157041707" y="490.0"/>
      <point x="352.0" y="490.0" type="curve" smooth="yes"/>
      <point x="398.597919673" y="490.0"/>
      <point x="423.895279926" y="458.371896618"/>
      <point x="429.9664" y="403.20371" type="curve"/>
      <point x="366.833421067" y="321.887984918"/>
      <point x="345.568442776" y="231.196232623"/>
      <point x="341.0" y="138.0" type="curve" smooth="yes"/>
      <point x="340" y="120"/>
      <point x="340" y="98"/>
      <point x="341" y="82" type="curve"/>
      <point x="464.0" y="65" type="line"/>
      <point x="509.276929556" y="154.773222396"/>
      <point x="538.100229668" y="228.702209031"/>
      <point x="548.56704" y="303" type="curve"/>
      <point x="651" y="303" type="line"/>
      <point x="651" y="0" type="line"/>
    </contour>
  </outline>
</glyph>
<glyph name="uni0A06" format="1">
  <advance width="1176"/>
  <unicode hex="0A06"/>
  <outline>
    <contour>
      <point x="1004" y="691" type="move" name="abvm_bindu"/>
    </contour>
    <contour>
      <point x="1004" y="701" type="move" name="abvm_candra"/>
    </contour>
    <contour>
      <point x="1004" y="681" type="move" name="abvm"/>
    </contour>
    <component base="uni0A05"/>
    <component base="uni0A3E" xOffset="877"/>
  </outline>
</glyph>
<glyph name="uni0A09" format="1">
  <advance width="668"/>
  <unicode hex="0A09"/>
  <outline>
    <contour>
      <point x="696" y="680" type="move" name="abvm_bindu"/>
    </contour>
    <contour>
      <point x="792" y="685" type="move" name="abvm_candra"/>
    </contour>
    <component base="uni0A73"/>
    <component base="uni0A41" xOffset="396"/>
  </outline>
</glyph>
<glyph name="uni0A0F" format="1">
  <advance width="638"/>
  <unicode hex="0A0F"/>
  <outline>
    <contour>
      <point x="465" y="670" type="move" name="_abvm"/>
    </contour>
    <contour>
      <point x="633" y="680" type="move" name="abvm_bindu"/>
    </contour>
    <contour>
      <point x="391" y="2" type="move" name="blwm"/>
    </contour>
    <contour>
      <point x="730" y="690" type="move" name="abvm_candra"/>
    </contour>
    <contour>
      <point x="389" y="30" type="move" name="blwm_caret_1"/>
    </contour>
    <contour>
      <point x="106" y="-48" type="move" name="blwm_nukta"/>
    </contour>
    <contour>
      <point x="481" y="670" type="move" name="abvm"/>
    </contour>
    <contour>
      <point x="407.0" y="416.0" type="line"/>
      <point x="286.264649115" y="416.0"/>
      <point x="209.869422342" y="479.582064764"/>
      <point x="196.94461" y="564" type="curve"/>
      <point x="412.0" y="564" type="line"/>
      <point x="412.0" y="416.0" type="line"/>
    </contour>
    <contour>
      <point x="584" y="28" type="curve"/>
      <point x="553" y="148" type="line"/>
      <point x="499" y="128"/>
      <point x="436" y="115"/>
      <point x="377" y="115" type="curve" smooth="yes"/>
      <point x="284.316462254" y="115.0"/>
      <point x="210.746127981" y="142.523013002"/>
      <point x="176.34348" y="190.90235" type="curve"/>
      <point x="219.415287902" y="243.212233716"/>
      <point x="309.962921312" y="293.081320225"/>
      <point x="479.0" y="294.0" type="curve" smooth="yes"/>
      <point x="563" y="294" type="line"/>
      <point x="563" y="564" type="line"/>
      <point x="638" y="564" type="line"/>
      <point x="638" y="691" type="line"/>
      <point x="521.0353" y="691" type="line"/>
      <point x="502.314431117" y="852.569359678"/>
      <point x="395.63512794" y="950.0"/>
      <point x="221.0" y="950.0" type="curve" smooth="yes"/>
      <point x="175" y="950"/>
      <point x="129" y="943"/>
      <point x="89" y="928" type="curve"/>
      <point x="119.0" y="811.0" type="line"/>
      <point x="158" y="820"/>
      <point x="199" y="825"/>
      <point x="236" y="825" type="curve" smooth="yes"/>
      <point x="342.276488733" y="825.0"/>
      <point x="388.79270203" y="778.756929722"/>
      <point x="404.35187" y="691" type="curve"/>
      <point x="-17" y="691" type="line"/>
      <point x="-17" y="564" type="line"/>
      <point x="46.31628" y="564" type="line"/>
      <point x="58.6214735911" y="484.411995869"/>
      <point x="119.194296013" y="413.316877691"/>
      <point x="209.77928" y="371.52171" type="curve"/>
      <point x="117.335412368" y="336.084522472"/>
      <point x="58.1348331945" y="278.292798779"/>
      <point x="28.0" y="226.0" type="curve"/>
      <point x="68" y="72"/>
      <point x="226" y="-13"/>
      <point x="390" y="-13" type="curve" smooth="yes"/>
      <point x="459" y="-13"/>
      <point x="528" y="2"/>
    </contour>
  </outline>
</glyph>
<glyph name="uni0A10" format="1">
  <advance width="877"/>
  <unicode hex="0A10"/>
  <outline>
    <contour>
      <point x="706" y="681" type="move" name="_abvm"/>
    </contour>
    <contour>
      <point x="883" y="680" type="move" name="abvm_bindu"/>
    </contour>
    <contour>
      <point x="980" y="690" type="move" name="abvm_candra"/>
    </contour>
    <contour>
      <point x="721" y="681" type="move" name="abvm"/>
    </contour>
    <contour>
      <point x="802.0" y="0" type="line"/>
      <point x="802.0" y="564" type="line"/>
      <point x="877.0" y="564" type="line"/>
      <point x="877.0" y="691" type="line"/>
      <point x="763.34879" y="691" type="line"/>
      <point x="753.268600145" y="945.789386925"/>
      <point x="631.032924526" y="1079.0"/>
      <point x="438.0" y="1079.0" type="curve"/>
      <point x="443.0" y="972.0" type="line"/>
      <point x="558.823398471" y="972.0"/>
      <point x="640.557923523" y="920.504042281"/>
      <point x="673.37896" y="798.96005" type="curve"/>
      <point x="615.448366506" y="876.294385805"/>
      <point x="512.476681762" y="918.0"/>
      <point x="398.0" y="918.0" type="curve" smooth="yes"/>
      <point x="343" y="918"/>
      <point x="289" y="909"/>
      <point x="244" y="888" type="curve"/>
      <point x="274" y="780.0" type="line"/>
      <point x="311" y="793"/>
      <point x="364" y="801"/>
      <point x="417" y="801" type="curve" smooth="yes"/>
      <point x="540" y="801"/>
      <point x="651" y="770"/>
      <point x="651" y="663" type="curve"/>
      <point x="651" y="430.0" type="line"/>
      <point x="547.99158" y="430.0" type="line"/>
      <point x="526.707308752" y="559.178055766"/>
      <point x="440.11254636" y="626.0"/>
      <point x="337.0" y="626.0" type="curve" smooth="yes"/>
      <point x="287.93389757" y="626.0"/>
      <point x="245.337782799" y="611.119028386"/>
      <point x="210.77292" y="584.45949" type="curve"/>
      <point x="165.682597073" y="656.456522283"/>
      <point x="86.2513086097" y="691.0"/>
      <point x="2.0" y="691.0" type="curve" smooth="yes"/>
      <point x="-17" y="691" type="line"/>
      <point x="-17" y="564" type="line"/>
      <point x="12.0" y="564" type="line" smooth="yes"/>
      <point x="72.2885173201" y="564.0"/>
      <point x="119.255390911" y="531.747599392"/>
      <point x="128.82984" y="481.15121" type="curve"/>
      <point x="89.3470357484" y="410.562940944"/>
      <point x="57.9083737799" y="322.172329186"/>
      <point x="57.0" y="195.0" type="curve"/>
      <point x="180.0" y="163" type="line"/>
      <point x="230.15302392" y="259.65855519"/>
      <point x="256.192180586" y="328.045679809"/>
      <point x="258.11747" y="404.61578" type="curve"/>
      <point x="272.277037599" y="464.637093219"/>
      <point x="310.157041707" y="490.0"/>
      <point x="352.0" y="490.0" type="curve" smooth="yes"/>
      <point x="398.597919673" y="490.0"/>
      <point x="423.895279926" y="458.371896618"/>
      <point x="429.9664" y="403.20371" type="curve"/>
      <point x="366.833421067" y="321.887984918"/>
      <point x="345.568442776" y="231.196232623"/>
      <point x="341.0" y="138.0" type="curve" smooth="yes"/>
      <point x="340" y="120"/>
      <point x="340" y="98"/>
      <point x="341" y="82" type="curve"/>
      <point x="464.0" y="65" type="line"/>
      <point x="509.276929556" y="154.773222396"/>
      <point x="538.100229668" y="228.702209031"/>
      <point x="548.56704" y="303" type="curve"/>
      <point x="651" y="303" type="line"/>
      <point x="651" y="0" type="line"/>
    </contour>
  </outline>
</glyph>
<glyph name="uni0A13" format="1">
  <advance width="668"/>
  <unicode hex="0A13"/>
  <outline>
    <contour>
      <point x="652" y="680" type="move" name="abvm_bindu"/>
    </contour>
    <contour>
      <point x="397" y="2" type="move" name="blwm"/>
    </contour>
    <contour>
      <point x="763" y="650" type="move" name="abvm_candra"/>
    </contour>
    <contour>
      <point x="396" y="30" type="move" name="blwm_caret_1"/>
    </contour>
    <contour>
      <point x="92" y="-18" type="move" name="blwm_nukta"/>
    </contour>
    <contour>
      <point x="532" y="670" type="move" name="abvm"/>
    </contour>
    <contour>
      <point x="188.0" y="534.0" type="curve" smooth="yes"/>
      <point x="188.0" y="544.079169765"/>
      <point x="188.133664747" y="554.109329122"/>
      <point x="188.42895" y="564" type="curve"/>
      <point x="476.79735" y="564" type="line"/>
      <point x="462.384178808" y="475.751742963"/>
      <point x="408.009506454" y="417.0"/>
      <point x="270.0" y="417.0" type="curve" smooth="yes"/>
      <point x="193.18192" y="417.0" type="line"/>
      <point x="189.284354636" y="456.876300111"/>
      <point x="187.791084229" y="496.812992737"/>
    </contour>
    <contour>
      <point x="620" y="165" type="curve" smooth="yes"/>
      <point x="620.0" y="231.756093505"/>
      <point x="578.057637458" y="300.362585357"/>
      <point x="490.78202" y="341.26814" type="curve"/>
      <point x="578.454758304" y="393.491302246"/>
      <point x="618.30604922" y="469.287471213"/>
      <point x="625.70935" y="564" type="curve"/>
      <point x="685" y="564" type="line"/>
      <point x="685" y="691" type="line"/>
      <point x="205.21717" y="691" type="line"/>
      <point x="227.369776811" y="769.659239484"/>
      <point x="275.17683732" y="825.0"/>
      <point x="372.0" y="825.0" type="curve" smooth="yes"/>
      <point x="400" y="825"/>
      <point x="449" y="820"/>
      <point x="494" y="810" type="curve"/>
      <point x="524" y="928.0" type="line"/>
      <point x="471" y="942"/>
      <point x="410" y="949"/>
      <point x="362" y="949" type="curve" smooth="yes"/>
      <point x="171.876540341" y="949.0"/>
      <point x="86.0304768803" y="842.945148186"/>
      <point x="56.57614" y="691" type="curve"/>
      <point x="-17" y="691" type="line"/>
      <point x="-17" y="564" type="line"/>
      <point x="44.19366" y="564" type="line"/>
      <point x="44.0636146561" y="557.487579087"/>
      <point x="44.0" y="550.764845098"/>
      <point x="44.0" y="544.0" type="curve" smooth="yes"/>
      <point x="44" y="268"/>
      <point x="143" y="-13"/>
      <point x="399" y="-13" type="curve" smooth="yes"/>
      <point x="537" y="-13"/>
      <point x="620" y="71"/>
    </contour>
    <contour>
      <point x="379" y="115" type="curve" smooth="yes"/>
      <point x="287.928588308" y="115.0"/>
      <point x="237.42490453" y="199.282951958"/>
      <point x="211.56412" y="305" type="curve"/>
      <point x="316" y="305" type="line" smooth="yes"/>
      <point x="423" y="305"/>
      <point x="471" y="245"/>
      <point x="471" y="192" type="curve" smooth="yes"/>
      <point x="471" y="148"/>
      <point x="437" y="115"/>
    </contour>
  </outline>
</glyph>
<glyph name="uni0A15" format="1">
  <advance width="708"/>
  <unicode hex="0A15"/>
  <outline>
    <contour>
      <point x="556" y="682" type="move" name="abvm_bindu"/>
    </contour>
    <contour>
      <point x="581" y="0" type="move" name="blwm"/>
    </contour>
    <contour>
      <point x="556" y="692" type="move" name="abvm_candra"/>
    </contour>
    <contour>
      <point x="341" y="3" type="move" name="blwm_caret_1"/>
    </contour>
    <contour>
      <point x="113" y="-35" type="move" name="blwm_nukta"/>
    </contour>
    <contour>
      <point x="560" y="672" type="move" name="abvm"/>
    </contour>
    <contour>
      <point x="656" y="0" type="line"/>
      <point x="656" y="13.0" type="line" smooth="yes"/>
      <point x="656.0" y="95.0215309549"/>
      <point x="627.76097872" y="194.484810347"/>
      <point x="575.82452" y="282.62435" type="curve"/>
      <point x="615.688006204" y="371.24779484"/>
      <point x="633.0" y="470.192084647"/>
      <point x="633.0" y="551.0" type="curve" smooth="yes"/>
      <point x="633" y="564" type="line"/>
      <point x="708.0" y="564" type="line"/>
      <point x="708.0" y="691" type="line"/>
      <point x="0" y="691" type="line"/>
      <point x="0" y="564" type="line"/>
      <point x="491.0" y="564" type="line"/>
      <point x="491.0" y="556" type="line" smooth="yes"/>
      <point x="491" y="506"/>
      <point x="484" y="456"/>
      <point x="469" y="410" type="curve"/>
      <point x="413" y="463"/>
      <point x="337" y="494"/>
      <point x="254" y="494" type="curve" smooth="yes"/>
      <point x="101" y="494"/>
      <point x="27" y="387"/>
      <point x="27" y="287" type="curve" smooth="yes"/>
      <point x="27" y="170"/>
      <point x="129" y="58"/>
      <point x="285" y="58" type="curve" smooth="yes"/>
      <point x="373.802991295" y="58.0"/>
      <point x="436.858499637" y="92.5981802167"/>
      <point x="485.71427" y="147.3718" type="curve"/>
      <point x="498.635600721" y="103.877603709"/>
      <point x="504.0" y="58.7624270796"/>
      <point x="504.0" y="17.0" type="curve" smooth="yes"/>
      <point x="504.0" y="0" type="line"/>
    </contour>
    <contour>
      <point x="285.0" y="187.0" type="curve" smooth="yes"/>
      <point x="217" y="187"/>
      <point x="180" y="229"/>
      <point x="180" y="276" type="curve" smooth="yes"/>
      <point x="180" y="324"/>
      <point x="216" y="366"/>
      <point x="284" y="366" type="curve" smooth="yes"/>
      <point x="342.297613001" y="366.0"/>
      <point x="393.781346488" y="336.473188777"/>
      <point x="431.86359" y="284.64059" type="curve"/>
      <point x="397.404809014" y="221.968363244"/>
      <point x="346.903768079" y="187.0"/>
    </contour>
  </outline>
</glyph>
<glyph name="uni0A16" format="1">
  <advance width="694"/>
  <unicode hex="0A16"/>
  <outline>
    <contour>
      <point x="523" y="680" type="move" name="abvm_bindu"/>
    </contour>
    <contour>
      <point x="545" y="0" type="move" name="blwm"/>
    </contour>
    <contour>
      <point x="523" y="690" type="move" name="abvm_candra"/>
    </contour>
    <contour>
      <point x="332" y="30" type="move" name="blwm_caret_1"/>
    </contour>
    <contour>
      <point x="99" y="9" type="move" name="blwm_nukta"/>
    </contour>
    <contour>
      <point x="523" y="670" type="move" name="abvm"/>
    </contour>
    <contour>
      <point x="619" y="0" type="line"/>
      <point x="619" y="564" type="line"/>
      <point x="694" y="564" type="line"/>
      <point x="694" y="691" type="line"/>
      <point x="468.0" y="691" type="line"/>
      <point x="468.0" y="489.0" type="line"/>
      <point x="280.09833" y="489.0" type="line"/>
      <point x="261.283157385" y="589.05480858"/>
      <point x="174.761748885" y="691.0"/>
      <point x="28.0" y="691.0" type="curve" smooth="yes"/>
      <point x="0" y="691" type="line"/>
      <point x="0" y="564" type="line"/>
      <point x="34" y="564" type="line" smooth="yes"/>
      <point x="106" y="564"/>
      <point x="136" y="517"/>
      <point x="136" y="461" type="curve" smooth="yes"/>
      <point x="136" y="401"/>
      <point x="102" y="361"/>
      <point x="42" y="322" type="curve"/>
      <point x="66" y="171"/>
      <point x="191" y="92"/>
      <point x="312" y="92" type="curve" smooth="yes"/>
      <point x="376.537851862" y="92.0"/>
      <point x="427.091523403" y="101.681355606"/>
      <point x="468.0" y="118.6877" type="curve"/>
      <point x="468.0" y="0" type="line"/>
    </contour>
    <contour>
      <point x="310.0" y="219.0" type="curve" smooth="yes"/>
      <point x="240.950950441" y="219.0"/>
      <point x="208.131798543" y="244.402571923"/>
      <point x="191.925" y="271.84399" type="curve"/>
      <point x="221.785941979" y="293.334684282"/>
      <point x="249.756171526" y="322.669168096"/>
      <point x="266.859" y="362.0" type="curve"/>
      <point x="468.0" y="362.0" type="line"/>
      <point x="468.0" y="295.82384" type="line"/>
      <point x="425.961926779" y="237.118658475"/>
      <point x="358.098058767" y="219.0"/>
    </contour>
  </outline>
</glyph>
<glyph name="uni0A17" format="1">
  <advance width="858"/>
  <unicode hex="0A17"/>
  <outline>
    <contour>
      <point x="687" y="682" type="move" name="abvm_bindu"/>
    </contour>
    <contour>
      <point x="709" y="0" type="move" name="blwm"/>
    </contour>
    <contour>
      <point x="687" y="690" type="move" name="abvm_candra"/>
    </contour>
    <contour>
      <point x="454" y="30" type="move" name="blwm_caret_1"/>
    </contour>
    <contour>
      <point x="60" y="-26" type="move" name="blwm_nukta"/>
    </contour>
    <contour>
      <point x="707" y="672" type="move" name="abvm"/>
    </contour>
    <contour>
      <point x="527" y="159" type="curve" smooth="yes"/>
      <point x="527" y="564" type="line"/>
      <point x="632" y="564" type="line"/>
      <point x="632" y="0" type="line"/>
      <point x="783.0" y="0" type="line"/>
      <point x="783.0" y="564" type="line"/>
      <point x="858.0" y="564" type="line"/>
      <point x="858.0" y="691" type="line"/>
      <point x="0" y="691" type="line"/>
      <point x="0" y="564" type="line"/>
      <point x="376.0" y="564" type="line"/>
      <point x="376.0" y="449.0" type="line"/>
      <point x="222.0" y="449.0" type="line" smooth="yes"/>
      <point x="103" y="449"/>
      <point x="28" y="381"/>
      <point x="28" y="268" type="curve" smooth="yes"/>
      <point x="28" y="110"/>
      <point x="203" y="-13"/>
      <point x="343" y="-13" type="curve" smooth="yes"/>
      <point x="443" y="-13"/>
      <point x="527" y="40"/>
    </contour>
    <contour>
      <point x="323" y="114" type="curve" smooth="yes"/>
      <point x="249" y="114"/>
      <point x="181" y="179"/>
      <point x="181" y="249" type="curve" smooth="yes"/>
      <point x="181" y="292"/>
      <point x="205" y="322"/>
      <point x="254" y="322" type="curve" smooth="yes"/>
      <point x="376.8631" y="322" type="line"/>
      <point x="376.0" y="177.0" type="line" smooth="yes"/>
      <point x="376" y="142"/>
      <point x="370" y="114"/>
    </contour>
  </outline>
</glyph>
<glyph name="uni0A18" format="1">
  <advance width="886"/>
  <unicode hex="0A18"/>
  <outline>
    <contour>
      <point x="714" y="680" type="move" name="abvm_bindu"/>
    </contour>
    <contour>
      <point x="736" y="0" type="move" name="blwm"/>
    </contour>
    <contour>
      <point x="714" y="690" type="move" name="abvm_candra"/>
    </contour>
    <contour>
      <point x="453" y="30" type="move" name="blwm_caret_1"/>
    </contour>
    <contour>
      <point x="100" y="0" type="move" name="blwm_nukta"/>
    </contour>
    <contour>
      <point x="714" y="670" type="move" name="abvm"/>
    </contour>
    <contour>
      <point x="811.0" y="0" type="line"/>
      <point x="811.0" y="564" type="line"/>
      <point x="886.0" y="564" type="line"/>
      <point x="886.0" y="691" type="line"/>
      <point x="660" y="691" type="line"/>
      <point x="660" y="258.94557" type="line"/>
      <point x="631.95122468" y="228.799883859"/>
      <point x="598.275662115" y="219.0"/>
      <point x="573.0" y="219.0" type="curve" smooth="yes"/>
      <point x="535.857353841" y="219.0"/>
      <point x="511.444360864" y="232.790457615"/>
      <point x="496.67074" y="250.74204" type="curve"/>
      <point x="527.416761183" y="322.85657953"/>
      <point x="540.0" y="392.714742191"/>
      <point x="540.0" y="461.0" type="curve" smooth="yes"/>
      <point x="540" y="519"/>
      <point x="532" y="575"/>
      <point x="519" y="632" type="curve"/>
      <point x="383.0" y="632" type="line"/>
      <point x="383.0" y="278" type="line"/>
      <point x="357" y="232"/>
      <point x="312" y="219"/>
      <point x="281" y="219" type="curve" smooth="yes"/>
      <point x="229.328426374" y="219.0"/>
      <point x="201.775067171" y="242.46637079"/>
      <point x="188.86692" y="269.97333" type="curve"/>
      <point x="239.973856244" y="304.087845149"/>
      <point x="284.0" y="361.106480943"/>
      <point x="284.0" y="448.0" type="curve" smooth="yes"/>
      <point x="284" y="559"/>
      <point x="195" y="691"/>
      <point x="28" y="691" type="curve" smooth="yes"/>
      <point x="0" y="691" type="line"/>
      <point x="0" y="564" type="line"/>
      <point x="34" y="564" type="line" smooth="yes"/>
      <point x="106" y="564"/>
      <point x="136" y="517"/>
      <point x="136" y="461" type="curve" smooth="yes"/>
      <point x="136" y="401"/>
      <point x="102" y="361"/>
      <point x="42" y="322" type="curve"/>
      <point x="63" y="171"/>
      <point x="176" y="92"/>
      <point x="282" y="92" type="curve" smooth="yes"/>
      <point x="349.904315907" y="92.0"/>
      <point x="400.517396368" y="109.291235445"/>
      <point x="435.67385" y="143.88205" type="curve"/>
      <point x="475.37585602" y="110.060396669"/>
      <point x="523.993297369" y="92.0"/>
      <point x="574.0" y="92.0" type="curve" smooth="yes"/>
      <point x="607.442750599" y="92.0"/>
      <point x="635.653429708" y="96.2354864446"/>
      <point x="660" y="104.21104" type="curve"/>
      <point x="660" y="0" type="line"/>
    </contour>
  </outline>
</glyph>
<glyph name="uni0A19" format="1">
  <advance width="648"/>
  <unicode hex="0A19"/>
  <outline>
    <contour>
      <point x="501" y="680" type="move" name="abvm_bindu"/>
    </contour>
    <contour>
      <point x="311" y="0" type="move" name="blwm"/>
    </contour>
    <contour>
      <point x="501" y="690" type="move" name="abvm_candra"/>
    </contour>
    <contour>
      <point x="312" y="30" type="move" name="blwm_caret_1"/>
    </contour>
    <contour>
      <point x="86" y="-82" type="move" name="blwm_nukta"/>
    </contour>
    <contour>
      <point x="501" y="670" type="move" name="abvm"/>
    </contour>
    <contour>
      <point x="302" y="-13" type="curve" smooth="yes"/>
      <point x="507" y="-13"/>
      <point x="615" y="113"/>
      <point x="615" y="239" type="curve" smooth="yes"/>
      <point x="615" y="361"/>
      <point x="514" y="476"/>
      <point x="325" y="476" type="curve" smooth="yes"/>
      <point x="247.0" y="476.0" type="line"/>
      <point x="247.0" y="564" type="line"/>
      <point x="648" y="564" type="line"/>
      <point x="648" y="691" type="line"/>
      <point x="0" y="691" type="line"/>
      <point x="0" y="564" type="line"/>
      <point x="96.0" y="564" type="line"/>
      <point x="96.0" y="350.0" type="line"/>
      <point x="336" y="350.0" type="line" smooth="yes"/>
      <point x="429" y="350"/>
      <point x="468" y="299"/>
      <point x="468" y="244" type="curve" smooth="yes"/>
      <point x="468.0" y="223.183862128"/>
      <point x="462.340419972" y="201.660276752"/>
      <point x="451.28423" y="181.72891" type="curve"/>
      <point x="397.315122137" y="246.044408989"/>
      <point x="305.776084758" y="288.0"/>
      <point x="202.0" y="288.0" type="curve" smooth="yes"/>
      <point x="103" y="288"/>
      <point x="35" y="245"/>
      <point x="35" y="165" type="curve" smooth="yes"/>
      <point x="35" y="63"/>
      <point x="144" y="-13"/>
    </contour>
    <contour>
      <point x="286.0" y="96.0" type="curve" smooth="yes"/>
      <point x="217" y="96"/>
      <point x="170" y="123"/>
      <point x="170" y="156" type="curve" smooth="yes"/>
      <point x="170" y="177"/>
      <point x="192" y="190"/>
      <point x="231" y="190" type="curve" smooth="yes"/>
      <point x="284.971120561" y="190.0"/>
      <point x="345.869427458" y="163.157152945"/>
      <point x="384.68792" y="118.32993" type="curve"/>
      <point x="357.891846265" y="104.466591877"/>
      <point x="324.876666475" y="96.0"/>
    </contour>
  </outline>
</glyph>
